<?xml version="1.0" standalone="no"?>
<!DOCTYPE svg PUBLIC "-//W3C//DTD SVG 20010904//EN"
 "http://www.w3.org/TR/2001/REC-SVG-20010904/DTD/svg10.dtd">
<svg version="1.0" xmlns="http://www.w3.org/2000/svg"
 width="282.000000pt" height="282.000000pt" viewBox="0 0 282.000000 282.000000"
 preserveAspectRatio="xMidYMid meet">
<metadata>
Created by potrace 1.14, written by Peter Selinger 2001-2017
</metadata>
<g transform="translate(0.000000,282.000000) scale(0.100000,-0.100000)"
fill="#000000" stroke="none">
<path d="M1115 2722 c-51 -6 -187 -41 -245 -64 -306 -121 -536 -369 -625 -673
-35 -120 -40 -163 -39 -340 2 -312 77 -571 247 -854 163 -270 430 -541 636
-645 182 -93 396 -60 611 92 71 50 243 217 306 297 21 28 41 52 45 55 3 3 18
23 35 45 24 33 64 85 157 205 24 31 102 125 107 130 19 16 123 154 154 203 35
54 79 156 91 209 21 96 26 131 24 188 -4 129 -51 265 -136 393 -118 178 -482
485 -734 620 -105 56 -247 102 -411 133 -38 7 -179 11 -223 6z m298 -211 c83
-32 154 -134 173 -248 2 -15 9 -50 14 -78 5 -27 12 -75 15 -105 19 -188 16
-168 40 -294 9 -49 43 -170 76 -268 71 -215 90 -312 94 -483 5 -258 -75 -510
-218 -680 -69 -82 -176 -123 -223 -84 -26 21 -51 86 -59 154 -4 32 -9 68 -11
80 -2 11 -11 59 -19 107 -29 163 -78 292 -215 563 -77 153 -140 305 -156 380
-34 152 -38 183 -38 305 -1 143 2 167 28 268 54 203 181 360 322 396 50 13
126 7 177 -13z"/>
</g>
</svg>
