<svg xmlns="http://www.w3.org/2000/svg"><defs><font id="AvenirNext-UltraLight" horiz-adv-x="666"><font-face font-family="Avenir Next Ultra Light" font-weight="275" panose-1="2 11 2 3 2 2 2 2 2 4" ascent="800" descent="-200" x-height="460" cap-height="708" bbox="-360 -368 1322 1192" underline-thickness="50" underline-position="-150" unicode-range="U+000D-FE48"/><glyph glyph-name="IJ" unicode="IJ" horiz-adv-x="707" d="M106 0v708h22V0h-22zm499 193q0-98-45.5-154.5T424-18q-63 0-107 32.5T256 93l19 9q20-45 59-72.5T424 2q43 0 73 14.5T546 57t28 61.5 9 77.5v512h22V193z"/><glyph glyph-name="ij" unicode="ij" horiz-adv-x="455" d="M113 633q-9 0-16 7t-7 19q0 11 7 18t16 7 16-7 7-18q0-12-7.5-19t-15.5-7zM102 0v460h22V0h-22zm251-97q0-35-4.5-62t-17-45-34.5-27.5-56-9.5q-7 0-15 .5t-14 2.5l4 19q13-3 25-3 32 0 50 11t27 28.5 11 39.5 2 44v559h22V-97zm-11 730q-9 0-16 7t-7 19q0 11 7 18t16 7 16-7 7-18q0-12-7.5-19t-15.5-7z"/><glyph glyph-name="napostrophe" unicode="&quot;n" horiz-adv-x="572" d="M128 339q10 32 29 57t43 42.5 52 26.5 58 9q48 0 80-17t51-45 27-63 8-71V0h-22v276q0 28-6 60t-22.5 58-44.5 43.5-71 17.5q-38 0-71.5-15.5t-58-44.5-39-70.5T127 230V0h-22v344q0 11-.5 27t-1 32.5T102 435t-2 25h22q1-10 1.5-25t1-32.5 1-34 .5-29.5h2zM75 523H58l51 185h24z"/><glyph glyph-name="fi" unicode="fi" horiz-adv-x="494" d="M381 633q-9 0-16 7t-7 19q0 11 7 18t16 7 16-7 7-18q0-12-7.5-19t-15.5-7zM370 0v460h22V0h-22zm-88 745q-10 2-20 3.5t-21 1.5q-27 0-46-11t-30.5-28.5T148 671t-5-45V460h125v-19H143V0h-22v441H24v19h96v165q0 42 11 70t28.5 44 38.5 22.5 42 6.5q26 0 46-6z"/><glyph glyph-name="fl" unicode="fl" horiz-adv-x="494" d="M370 0v756h22V0h-22zm-88 745q-10 2-20 3.5t-21 1.5q-27 0-46-11t-30.5-28.5T148 671t-5-45V460h125v-19H143V0h-22v441H24v19h96v165q0 42 11 70t28.5 44 38.5 22.5 42 6.5q26 0 46-6z"/><glyph glyph-name=".notdef" horiz-adv-x="512" d="M222 117v67h56v-67h-56zm3 117-2 17q0 56 13 81 7 13 18 27.5t28 31.5q16 15 26 26.5t15 21 7 18 2 17.5q0 36-22.5 60.5T256 559t-53.5-22-28.5-73l-50 8q7 72 44 104.5t91 32.5 89-35.5 35-95.5q0-32-12.5-58.5T320 358q-37-33-43-52-6-20-6-72h-46zM462 50v617H50V50h412zm50 668V0H0v718h512z"/><glyph glyph-name=".null" horiz-adv-x="500"/><glyph glyph-name=".null" horiz-adv-x="500"/><glyph glyph-name="nonmarkingreturn" horiz-adv-x="0"/><glyph glyph-name="space" horiz-adv-x="250"/><glyph glyph-name="exclam" unicode="!" horiz-adv-x="276" d="M138 45q8 0 15.5-7t7.5-19q0-11-7-18t-16-7-16 7-7 18q0 12 7 19t16 7zm11 150h-22v513h22V195z"/><glyph glyph-name="quotedbl" unicode="&quot;" horiz-adv-x="404" d="M119 480v228h22V480h-22zm144 0v228h22V480h-22z"/><glyph glyph-name="numbersign" unicode="#" horiz-adv-x="550" d="m378 453-26-196h112v-17H350L320 0h-19l30 240H159L129 0h-19l30 240H29v17h113l27 196H58v17h113l30 238h19l-31-238h172l31 238h19l-31-238h112v-17H378zm-190 0-26-196h171l26 196H188z"/><glyph glyph-name="dollar" unicode="$" horiz-adv-x="560" d="M277-84h-22v71q-63 2-113.5 25T55 76l17 15q36-40 84.5-61.5T255 6v343q-41 13-75.5 28.5T120 415t-38.5 52T68 540q0 39 14 70.5t39 54.5 59 37 75 18v72h22v-71q58 0 108-18.5t83-59.5l-17-15q-28 35-73 54.5T277 702V364q43-14 80-29t64.5-36.5 43.5-52 16-73.5-15.5-77-43-57.5-65-36.5T277-13v-71zm0 90q37 1 70 13t58 33 39.5 52 14.5 70-15.5 66-41 46.5T344 319t-67 24V6zm-22 694q-32-3-61.5-15T141 653t-37-48.5T90 539q0-39 14-66t37-46.5 52.5-32.5 61.5-23v329z"/><glyph glyph-name="percent" unicode="%" horiz-adv-x="820" d="M366 556q0-34-12.5-63t-34-50-50-33-60.5-12-60.5 12T99 443t-33.5 50T53 556q0 33 12.5 62T99 668.5t49.5 34T209 715t60.5-12.5 50-34 34-50.5 12.5-62zm-22 0q0 29-10.5 54.5t-29 44.5-43 30-52.5 11-52.5-11-42.5-30-28.5-44.5T75 556q0-30 10.5-55t28.5-44 42.5-29.5T209 417t52.5 10.5 43 29.5 29 44 10.5 55zm423-406q0-34-12.5-63t-34-50-50-33T610-8 549.5 4 500 37t-33.5 50-12.5 63q0 33 12.5 62t33.5 50.5 49.5 34T610 309t60.5-12.5 50-34 34-50.5 12.5-62zm-22 0q0 29-10.5 54.5t-29 44.5-43 30-52.5 11-52.5-11-42.5-30-28.5-44.5T476 150q0-30 10.5-55T515 51t42.5-29.5T610 11t52.5 10.5 43 29.5 29 44 10.5 55zM195-27l-16 11 440 752 16-11z"/><glyph glyph-name="ampersand" unicode="&amp;" horiz-adv-x="704" d="M617 0 501 124Q456 54 400 18T275-18q-42 0-78.5 13.5t-63.5 39-42.5 62T75 179q0 39 12.5 69.5t35.5 56 55 46.5 70 42q-27 30-45 54t-29 45-15.5 41-4.5 41q0 34 12 62t32.5 48 49 31 61.5 11q31 0 58.5-11t47-30 31-44.5T457 586q0-36-13-63.5T407.5 472t-56-43-70.5-41l215-231 115 212h25L512 144 646 0h-29zM435 582q0 28-10 51.5t-27.5 40-41 25.5-49.5 9q-27 0-51-10t-41.5-27.5-28-42T176 575q0-48 24.5-87t67.5-87q36 19 66.5 38t53 40 35 46 12.5 57zM262 378q-33-16-62.5-35.5T147 299t-36.5-54T97 179q0-41 14.5-74T151 49t58-35.5T280 1q64 0 117.5 38T486 140z"/><glyph glyph-name="quotesingle" unicode="'" horiz-adv-x="260" d="M119 480v228h22V480h-22z"/><glyph glyph-name="parenleft" unicode="(" horiz-adv-x="300" d="M74 288q0 60 9 120t25.5 117T149 634.5t54 97.5l20-10q-30-41-53.5-93.5t-40-110-25-117T96 288t8.5-113.5 25-117 40-110T223-146l-20-10q-30 45-54 97.5T108.5 51 83 168t-9 120z"/><glyph glyph-name="parenright" unicode=")" horiz-adv-x="300" d="M224 288q0-60-9-120T189.5 51 149-58.5 95-156l-20 10q30 41 53.5 93.5t40 110 25 117T202 288t-8.5 113.5-25 117-40 110T75 722l20 10q30-45 54-97.5T189.5 525 215 408t9-120z"/><glyph glyph-name="asterisk" unicode="*" horiz-adv-x="444" d="m394 589 6-17-165-50 102-142-14-10-101 143-101-143-14 10 102 142-165 50 6 17 163-52v171h18V537z"/><glyph glyph-name="plus" unicode="+" d="M345 65h-21v230H100v19h224v230h21V314h221v-19H345V65z"/><glyph glyph-name="comma" unicode="," horiz-adv-x="240" d="M88-138H71l57 228h24z"/><glyph glyph-name="hyphen" unicode="-" horiz-adv-x="300" d="M60 244v20h180v-20H60z"/><glyph glyph-name="period" unicode="." horiz-adv-x="240" d="M120-6q-9 0-16 7t-7 19q0 11 7 18t16 7 16-7 7-18q0-12-7.5-19T120-6z"/><glyph glyph-name="slash" unicode="/" horiz-adv-x="370" d="M42-15 23-8l307 737 19-7z"/><glyph glyph-name="zero" unicode="0" horiz-adv-x="560" d="M280-12q-68 0-111 34.5T102 110 69 228t-9 126 9 126 33 118 67 87.5T280 720t111-34.5 67-87.5 33-118 9-126-9-126-33-118-67-87.5T280-12zm0 712q-45 0-77.5-18.5t-54.5-48-35-67-20-76-9-74.5-2-62q0-27 2-62.5t9-74 20-76 35-67 54.5-48T280 8t77.5 18.5 54.5 48 35 67 20 76 9 74 2 62.5q0 26-2 62t-9 74.5-20 76-35 67-54.5 48T280 700z"/><glyph glyph-name="one" unicode="1" horiz-adv-x="560" d="M290 0v682L156 568l-13 17 147 123h22V0h-22z"/><glyph glyph-name="two" unicode="2" horiz-adv-x="560" d="M63 0v26l247 290q56 65 89 118t33 107q0 37-12 66.5T386.5 658t-51 32-63.5 11q-58 0-102-30.5T108 580l-21 7q19 64 69 98.5T272 720q40 0 73.5-13t57.5-36.5 37.5-55T454 548q0-33-8.5-62t-26-58.5-43-62T318 294L86 21h374V0H63z"/><glyph glyph-name="three" unicode="3" horiz-adv-x="560" d="M465 186q0-39-12-74.5t-36.5-63-63-44T262-12q-68 0-120.5 31T63 101l21 9q22-46 70-73T262 8q44-1 78 13t57 38.5 34.5 57.5 11.5 70q0 46-19.5 79T374 320.5 308 352t-68 10h-22v20h22q32 0 63.5 9.5t57 29.5 41.5 51 16 75q0 35-12 63.5T373 659t-49.5 31-61.5 11q-44 0-84-19t-63-54l-18 12q26 37 68.5 58.5T262 720q38 0 70.5-12t56-34.5 37-54.5 13.5-72q0-30-8.5-58.5T404 437t-46.5-40-67.5-23v-2q45-7 78-25t54.5-43 32-55.5T465 186z"/><glyph glyph-name="four" unicode="4" horiz-adv-x="560" d="M396 184V0h-22v184H43v27l319 497h34V204h118v-20H396zm-22 500h-3L63 204h311v480z"/><glyph glyph-name="five" unicode="5" horiz-adv-x="560" d="M476 215q0-56-18.5-98.5t-49-71-69-43T261-12q-69 0-115.5 26T69 82l18 14q28-41 70.5-64.5T261 8q35 0 69.5 13t62 39 44.5 64.5 17 90.5q0 43-14 80.5t-40 65-64 43-87 15.5q-35 0-68.5-10T118 383l5 325h323v-20H145l-6-275q28 14 60 19.5t59 5.5q51 0 91-17t68.5-46.5T461 304t15-89z"/><glyph glyph-name="six" unicode="6" horiz-adv-x="560" d="M70 201q0 39 13.5 83.5T130 386l187 322h26L130 348l2-1q26 32 67.5 51t88.5 19q43 0 80-16.5t64-45 42.5-68.5 15.5-86-15.5-85T431 48.5 364 4t-85-16-84.5 15.5-66 44-43 67.5T70 201zm22 0q0-42 14-77.5T145 62t59.5-40.5T280 7t75.5 14.5T415 62t39 61.5 14 77.5-13.5 78-38 62.5-58 41.5-73.5 15q-39 0-74-15t-61.5-41.5-42-62.5T92 201z"/><glyph glyph-name="seven" unicode="7" horiz-adv-x="560" d="M459 681 164 0h-24l300 688H76v20h383v-27z"/><glyph glyph-name="eight" unicode="8" horiz-adv-x="560" d="M489 188q0-46-16-83t-43.5-63-66-40T280-12 196.5 2t-66 40T87 105t-16 83q0 31 9 60.5t27.5 55 46.5 45 66 30.5v2q-63 24-92.5 70.5T98 547q0 39 14 70.5t38 54.5 57.5 35.5T280 720t72.5-12.5T410 672t38-54.5 14-70.5q0-49-29.5-96T340 381v-2q39-12 67.5-32t46.5-45 26.5-54 8.5-60zm-48 359q0 34-12.5 62.5t-34.5 49-51 31.5-63 11-63.5-11-51-31.5-34-49T119 547q0-32 12-60.5t33.5-50.5 51-35 64.5-13 64.5 13 51 35 33.5 50.5 12 60.5zm26-359q0 40-14.5 73.5t-40 58-59.5 38-73 13.5-73-13.5-59.5-38-40-58T93 188q0-38 13.5-71t38-57.5 59-38.5T280 7t76.5 14 59 38.5 38 57.5 13.5 71z"/><glyph glyph-name="nine" unicode="9" horiz-adv-x="560" d="M490 509q0-39-14-81.5T430 328L242 0h-26l214 366-2 1q-26-32-67.5-51T272 297q-43 0-80 15.5t-64 44-42.5 67T70 509q0 46 15.5 85t43.5 67 67 43.5 85 15.5 84.5-15.5 66-43 43-66.5 15.5-86zm-22 0q0 42-14 77t-39 60.5-59.5 40T280 701t-75.5-14.5-59.5-40-39-60.5-14-77 13.5-77.5 38-61 58-40T275 316q39 0 74 14.5t61.5 40 42 61T468 509z"/><glyph glyph-name="colon" unicode=":" horiz-adv-x="280" d="M140 409q-9 0-16 7t-7 19q0 11 7 18t16 7 16-7 7-18q0-12-7.5-19t-15.5-7zm0-415q-9 0-16 7t-7 19q0 11 7 18t16 7 16-7 7-18q0-12-7.5-19T140-6z"/><glyph glyph-name="semicolon" unicode=";" horiz-adv-x="280" d="M140 409q-9 0-16 7t-7 19q0 11 7 18t16 7 16-7 7-18q0-12-7.5-19t-15.5-7zM98-138H81l57 228h24z"/><glyph glyph-name="less" unicode="&lt;" d="M100 291v24l466 224v-20L112 303 566 87V67z"/><glyph glyph-name="equal" unicode="=" d="M100 380v19h466v-19H100zm0-171v19h466v-19H100z"/><glyph glyph-name="greater" unicode="&gt;" d="m100 87 454 216-454 216v20l466-224v-24L100 67v20z"/><glyph glyph-name="question" unicode="?" horiz-adv-x="472" d="M241 45q8 0 15.5-7t7.5-19q0-11-7-18t-16-7-16 7-7 18q0 12 7 19t16 7zm9 155h-22v53q0 16 2.5 33t10 34.5 21 35T297 390l34 30q15 14 27.5 27.5t22 29 15 34.5 5.5 45q0 36-12.5 64T354 667t-51.5 28.5T240 705q-69 0-112-40.5T74 561l-21 4q14 78 65 119.5T242 726q37 0 70-11t58-32.5 39-53 14-72.5q0-32-7.5-55.5t-20-42-28.5-34-34-30.5q-26-21-42-38.5t-25-34-12.5-35.5-3.5-43v-44z"/><glyph glyph-name="at" unicode="@" horiz-adv-x="800" d="M760 415q0-54-13-101t-37.5-81-61-53.5T565 160q-38 0-62.5 21T484 249h-2q-8-15-20.5-31T432 189.5t-38.5-21T347 160q-30 0-51.5 11T260 199.5 239.5 240t-6.5 47q0 44 14 91t40 86 63 64 82 25q46 0 72.5-24.5T536 462h4l20 73h21l-68-237q-4-14-7-31t-3-29q0-32 18-45t44-13q46 0 79 20t54 53 31 75 10 87q0 63-24.5 116.5t-68 93T544 686t-128 22q-76 0-139.5-29T167 601 95 488 69 355q0-73 25.5-137.5t72-113T278 28 421 0q86 0 159.5 37.5T703 133l15-13Q664 56 588 18T421-20q-84 0-153 29.5T150 90 74 209 47 355t28.5 146T154 619.5 271 699t145 29q75 0 138-23.5T663 639t71.5-99.5T760 415zm-237 17q0 20-5.5 38.5T501 503t-28 22-41 8q-42 0-75-24t-55.5-60.5-34.5-80-12-82.5q0-45 23.5-75.5T352 180q42 0 74 29.5t53.5 70 32.5 83 11 69.5z"/><glyph glyph-name="A" unicode="A" d="m624 0-84 203H129L42 0H18l307 708h28L648 0h-24zM338 694 137 222h396z"/><glyph glyph-name="B" unicode="B" horiz-adv-x="612" d="M551 189q0-57-21.5-93.5t-55-57.5-74-29.5T323 0H106v708h193q40 0 79.5-8t70.5-27 50-51 19-81q0-38-12-66t-32.5-48-46.5-32.5-53-18.5v-2q27-3 58-14.5t57.5-33.5 44-56 17.5-81zm-55 349q0 43-17 72t-45 46-64.5 24.5T293 688H128V383h170q36 0 71.5 9t63.5 27.5 45.5 48T496 538zm33-352q0 48-19.5 82T460 323t-66 30.5-70 9.5H128V20h185q46 0 86 9.5T467.5 59t45 51.5T529 186z"/><glyph glyph-name="C" unicode="C" horiz-adv-x="724" d="M686 87Q641 33 572.5 6.5T433-20q-80 0-146 28T173 85.5 98.5 204 72 354t26.5 150T173 622.5 287.5 700 433 728q66 0 128.5-22.5T668 637l-14-16q-21 22-47.5 38.5t-56 27.5-59.5 16-58 5q-76 0-138.5-27.5t-107-75.5-69-112.5T94 354t24-138.5T186.5 103t107-75.5T433 0q66 0 130.5 25.5T670 102l16-15z"/><glyph glyph-name="D" unicode="D" horiz-adv-x="770" d="M698 354q0-92-30-158.5t-83-110T460.5 21 307 0H106v708h201q82 0 153.5-20.5t124.5-64T668 513t30-159zM129 688V20h173q78 0 146.5 19.5t118.5 60T646 203t29 151-29 151.5-79 104T448.5 669 302 688H129z"/><glyph glyph-name="E" unicode="E" horiz-adv-x="590" d="M106 0v708h412v-20H127V377h368v-20H127V20h407V0H106z"/><glyph glyph-name="F" unicode="F" horiz-adv-x="560" d="M128 688V377h355v-20H128V0h-22v708h404v-20H128z"/><glyph glyph-name="G" unicode="G" horiz-adv-x="795" d="M699 41Q657 18 593-1T445-20 292 9 174 88.5t-75.5 119T72 356t27 148.5 75.5 118T291 700t150 28q72 0 132-22t106-60l-16-16q-20 19-46.5 33.5t-56 24.5-60.5 15-60 5q-78 0-142-27.5T188.5 605t-70-112T94 356t24-138 69.5-113.5 111-76.5T447 0q72 0 128 15t103 38v278H494v19h205V41z"/><glyph glyph-name="H" unicode="H" horiz-adv-x="732" d="M604 0v356H128V0h-22v708h22V376h476v332h22V0h-22z"/><glyph glyph-name="I" unicode="I" horiz-adv-x="234" d="M106 0v708h22V0h-22z"/><glyph glyph-name="J" unicode="J" horiz-adv-x="480" d="M378 193q0-98-45.5-154.5T197-18q-63 0-107 32.5T29 93l19 9q20-45 59-72.5T197 2q43 0 73 14.5T319 57t28 61.5 9 77.5v512h22V193z"/><glyph glyph-name="K" unicode="K" horiz-adv-x="565" d="m129 383 356 325h32L157 383 535 0h-31L129 381h-1V0h-22v708h22V383h1z"/><glyph glyph-name="L" unicode="L" horiz-adv-x="498" d="M106 0v708h22V20h352V0H106z"/><glyph glyph-name="M" unicode="M" horiz-adv-x="906" d="M778 0v683h-4L461 0h-18L131 683h-3V0h-22v708h39L453 32l308 676h39V0h-22z"/><glyph glyph-name="N" unicode="N" horiz-adv-x="777" d="M639 0 131 680h-3V0h-22v708h31L646 29h3v679h22V0h-32z"/><glyph glyph-name="O" unicode="O" horiz-adv-x="872" d="M800 354q0-82-27.5-150.5t-76-118T581 8 436-20 291 8 175.5 85.5t-76 118T72 354t27.5 150.5 76 118 115 77.5T436 728t145.5-28 115-77.5 76-118T800 354zm-22 0q0 74-25 138.5T682.5 605 574 680.5 436 708t-138-27.5T189.5 605 119 492.5 94 354t24.5-138.5T188 103t108-75.5T436 0t140 27.5T684 103t69.5 112.5T778 354z"/><glyph glyph-name="P" unicode="P" horiz-adv-x="572" d="M517 532q0-45-16.5-79.5T456 395t-65.5-35-79.5-12H128V0h-22v708h192q38 0 77-8.5t70.5-28.5 51.5-54 20-85zm-22 0q0 45-17 75t-44 48-60.5 26-66.5 8H128V367h184q33 0 66 9t59 29 42 51.5 16 75.5z"/><glyph glyph-name="Q" unicode="Q" horiz-adv-x="883" d="M800 361q0-59-19-115.5T728 143t-79.5-78T550 22v-2h288V0H434q-74 0-140 25.5t-115.5 73-78 114T72 361q0 80 27.5 147.5t76 116 115 76T436 728t145.5-28 115-77 76-116T800 361zm-22 0q0 71-25 134t-70.5 110.5-108.5 75T436 708t-138-27-108.5-74T119 496.5 94 361q0-71 25.5-133t71-108.5 108.5-73T437 20q78 0 141 28.5t107.5 76 68.5 109T778 361z"/><glyph glyph-name="R" unicode="R" horiz-adv-x="594" d="M508 0 294 357H128V0h-22v708h196q39 0 79-7t71.5-26.5T504 621t20-88q0-50-19-83t-49-53.5-66.5-29.5-71.5-9L533 0h-25zm-6 533q0 46-18 76.5t-47.5 48-68 24.5-78.5 7H128V376h173q98 0 149.5 41T502 533z"/><glyph glyph-name="S" unicode="S" horiz-adv-x="570" d="M498 170q0-45-17.5-80.5t-46.5-60-68.5-37T283-20q-66 0-120.5 23.5T72 67l17 15q38-41 88.5-61.5T282 0q39 0 74 11.5t62 33 42.5 53T476 170t-17 69-44 48-61.5 33.5T284 345q-44 14-80.5 29.5t-63 38-41 54T85 543q0 44 17.5 78.5t47.5 58 69.5 36T303 728q54 0 102.5-20.5T485 649l-17-15q-28 35-71.5 54.5T302 708q-36 0-70.5-10T169 667.5 124 616t-17-73q0-41 15-69.5t40-48.5 56.5-33 64.5-24q45-15 84-30.5t68.5-37.5 46-53.5T498 170z"/><glyph glyph-name="T" unicode="T" horiz-adv-x="540" d="M281 688V0h-22v688H18v20h504v-20H281z"/><glyph glyph-name="U" unicode="U" horiz-adv-x="732" d="M636 268q0-60-14-112.5T576 64 492.5 2.5 366-20 239.5 2.5 156 64t-46 91.5T96 268v440h22V272q0-42 8.5-89.5t35-88 75-67.5T366 0q79 0 127.5 26T569 92.5t36 88 9 91.5v436h22V268z"/><glyph glyph-name="V" unicode="V" horiz-adv-x="606" d="M318 0h-34L18 708h24L300 20h2l262 688h24z"/><glyph glyph-name="W" unicode="W" horiz-adv-x="956" d="M716 0h-34L477 687h-2L274 0h-34L28 708h23L255 20h3l201 688h34L698 20h3l204 688h23z"/><glyph glyph-name="X" unicode="X" horiz-adv-x="590" d="M531 0 295 354 58 0H32l250 371L56 708h26l213-320 213 320h25L308 371 558 0h-27z"/><glyph glyph-name="Y" unicode="Y" horiz-adv-x="538" d="M280 310V0h-22v310L15 708h26l229-376 228 376h25z"/><glyph glyph-name="Z" unicode="Z" horiz-adv-x="594" d="M54 0v27l466 661H67v20h473v-29L75 20h477V0H54z"/><glyph glyph-name="bracketleft" unicode="[" horiz-adv-x="300" d="M80-156v888h140v-19H102v-850h118v-19H80z"/><glyph glyph-name="backslash" unicode="\" horiz-adv-x="370" d="M42 729 349-8l-19-7L23 722z"/><glyph glyph-name="bracketright" unicode="]" horiz-adv-x="300" d="M80-137h118v850H80v19h140v-888H80v19z"/><glyph glyph-name="asciicircum" unicode="^" d="M321 708h24l224-466h-20L333 696 117 242H97z"/><glyph glyph-name="underscore" unicode="_" horiz-adv-x="500" d="M0-114v20h500v-20H0z"/><glyph glyph-name="grave" unicode="`" horiz-adv-x="240" d="m47 708 103-144h-19L20 708h27z"/><glyph glyph-name="a" unicode="a" horiz-adv-x="512" d="M418 104q0-26 2.5-55.5T426 0h-21q-2 10-3 24.5t-2.5 30-2 30.5-.5 25h-3q-20-63-69-93.5T220-14q-28 0-55.5 8T115 18 79.5 59 66 118q0 49 25.5 79t63.5 46.5 81.5 21.5 79.5 5h80v37q0 77-41 112.5T248 455q-41 0-76.5-15T108 400l-12 17q32 28 72.5 42.5T248 474q79 0 124.5-40.5T418 306V104zm-22 147h-71q-38 0-80-4.5T168 228t-57.5-40T88 118q0-32 12.5-53.5t32-34.5 43-19T220 5q51 0 85 19t54.5 48.5 28.5 65 8 69.5v44z"/><glyph glyph-name="b" unicode="b" horiz-adv-x="626" d="M127 335q30 69 85.5 104T334 474q51 0 93.5-18.5t73-51 47-77.5 16.5-98q0-52-17-96.5t-47.5-77-73-51T334-14q-33 0-64.5 9T211 21.5t-49 43-35 59.5h-3V0h-22v756h22V335h3zm415-106q0 45-14.5 86T486 387t-65.5 49.5T334 455q-46 0-84.5-18T183 388.5 139 317t-16-87 16-87 44-71.5T249.5 23 334 5q48 0 86.5 18T486 71.5t41.5 71.5 14.5 86z"/><glyph glyph-name="c" unicode="c" horiz-adv-x="480" d="M430 398q-26 27-61 42t-73 15q-49 0-88-18.5T141.5 387 99 315t-15-86 15-86 42.5-71.5T208 23t88-18q38 0 74.5 13T434 57l15-14Q419 13 378.5-.5T296-14q-51 0-93.5 18t-74 50-49 77T62 229t17.5 98 49 77.5 74 51T296 474q44 0 83.5-16t67.5-45z"/><glyph glyph-name="d" unicode="d" horiz-adv-x="626" d="M502 756h22V0h-22v124h-3q-30-68-85.5-103T292-14q-50 0-92.5 18.5t-73 51-47.5 77T62 229t17 97 47.5 78 73 51.5T292 474q66 0 121.5-35T499 335h3v421zM84 229q0-45 14.5-86T140 71.5 205.5 23 292 5q46 0 84.5 18T443 71.5t44 71.5 16 87-16 87-44 71.5-66.5 48.5-84.5 18q-48 0-86.5-18.5T140 387t-41.5-72T84 229z"/><glyph glyph-name="e" unicode="e" horiz-adv-x="556" d="M84 235q0-42 12.5-83t38-73.5T199 26t92-20q54 0 96 21.5T460 90l16-14q-34-44-79.5-67T291-14q-51 0-93 18.5T125.5 56t-47 79T62 235q0 52 17 96t46.5 76 69.5 49.5 86 17.5q54 0 94-19t66.5-50 39.5-70.5 13-80.5v-19H84zm389 19q-1 45-15.5 82T418 399.5t-60 41-78 14.5q-52 0-89-21.5t-60.5-53-34.5-66T85 254h388z"/><glyph glyph-name="f" unicode="f" horiz-adv-x="282" d="M282 745q-10 2-20 3.5t-21 1.5q-27 0-46-11t-30.5-28.5T148 671t-5-45V460h125v-19H143V0h-22v441H24v19h96v165q0 42 11 70t28.5 44 38.5 22.5 42 6.5q26 0 46-6z"/><glyph glyph-name="g" unicode="g" horiz-adv-x="626" d="M502 124h-3q-13-34-35-59.5t-49-43T356.5-5 292-14q-50 0-92.5 18.5t-73 51-47.5 77T62 229t17 97 47.5 78 73 51.5T292 474q66 0 121.5-35T499 335h3v125h22V26q0-55-11.5-105t-38-88-70-60.5T297-250q-65 0-116 22.5T94-164l15 15q38-43 86.5-62.5T297-231q60 0 100 22t63 58 32.5 82.5T502 28v96zM84 229q0-45 14.5-86T140 71t65.5-49T292 4q46 0 84.5 18T443 71t44 72 16 87-16 87-44 71.5-66.5 48.5-84.5 18q-48 0-86.5-18.5T140 387t-41.5-72T84 229z"/><glyph glyph-name="h" unicode="h" horiz-adv-x="569" d="M126 339q10 32 28.5 57t42.5 42.5 52 26.5 58 9q48 0 80-17t51-45 27-63 8-71V0h-22v276q0 28-6 60t-22.5 58-44.5 43.5-71 17.5q-38 0-71.5-15.5t-58-44.5-39-70.5T124 230V0h-22v756h22V339h2z"/><glyph glyph-name="i" unicode="i" horiz-adv-x="226" d="M113 633q-9 0-16 7t-7 19q0 11 7 18t16 7 16-7 7-18q0-12-7.5-19t-15.5-7zM102 0v460h22V0h-22z"/><glyph glyph-name="j" unicode="j" horiz-adv-x="226" d="M124-97q0-35-4.5-62t-17-45T68-231.5 12-241q-7 0-15 .5t-14 2.5l4 19q13-3 25-3 32 0 50 11t27 28.5 11 39.5 2 44v559h22V-97zm-11 730q-9 0-16 7t-7 19q0 11 7 18t16 7 16-7 7-18q0-12-7.5-19t-15.5-7z"/><glyph glyph-name="k" unicode="k" horiz-adv-x="445" d="m125 248 238 212h31L151 247 422 0h-33L125 243h-1V0h-22v756h22V248h1z"/><glyph glyph-name="l" unicode="l" horiz-adv-x="226" d="M102 0v756h22V0h-22z"/><glyph glyph-name="m" unicode="m" horiz-adv-x="889" d="M454 333q20 68 68 104.5T631 474q46 0 77.5-17t50-45 26.5-63 8-71V0h-22v276q0 28-6.5 60T742 394t-43 43.5-68 17.5q-36 0-67.5-15.5t-55-44.5-37.5-70.5-14-94.5V0h-22v276q0 28-5.5 60T409 394t-41.5 43.5T300 455q-36 0-67.5-15.5t-55-44.5-37-70.5T127 230V0h-22v344q0 11-.5 27t-1 32.5T102 435t-2 25h22q1-10 1.5-25t1-32.5 1-34 .5-29.5h2q10 32 28 57t40.5 42.5 49 26.5 54.5 9q36 0 62.5-11t44.5-30 29-44.5 16-55.5h2z"/><glyph glyph-name="n" unicode="n" horiz-adv-x="572" d="M128 339q10 32 29 57t43 42.5 52 26.5 58 9q48 0 80-17t51-45 27-63 8-71V0h-22v276q0 28-6 60t-22.5 58-44.5 43.5-71 17.5q-38 0-71.5-15.5t-58-44.5-39-70.5T127 230V0h-22v344q0 11-.5 27t-1 32.5T102 435t-2 25h22q1-10 1.5-25t1-32.5 1-34 .5-29.5h2z"/><glyph glyph-name="o" unicode="o" horiz-adv-x="605" d="M543 231q0-54-17.5-99T476 54.5 399.5 4 302-14 205 4t-76 50.5T79.5 132 62 231t17.5 98.5T129 406t76 50 97 18 97.5-18 76.5-50 49.5-76.5T543 231zm-22 0q0 46-15 87t-43.5 71.5-69 48T302 455t-91-17.5-68.5-48T99 318t-15-87q0-47 15-88t43.5-71.5T211 23t91-18 91.5 18 69 48.5T506 143t15 88z"/><glyph glyph-name="p" unicode="p" horiz-adv-x="626" d="M127 335q30 69 85.5 104T334 474q51 0 93.5-18.5t73-51 47-77.5 16.5-98q0-52-17-96.5t-47.5-77-73-51T334-14q-33 0-64.5 9T211 21.5t-49 43-35 59.5h-3v-364h-22v700h22V335h3zm415-106q0 45-14.5 86T486 387t-65.5 49.5T334 455q-46 0-84.5-18T183 388.5 139 317t-16-87 16-87 44-71.5T249.5 23 334 5q48 0 86.5 18T486 71.5t41.5 71.5 14.5 86z"/><glyph glyph-name="q" unicode="q" horiz-adv-x="626" d="M502 460h22v-700h-22v364h-3q-13-34-35-59.5t-49-43T356.5-5 292-14q-50 0-92.5 18.5t-73 51-47.5 77T62 229q0 53 16.5 98t47 77.5 73 51T292 474q66 0 121.5-35T499 335h3v125zM84 229q0-45 14.5-86T140 71.5 205.5 23 292 5q46 0 84.5 18T443 71.5t44 71.5 16 87-16 87-44 71.5-66.5 48.5-84.5 18q-48 0-86.5-18.5T140 387t-41.5-72T84 229z"/><glyph glyph-name="r" unicode="r" horiz-adv-x="317" d="M128 339q20 72 64 103.5t95 31.5h9l9-1v-19q-4 1-7.5 1H292q-44 0-75-19.5t-51-51-29.5-70T127 238V0h-22v344q0 11-.5 27t-1 32.5T102 435t-2 25h22q1-10 1.5-25t1-32.5 1-34 .5-29.5h2z"/><glyph glyph-name="s" unicode="s" horiz-adv-x="415" d="M361 120q0-31-12-55.5T316.5 23 269-3t-58-9q-51 0-92.5 19.5T50 65l18 12Q118 7 212 7q22 0 44.5 7t41 21 30 35 11.5 48q0 32-14.5 52T288 202t-48.5 19.5T190 235q-25 7-47 15.5t-38.5 22-26 33.5-9.5 50 12 52 32 36.5 45.5 22T210 474q94 0 141-67l-19-11q-23 30-52 44.5T210 455q-19 0-40-5t-38.5-16.5-29-30.5T91 357q0-30 9.5-48t26.5-29 41-18.5 53-14.5q27-7 52.5-16.5t45-23.5 31-35 11.5-52z"/><glyph glyph-name="t" unicode="t" horiz-adv-x="304" d="M280-1q-12-5-28-8t-31-3q-54 0-77.5 30.5T120 95v346H20v19h99v135h23V460h135v-19H142V95q0-47 23-67.5T226 7q28 0 51 9l3-17z"/><glyph glyph-name="u" unicode="u" horiz-adv-x="572" d="M442 121q-11-32-29.5-57.5T370 21 318-5t-58-9q-48 0-80 17t-51 45-27 63-8 71v278h22V184q0-29 6-60.5T144.5 66t44-43.5T260 5q38 0 71.5 15.5t58 44.5 39 70.5T443 230v230h22V116q0-11 .5-27t1-32.5T468 25t2-25h-22q-1 10-1.5 25t-1 32.5-1 34-.5 29.5h-2z"/><glyph glyph-name="v" unicode="v" horiz-adv-x="434" d="M234 0h-29L24 460h24L219 22h2l165 438h24z"/><glyph glyph-name="w" unicode="w" horiz-adv-x="698" d="M529 0h-30L349 436h-2L198 0h-30L34 460h23L183 22h2l148 438h31L513 22h2l126 438h23z"/><glyph glyph-name="x" unicode="x" horiz-adv-x="452" d="M224 228 56 0H28l182 243L51 460h28l146-202 145 202h29L239 243 424 0h-29z"/><glyph glyph-name="y" unicode="y" horiz-adv-x="428" d="M176-152q-16-43-42.5-66.5T65-242q-9 0-21 2t-20 5l6 19q6-2 16.5-4t20.5-2q21 0 36.5 8t26.5 20.5 18.5 28.5 13.5 32l44 120L24 460h24L217 12l163 448h24z"/><glyph glyph-name="z" unicode="z" horiz-adv-x="438" d="M49 0v21l304 420H65v19h310v-22L74 19h313V0H49z"/><glyph glyph-name="braceleft" unicode="{" horiz-adv-x="300" d="M0 297q16 0 30.5 5T55 319.5t16 35 6 57.5v195q0 70 30 97.5t76 27.5h47v-19h-47q-44 0-64-27.5T99 607V411q0-63-19-90t-48-32v-2q29-5 48-32t19-90V-31q0-51 20-78.5t64-27.5h47v-19h-47q-23 0-42.5 6.5t-33.5 21T85-90t-8 59v195q0 35-6 57.5t-16 35T30.5 274 0 279v18z"/><glyph glyph-name="bar" unicode="|" horiz-adv-x="222" d="M122 750V-250h-22V750h22z"/><glyph glyph-name="braceright" unicode="}" horiz-adv-x="300" d="M300 279q-17 0-31-5t-24-17.5-16-35-6-57.5V-31q0-35-8-59t-22-38.5-33.5-21T117-156H70v19h47q44 0 64 27.5T201-31v196q0 63 19 90t48 32v2q-29 5-48 32t-19 90v196q0 51-20 78.5T117 713H70v19h47q46 0 76-27.5t30-97.5V412q0-35 6-57.5t16-35 24-17.5 31-5v-18z"/><glyph glyph-name="asciitilde" unicode="~" d="M93 264q32 55 64.5 74t67.5 19q28 0 50.5-8t49.5-27q44-31 71-40.5t48-9.5q40 0 67.5 25.5T560 357l15-16q-30-47-63.5-68.5T444 251t-55 9-46 26q-22 15-38 24.5t-28.5 15-24 8T227 336q-41 0-68-23t-49-63l-17 14z"/><glyph glyph-name="uni00A0" horiz-adv-x="250"/><glyph glyph-name="exclamdown" unicode="¡" horiz-adv-x="276" d="M138 441q-9 0-16 7t-7 19q0 11 7 18t16 7 16-7 7-18q0-12-7.5-19t-15.5-7zm-11-663v513h22v-513h-22z"/><glyph glyph-name="cent" unicode="¢" horiz-adv-x="560" d="M323 6q37 1 72 14t61 38l15-14q-29-29-68.5-42.5T323-13v-59h-22v59q-47 3-87 22t-69 51-45 75-16 94 16 94 45 75.5 68.5 52T301 473v67h22v-67q42-1 80.5-17t65.5-44l-17-15q-26 26-59.5 41T323 454V6zm-22 448q-45-3-81-22t-61.5-50-39-70.5T106 229t13.5-82 39-69.5T220 28t81-22v448z"/><glyph glyph-name="sterling" unicode="£" horiz-adv-x="560" d="M377 379v-19H207V20h256V0H76v20h109v340H87v19h98v136q0 98 45.5 154.5T366 726q36 0 66-11.5t53-31.5l-14-16q-21 18-47.5 28.5T366 706q-43 0-73-14.5T244 651t-28-61.5-9-77.5V379h170z"/><glyph glyph-name="currency" unicode="¤" horiz-adv-x="560" d="M434 118q-29-26-68-40.5T281 63q-47 0-85.5 14.5T128 119L38 30 24 45l89 89q-26 29-40.5 69T58 291q0 45 13.5 83.5T110 442l-86 85 15 15 85-85q29 29 69 44.5t88 15.5 87.5-15.5T437 458l84 84 15-15-84-84q26-29 39.5-67.5T505 291q0-48-15-88.5T448 132l88-87-14-15zm51 173q0 43-14 81t-40.5 66-64.5 44.5-85 16.5-85-16.5-64-44.5-40-66-14-81q0-44 14-82t40-67 64-45.5T281 80t85 16.5 64.5 45.5 40.5 67 14 82z"/><glyph glyph-name="yen" unicode="¥" horiz-adv-x="560" d="M79 354v19h182L26 708h26l229-331 228 331h25L301 373h180v-19H291V223h190v-19H291V0h-22v204H79v19h190v131H79z"/><glyph glyph-name="brokenbar" unicode="¦" horiz-adv-x="222" d="M103 344v331h17V344h-17zm0-519v331h17v-331h-17z"/><glyph glyph-name="section" unicode="§" horiz-adv-x="560" d="M317 147q51-21 80-51.5T426 15q0-36-14-64t-37.5-46.5-55-28.5-67.5-10q-52 0-94 18T86-66l17 17q56-65 151-65 30 0 57.5 8t48 24T392-42.5 404 13q0 27-11 47.5T363.5 96t-43 27-51.5 23l-37 15q-33 13-58.5 26.5t-42 30-25 38.5-8.5 53 12 55 31 41 42.5 27.5T229 447q-25 11-44 22.5T152.5 496 132 531.5t-7 49.5q0 35 13.5 62.5t37 46T230 718t67 10q47 0 85.5-15t62.5-48l-17-15q-19 29-55 44t-79 15q-27 0-53.5-8T193 676.5t-34-41-13-57.5q0-30 11-50.5t29-34.5 41.5-24.5T276 448l32-13q35-14 62-28.5t45.5-32 28-38.5 9.5-49q0-32-11.5-56.5t-30.5-42-43.5-27.5-50.5-14zm-25 12q26 2 51 10.5t44.5 24 31.5 38 12 53.5q0 27-11 47.5T390.5 369 347 396.5 295 419l-41 16q-23-3-47-12t-43.5-24.5T132 360t-12-54q0-29 11-49.5t29-35.5 41-25.5 47-19.5z"/><glyph glyph-name="dieresis" unicode="¨" horiz-adv-x="240" d="M43 633q-9 0-16 7t-7 19q0 11 7 18t16 7 16-7 7-18q0-12-7.5-19T43 633zm154 0q-9 0-16 7t-7 19q0 11 7 18t16 7 16-7 7-18q0-12-7.5-19t-15.5-7z"/><glyph glyph-name="copyright" unicode="©" horiz-adv-x="800" d="M20 353q0 79 30 147.5T131.5 620t121 80.5T401 730q78 0 147-29.5T668.5 620 750 500.5 780 353q0-78-30-146.5T668.5 87 548 7 401-22q-79 0-148.5 29t-121 80T50 206.5 20 353zm22 0q0-74 28.5-138t77-112 114-75.5T401 0q73 0 138 27.5T653 103t77 112 28 138-28 138.5T653 604t-114 76-138 28q-74 0-139.5-28t-114-76-77-112.5T42 353zm496 152q-23 25-55 39t-66 14q-44 0-80-16.5t-61.5-45-39-66T223 351t13.5-79 39-65 61.5-44.5 80-16.5q35 0 68 12.5t57 35.5l15-14q-28-28-65-41t-75-13q-47 0-86.5 16.5T262 189t-45 71.5-16 90.5 16 90.5 45 71.5 68.5 47 86.5 17q40 0 76-15.5t62-41.5z"/><glyph glyph-name="ordfeminine" unicode="ª" horiz-adv-x="350" d="M266 615q0 44-23 65.5T177 702q-30 0-56-10.5T77 663l-11 17q17 17 46 28.5t65 11.5q49 0 79-25.5t30-76.5V494q0-16 1.5-33.5T291 431h-20q-2 11-3.5 25t-1.5 39h-1q-18-37-51-54t-67-17q-16 0-33.5 4.5T82 443t-23.5 26.5T49 509q0 33 18.5 51.5t49 28.5 69.5 12.5 80 2.5v11zm-15-29q-37 0-70-2.5T123 573t-39.5-23.5T69 509q0-19 7.5-31.5t19.5-20 27-11 30-3.5q27 0 48 9.5t35.5 25.5 22 37 7.5 44v27h-15z"/><glyph glyph-name="guillemotleft" unicode="«" horiz-adv-x="481" d="M371 40 248 237l122 196 16-11-113-185L387 52zm-166 0L82 237l122 196 16-11-113-185L221 52z"/><glyph glyph-name="logicalnot" unicode="¬" d="M551 134v246H94v19h479V134h-22z"/><glyph glyph-name="uni00AD" unicode="­" horiz-adv-x="300" d="M60 244v20h180v-20H60z"/><glyph glyph-name="registered" unicode="®" horiz-adv-x="600" d="m374 371-74 110h-55V371h-21v251h84q38 0 60-17.5t22-52.5q0-33-21-49.5T323 484l77-113h-26zm-5 182q0 30-19 40t-42 10h-63V498h48q35 0 55.5 11.5T369 553zM72 494q0 47 18 88.5t49 72 73 48 89 17.5 88.5-17.5 72-48 48.5-72 18-88.5-18-88-48.5-71.5-72-48T301 269t-89 17.5-73 48T90 406t-18 88zm21 0q0-42 16.5-79.5t45-65.5 66-44.5T301 288q42 0 79.5 16.5T446 349t44.5 65.5T507 494t-16.5 79.5T446 639t-65.5 44.5T301 700q-43 0-80.5-16.5t-66-44.5-45-65.5T93 494z"/><glyph glyph-name="macron" unicode="¯" horiz-adv-x="240" d="M4 621v20h232v-20H4z"/><glyph glyph-name="degree" unicode="°" horiz-adv-x="400" d="M345 571q0-30-11.5-56.5t-31-46-46-31T200 426t-56.5 11.5-46 31-31 46T55 571t11.5 56.5 31 46 46 31T200 716t56.5-11.5 46-31 31-46T345 571zm-20 0q0 26-10 48.5T288 659t-39.5 27-48.5 10-48.5-10-39.5-27-27-39.5T75 571t10-48.5 27-39.5 39.5-27 48.5-10 48.5 10 39.5 27 27 39.5 10 48.5z"/><glyph glyph-name="plusminus" unicode="±" d="M342 342V150h-22v192H94v20h225v196h22V362h232v-20H342zM98 48v20h471V48H98z"/><glyph glyph-name="twosuperior" unicode="²" horiz-adv-x="350" d="M298 306v-18H49v20l154 169q23 25 37 44.5t22 35 11 28 3 24.5q0 45-26.5 68.5T181 701q-35 0-61.5-17.5T82 626l-19 6q12 47 45 67t73 20q58 0 87-31.5t29-73.5q0-20-3.5-35.5t-13-32.5-26-37-42.5-48L71 306h227z"/><glyph glyph-name="threesuperior" unicode="³" horiz-adv-x="350" d="M284 399q0-60-36-90.5T160 278q-45 0-75.5 19.5T39 348l18 7q16-32 45.5-45.5T160 296q51 0 78 28t27 76q0 25-10.5 44t-28 31.5-39 19T144 501h-17v18h16q54 0 80.5 29t26.5 66q0 45-27 67t-63 22q-27 0-50-12t-35-31l-15 11q17 23 41.5 36t58.5 13q54 0 81.5-29t27.5-77q0-45-25-71.5T177 511v-2q51-5 79-34.5t28-75.5z"/><glyph glyph-name="acute" unicode="´" horiz-adv-x="240" d="M109 564H90l103 144h27z"/><glyph glyph-name="mu" unicode="µ" horiz-adv-x="556" d="M116 460V184q0-29 6-60.5T144.5 66t44-43.5T260 5q38 0 71.5 15.5t58 44.5 39 70.5T443 230v230h22V116q0-11 .5-27t1-32.5 1-31.5.5-25h-24v121h-2q-11-32-29.5-57.5T370 21 318-5t-58-9q-57 0-92 24t-52 62v-300H94v688h22z"/><glyph glyph-name="paragraph" unicode="¶" horiz-adv-x="600" d="M467-126v817H312v-817h-22v467q-50 0-89.5 14t-67 38.5-42.5 57T76 519q0 94 58 141.5T298 708h191v-834h-22z"/><glyph glyph-name="periodcentered" unicode="·" horiz-adv-x="240" d="M120 229q-9 0-16 7t-7 19q0 11 7 18t16 7 16-7 7-18q0-12-7.5-19t-15.5-7z"/><glyph glyph-name="cedilla" unicode="¸" horiz-adv-x="240" d="M219-146q0-24-11.5-39.5T179-210t-36.5-12.5T107-226q-19 0-43.5 5T17-206l5 17q19-10 43.5-14t42.5-4q15 0 30.5 2.5t29 9 22 18.5 8.5 31q0 16-7 26t-17.5 15.5-23 7.5-24.5 2q-14 0-35.5-4T57-110l-10 9L116 0h21L78-86q14 5 27 6.5t27 1.5q15 0 30.5-3.5t28-11 20.5-21 8-32.5z"/><glyph glyph-name="onesuperior" unicode="¹" horiz-adv-x="350" d="M169 288v398l-96-64-12 16 109 70h21V288h-22z"/><glyph glyph-name="ordmasculine" unicode="º" horiz-adv-x="350" d="M317 573q0-33-10.5-60t-29-47-45-31-57.5-11q-32 0-58 11t-44.5 31-29 47T33 573t10.5 60 29 46.5T117 710t58 11q31 0 57.5-11t45-30.5 29-46.5 10.5-60zm-264 0q0-27 8.5-51t24-42 38-28.5T175 441t51.5 10.5T265 480t24 42 8 51-8 50.5-24 41.5-38.5 28-51.5 10-51.5-10-38-28-24-41.5T53 573z"/><glyph glyph-name="guillemotright" unicode="»" horiz-adv-x="481" d="m277 41-16 11 113 185-114 185 16 12 123-197zm-166 0L95 52l113 185L94 422l16 12 123-197z"/><glyph glyph-name="onequarter" unicode="¼" horiz-adv-x="800" d="M455 107v22l185 296h31V125h67v-18h-67V0h-20v107H455zm196 18v277h-3L475 125h176zM172-27l-16 11 440 752 16-11zm-3 315v398l-96-64-12 16 109 70h21V288h-22z"/><glyph glyph-name="onehalf" unicode="½" horiz-adv-x="800" d="m172-27-16 11 440 752 16-11zm555 45V0H478v20l154 169q23 25 37 44.5t22 35 11 28 3 24.5q0 45-26.5 68.5T610 413q-35 0-61.5-17.5T511 338l-19 6q12 47 45 67t73 20q58 0 87-31.5t29-73.5q0-20-3.5-35.5t-13-32.5-26-37-42.5-48L500 18h227zM169 288v398l-96-64-12 16 109 70h21V288h-22z"/><glyph glyph-name="threequarters" unicode="¾" horiz-adv-x="800" d="M455 107v22l185 296h31V125h67v-18h-67V0h-20v107H455zm196 18v277h-3L475 125h176zM172-27l-16 11 440 752 16-11zm112 426q0-60-36-90.5T160 278q-45 0-75.5 19.5T39 348l18 7q16-32 45.5-45.5T160 296q51 0 78 28t27 76q0 25-10.5 44t-28 31.5-39 19T144 501h-17v18h16q54 0 80.5 29t26.5 66q0 45-27 67t-63 22q-27 0-50-12t-35-31l-15 11q17 23 41.5 36t58.5 13q54 0 81.5-29t27.5-77q0-45-25-71.5T177 511v-2q51-5 79-34.5t28-75.5z"/><glyph glyph-name="questiondown" unicode="¿" horiz-adv-x="472" d="M230 441q-8 0-15.5 7t-7.5 19q0 11 7 18t16 7 16-7 7-18q0-12-7-19t-16-7zm-9-155h22v-53q0-33-13-68t-56-69l-34-30q-15-14-27.5-27.5t-22-29-15-35T70-70q0-36 12.5-64t34.5-47 51.5-28.5T231-219q69 0 112 40.5T397-75l21-4q-14-78-65-119.5T229-240q-38 0-70.5 11T101-196.5t-39 53T48-71q0 31 7.5 55t20 42.5 28.5 34T138 91q26 21 42 38.5t25 34 12.5 35.5 3.5 43v44z"/><glyph glyph-name="Agrave" unicode="À" d="m624 0-84 203H129L42 0H18l307 708h28L648 0h-24zM338 694 137 222h396zm-90 214 103-144h-19L221 908h27z"/><glyph glyph-name="Aacute" unicode="Á" d="m624 0-84 203H129L42 0H18l307 708h28L648 0h-24zM338 694 137 222h396zm6 70h-19l103 144h27z"/><glyph glyph-name="Acircumflex" unicode="Â" d="m624 0-84 203H129L42 0H18l307 708h28L648 0h-24zM338 694 137 222h396zm14 214 103-144h-23l-94 132-94-132h-23l103 144h28z"/><glyph glyph-name="Atilde" unicode="Ã" d="m624 0-84 203H129L42 0H18l307 708h28L648 0h-24zM338 694 137 222h396zm4 144q13-8 22-13t15.5-7.5 11-3 10.5-.5q33 0 40 48h16q-4-36-20-51.5T401 795q-16 0-28.5 5T337 819q-26 16-37 20t-22 4q-32 0-40-51h-16q4 36 20 53t36 17q16 0 29-5t35-19z"/><glyph glyph-name="Adieresis" unicode="Ä" d="m624 0-84 203H129L42 0H18l307 708h28L648 0h-24zM338 694 137 222h396zm-77 139q-9 0-16 7t-7 19q0 11 7 18t16 7 16-7 7-18q0-12-7.5-19t-15.5-7zm154 0q-9 0-16 7t-7 19q0 11 7 18t16 7 16-7 7-18q0-12-7.5-19t-15.5-7z"/><glyph glyph-name="Aring" unicode="Å" d="m624 0-84 203H129L42 0H18l307 708h28L648 0h-24zM338 694 137 222h396zm96 156q0-20-7.5-37.5t-21-30.5-31-20-36.5-7q-20 0-37 7t-30.5 20-21 30.5T242 850t7.5 37.5 21 30 30.5 20 37 7.5q19 0 36.5-7.5t31-20 21-30T434 850zm-19 0q0 32-22.5 55T338 928t-54.5-23-22.5-55 22.5-55 54.5-23 54.5 23 22.5 55z"/><glyph glyph-name="AE" unicode="Æ" horiz-adv-x="968" d="M491 0v206H167L32 0H6l460 708h429v-20H513V377h358v-20H513V20h399V0H491zm0 688h-13L180 226h311v462z"/><glyph glyph-name="Ccedilla" unicode="Ç" horiz-adv-x="724" d="M535-146q0-24-11.5-39.5T495-210t-36.5-12.5T423-226q-19 0-43.5 5T333-206l5 17q19-10 43.5-14t42.5-4q15 0 30.5 2.5t29 9 22 18.5 8.5 31q0 16-7 26t-17.5 15.5-23 7.5-24.5 2q-14 0-35.5-4T373-110l-10 9 55 82q-77 3-140.5 31.5t-109 78-71 116.5T72 354q0 81 26.5 150T173 622.5 287.5 700 433 728q66 0 128.5-22.5T668 637l-14-16q-21 22-47.5 38.5t-56 27.5-59.5 16-58 5q-76 0-138.5-27.5t-107-75.5-69-112.5T94 354t24-138.5T186.5 103t107-75.5T433 0q66 0 130.5 25.5T670 102l16-15q-22-27-50.5-46.5T575 7.5t-67-20-69-7.5l-45-66q14 5 27 6.5t27 1.5q15 0 30.5-3.5t28-11 20.5-21 8-32.5z"/><glyph glyph-name="Egrave" unicode="È" horiz-adv-x="590" d="M106 0v708h412v-20H127V377h368v-20H127V20h407V0H106zm127 908 103-144h-19L206 908h27z"/><glyph glyph-name="Eacute" unicode="É" horiz-adv-x="590" d="M106 0v708h412v-20H127V377h368v-20H127V20h407V0H106zm200 764h-19l103 144h27z"/><glyph glyph-name="Ecircumflex" unicode="Ê" horiz-adv-x="590" d="M106 0v708h412v-20H127V377h368v-20H127V20h407V0H106zm223 908 103-144h-23l-94 132-94-132h-23l103 144h28z"/><glyph glyph-name="Edieresis" unicode="Ë" horiz-adv-x="590" d="M106 0v708h412v-20H127V377h368v-20H127V20h407V0H106zm132 833q-9 0-16 7t-7 19q0 11 7 18t16 7 16-7 7-18q0-12-7.5-19t-15.5-7zm154 0q-9 0-16 7t-7 19q0 11 7 18t16 7 16-7 7-18q0-12-7.5-19t-15.5-7z"/><glyph glyph-name="Igrave" unicode="Ì" horiz-adv-x="234" d="M106 0v708h22V0h-22zM26 908l103-144h-19L-1 908h27z"/><glyph glyph-name="Iacute" unicode="Í" horiz-adv-x="234" d="M106 0v708h22V0h-22zm17 764h-19l103 144h27z"/><glyph glyph-name="Icircumflex" unicode="Î" horiz-adv-x="234" d="M106 0v708h22V0h-22zm24 908 103-144h-23l-94 132-94-132H-1l103 144h28z"/><glyph glyph-name="Idieresis" unicode="Ï" horiz-adv-x="234" d="M106 0v708h22V0h-22zM40 833q-9 0-16 7t-7 19q0 11 7 18t16 7 16-7 7-18q0-12-7.5-19T40 833zm154 0q-9 0-16 7t-7 19q0 11 7 18t16 7 16-7 7-18q0-12-7.5-19t-15.5-7z"/><glyph glyph-name="Eth" unicode="Ð" horiz-adv-x="770" d="M26 358v20h80v330h201q82 0 153.5-20.5t124.5-64T668 513t30-159-30-158.5-83-110T460.5 21 307 0H106v358H26zm371 20v-20H129V20h173q78 0 146.5 19.5t118.5 60T646 203t29 151-29 151.5-79 104T448.5 669 302 688H129V378h268z"/><glyph glyph-name="Ntilde" unicode="Ñ" horiz-adv-x="777" d="M639 0 131 680h-3V0h-22v708h31L646 29h3v679h22V0h-32zM395 838q13-8 22-13t15.5-7.5 11-3 10.5-.5q33 0 40 48h16q-4-36-20-51.5T454 795q-16 0-28.5 5T390 819q-26 16-37 20t-22 4q-32 0-40-51h-16q4 36 20 53t36 17q16 0 29-5t35-19z"/><glyph glyph-name="Ograve" unicode="Ò" horiz-adv-x="872" d="M800 354q0-82-27.5-150.5t-76-118T581 8 436-20 291 8 175.5 85.5t-76 118T72 354t27.5 150.5 76 118 115 77.5T436 728t145.5-28 115-77.5 76-118T800 354zm-22 0q0 74-25 138.5T682.5 605 574 680.5 436 708t-138-27.5T189.5 605 119 492.5 94 354t24.5-138.5T188 103t108-75.5T436 0t140 27.5T684 103t69.5 112.5T778 354zM369 908l103-144h-19L342 908h27z"/><glyph glyph-name="Oacute" unicode="Ó" horiz-adv-x="872" d="M800 354q0-82-27.5-150.5t-76-118T581 8 436-20 291 8 175.5 85.5t-76 118T72 354t27.5 150.5 76 118 115 77.5T436 728t145.5-28 115-77.5 76-118T800 354zm-22 0q0 74-25 138.5T682.5 605 574 680.5 436 708t-138-27.5T189.5 605 119 492.5 94 354t24.5-138.5T188 103t108-75.5T436 0t140 27.5T684 103t69.5 112.5T778 354zM429 764h-19l103 144h27z"/><glyph glyph-name="Ocircumflex" unicode="Ô" horiz-adv-x="872" d="M800 354q0-82-27.5-150.5t-76-118T581 8 436-20 291 8 175.5 85.5t-76 118T72 354t27.5 150.5 76 118 115 77.5T436 728t145.5-28 115-77.5 76-118T800 354zm-22 0q0 74-25 138.5T682.5 605 574 680.5 436 708t-138-27.5T189.5 605 119 492.5 94 354t24.5-138.5T188 103t108-75.5T436 0t140 27.5T684 103t69.5 112.5T778 354zM452 908l103-144h-23l-94 132-94-132h-23l103 144h28z"/><glyph glyph-name="Otilde" unicode="Õ" horiz-adv-x="872" d="M800 354q0-82-27.5-150.5t-76-118T581 8 436-20 291 8 175.5 85.5t-76 118T72 354t27.5 150.5 76 118 115 77.5T436 728t145.5-28 115-77.5 76-118T800 354zm-22 0q0 74-25 138.5T682.5 605 574 680.5 436 708t-138-27.5T189.5 605 119 492.5 94 354t24.5-138.5T188 103t108-75.5T436 0t140 27.5T684 103t69.5 112.5T778 354zM441 838q13-8 22-13t15.5-7.5 11-3 10.5-.5q33 0 40 48h16q-4-36-20-51.5T500 795q-16 0-28.5 5T436 819q-26 16-37 20t-22 4q-32 0-40-51h-16q4 36 20 53t36 17q16 0 29-5t35-19z"/><glyph glyph-name="Odieresis" unicode="Ö" horiz-adv-x="872" d="M800 354q0-82-27.5-150.5t-76-118T581 8 436-20 291 8 175.5 85.5t-76 118T72 354t27.5 150.5 76 118 115 77.5T436 728t145.5-28 115-77.5 76-118T800 354zm-22 0q0 74-25 138.5T682.5 605 574 680.5 436 708t-138-27.5T189.5 605 119 492.5 94 354t24.5-138.5T188 103t108-75.5T436 0t140 27.5T684 103t69.5 112.5T778 354zM361 833q-9 0-16 7t-7 19q0 11 7 18t16 7 16-7 7-18q0-12-7.5-19t-15.5-7zm154 0q-9 0-16 7t-7 19q0 11 7 18t16 7 16-7 7-18q0-12-7.5-19t-15.5-7z"/><glyph glyph-name="multiply" unicode="×" d="m527 128-14-13-179 179-179-179-14 13 180 180-180 180 13 13 180-180 180 180 13-13-180-180z"/><glyph glyph-name="Oslash" unicode="Ø" horiz-adv-x="872" d="M640 632q-42 35-97 55.5T423 708q-75 0-138-27.5T176.5 605 106 492.5 81 354q0-75 26-141t74-115zm30 4q55-50 86-121.5T787 354q0-82-27.5-150.5t-76-118T568 8 423-20q-71 0-132.5 23T181 68l-68-79L99 3l68 78q-51 49-79.5 118.5T59 354q0 82 27.5 150.5t76 118 115 77.5T423 728q67 0 125.5-20.5T655 649l67 78 15-13zM195 84q44-39 101-61.5T423 0q77 0 140 27.5T671 103t69.5 112.5T765 354q0 79-28.5 147T655 619z"/><glyph glyph-name="Ugrave" unicode="Ù" horiz-adv-x="732" d="M636 268q0-60-14-112.5T576 64 492.5 2.5 366-20 239.5 2.5 156 64t-46 91.5T96 268v440h22V272q0-42 8.5-89.5t35-88 75-67.5T366 0q79 0 127.5 26T569 92.5t36 88 9 91.5v436h22V268zM298 908l103-144h-19L271 908h27z"/><glyph glyph-name="Uacute" unicode="Ú" horiz-adv-x="732" d="M636 268q0-60-14-112.5T576 64 492.5 2.5 366-20 239.5 2.5 156 64t-46 91.5T96 268v440h22V272q0-42 8.5-89.5t35-88 75-67.5T366 0q79 0 127.5 26T569 92.5t36 88 9 91.5v436h22V268zM342 764h-19l103 144h27z"/><glyph glyph-name="Ucircumflex" unicode="Û" horiz-adv-x="732" d="M636 268q0-60-14-112.5T576 64 492.5 2.5 366-20 239.5 2.5 156 64t-46 91.5T96 268v440h22V272q0-42 8.5-89.5t35-88 75-67.5T366 0q79 0 127.5 26T569 92.5t36 88 9 91.5v436h22V268zM380 908l103-144h-23l-94 132-94-132h-23l103 144h28z"/><glyph glyph-name="Udieresis" unicode="Ü" horiz-adv-x="732" d="M636 268q0-60-14-112.5T576 64 492.5 2.5 366-20 239.5 2.5 156 64t-46 91.5T96 268v440h22V272q0-42 8.5-89.5t35-88 75-67.5T366 0q79 0 127.5 26T569 92.5t36 88 9 91.5v436h22V268zM289 833q-9 0-16 7t-7 19q0 11 7 18t16 7 16-7 7-18q0-12-7.5-19t-15.5-7zm154 0q-9 0-16 7t-7 19q0 11 7 18t16 7 16-7 7-18q0-12-7.5-19t-15.5-7z"/><glyph glyph-name="Yacute" unicode="Ý" horiz-adv-x="538" d="M280 310V0h-22v310L15 708h26l229-376 228 376h25zm-8 454h-19l103 144h27z"/><glyph glyph-name="Thorn" unicode="Þ" horiz-adv-x="572" d="M517 374q0-45-16.5-79.5T456 237t-65.5-35-79.5-12H128V0h-22v708h22V550h170q38 0 77-8.5t70.5-28.5 51.5-54 20-85zm-22 0q0 45-17 75t-44 48-60.5 26-66.5 8H128V209h184q33 0 66 9t59 29 42 51.5 16 75.5z"/><glyph glyph-name="germandbls" unicode="ß" horiz-adv-x="589" d="M527 208q0-49-15.5-89T467 50.5 397 6t-92-16q-11 0-23.5.5T257-7v21q15-2 26.5-3t20.5-1q46 0 83 14t63.5 40.5 40.5 63 14 81.5q0 54-16.5 93t-45 64.5T377 404t-81 12h-16v21h16q34 0 64.5 10.5T413 478t35 50 13 68q0 36-12 64t-33.5 47.5-51 30T301 748q-50 0-84-18t-54.5-48-29.5-68.5-9-78.5V0h-22v538q0 49 12.5 91.5t37.5 73 62 48 86 17.5q40 0 73.5-12t58-34.5 38-54.5 13.5-72q0-36-10.5-64.5t-29-49T400 448t-53-19v-2q36-5 69-20t57.5-41 39-65 14.5-93z"/><glyph glyph-name="agrave" unicode="à" horiz-adv-x="512" d="M418 104q0-26 2.5-55.5T426 0h-21q-2 10-3 24.5t-2.5 30-2 30.5-.5 25h-3q-20-63-69-93.5T220-14q-28 0-55.5 8T115 18 79.5 59 66 118q0 49 25.5 79t63.5 46.5 81.5 21.5 79.5 5h80v37q0 77-41 112.5T248 455q-41 0-76.5-15T108 400l-12 17q32 28 72.5 42.5T248 474q79 0 124.5-40.5T418 306V104zm-22 147h-71q-38 0-80-4.5T168 228t-57.5-40T88 118q0-32 12.5-53.5t32-34.5 43-19T220 5q51 0 85 19t54.5 48.5 28.5 65 8 69.5v44zM191 708l103-144h-19L164 708h27z"/><glyph glyph-name="aacute" unicode="á" horiz-adv-x="512" d="M418 104q0-26 2.5-55.5T426 0h-21q-2 10-3 24.5t-2.5 30-2 30.5-.5 25h-3q-20-63-69-93.5T220-14q-28 0-55.5 8T115 18 79.5 59 66 118q0 49 25.5 79t63.5 46.5 81.5 21.5 79.5 5h80v37q0 77-41 112.5T248 455q-41 0-76.5-15T108 400l-12 17q32 28 72.5 42.5T248 474q79 0 124.5-40.5T418 306V104zm-22 147h-71q-38 0-80-4.5T168 228t-57.5-40T88 118q0-32 12.5-53.5t32-34.5 43-19T220 5q51 0 85 19t54.5 48.5 28.5 65 8 69.5v44zM252 564h-19l103 144h27z"/><glyph glyph-name="acircumflex" unicode="â" horiz-adv-x="512" d="M418 104q0-26 2.5-55.5T426 0h-21q-2 10-3 24.5t-2.5 30-2 30.5-.5 25h-3q-20-63-69-93.5T220-14q-28 0-55.5 8T115 18 79.5 59 66 118q0 49 25.5 79t63.5 46.5 81.5 21.5 79.5 5h80v37q0 77-41 112.5T248 455q-41 0-76.5-15T108 400l-12 17q32 28 72.5 42.5T248 474q79 0 124.5-40.5T418 306V104zm-22 147h-71q-38 0-80-4.5T168 228t-57.5-40T88 118q0-32 12.5-53.5t32-34.5 43-19T220 5q51 0 85 19t54.5 48.5 28.5 65 8 69.5v44zM262 708l103-144h-23l-94 132-94-132h-23l103 144h28z"/><glyph glyph-name="atilde" unicode="ã" horiz-adv-x="512" d="M418 104q0-26 2.5-55.5T426 0h-21q-2 10-3 24.5t-2.5 30-2 30.5-.5 25h-3q-20-63-69-93.5T220-14q-28 0-55.5 8T115 18 79.5 59 66 118q0 49 25.5 79t63.5 46.5 81.5 21.5 79.5 5h80v37q0 77-41 112.5T248 455q-41 0-76.5-15T108 400l-12 17q32 28 72.5 42.5T248 474q79 0 124.5-40.5T418 306V104zm-22 147h-71q-38 0-80-4.5T168 228t-57.5-40T88 118q0-32 12.5-53.5t32-34.5 43-19T220 5q51 0 85 19t54.5 48.5 28.5 65 8 69.5v44zM253 638q13-8 22-13t15.5-7.5 11-3 10.5-.5q33 0 40 48h16q-4-36-20-51.5T312 595q-16 0-28.5 5T248 619q-26 16-37 20t-22 4q-32 0-40-51h-16q4 36 20 53t36 17q16 0 29-5t35-19z"/><glyph glyph-name="adieresis" unicode="ä" horiz-adv-x="512" d="M418 104q0-26 2.5-55.5T426 0h-21q-2 10-3 24.5t-2.5 30-2 30.5-.5 25h-3q-20-63-69-93.5T220-14q-28 0-55.5 8T115 18 79.5 59 66 118q0 49 25.5 79t63.5 46.5 81.5 21.5 79.5 5h80v37q0 77-41 112.5T248 455q-41 0-76.5-15T108 400l-12 17q32 28 72.5 42.5T248 474q79 0 124.5-40.5T418 306V104zm-22 147h-71q-38 0-80-4.5T168 228t-57.5-40T88 118q0-32 12.5-53.5t32-34.5 43-19T220 5q51 0 85 19t54.5 48.5 28.5 65 8 69.5v44zM174 633q-9 0-16 7t-7 19q0 11 7 18t16 7 16-7 7-18q0-12-7.5-19t-15.5-7zm154 0q-9 0-16 7t-7 19q0 11 7 18t16 7 16-7 7-18q0-12-7.5-19t-15.5-7z"/><glyph glyph-name="aring" unicode="å" horiz-adv-x="512" d="M418 104q0-26 2.5-55.5T426 0h-21q-2 10-3 24.5t-2.5 30-2 30.5-.5 25h-3q-20-63-69-93.5T220-14q-28 0-55.5 8T115 18 79.5 59 66 118q0 49 25.5 79t63.5 46.5 81.5 21.5 79.5 5h80v37q0 77-41 112.5T248 455q-41 0-76.5-15T108 400l-12 17q32 28 72.5 42.5T248 474q79 0 124.5-40.5T418 306V104zm-22 147h-71q-38 0-80-4.5T168 228t-57.5-40T88 118q0-32 12.5-53.5t32-34.5 43-19T220 5q51 0 85 19t54.5 48.5 28.5 65 8 69.5v44zm-49 399q0-20-7.5-37.5t-21-30.5-31-20-36.5-7q-20 0-37 7t-30.5 20-21 30.5T155 650t7.5 37.5 21 30 30.5 20 37 7.5q19 0 36.5-7.5t31-20 21-30T347 650zm-19 0q0 32-22.5 55T251 728t-54.5-23-22.5-55 22.5-55 54.5-23 54.5 23 22.5 55z"/><glyph glyph-name="ae" unicode="æ" horiz-adv-x="879" d="M796 255q-2 45-15.5 81.5t-37 63-57 41T613 455q-50 0-84.5-22.5t-57-54T439 313t-10-58h367zm-370 83q24 61 74 98.5T614 474q51 0 89-19t63.5-50 38-70.5T817 254v-19H428q0-40 11-80.5T474 81t61-53.5T624 7q49 0 90.5 21T785 90l15-13q-32-44-76-67T623-13q-73 0-127 42t-76 114q-4-31-17.5-59.5t-37.5-50T305.5-1 224-14q-29 0-57 7t-50.5 22T80 54t-14 58q0 46 25 74t63.5 43.5T238 250t85 5h84v47q0 75-40 114t-114 39q-42 0-78.5-15T109 400l-12 17q32 28 74 42.5t82 14.5q42 0 73.5-10.5t52.5-29 32.5-43.5 14.5-53zm-19-103h-75q-43 0-86.5-4.5t-78-17.5-56.5-37-22-64q0-32 13-52.5T135 27t43.5-17T224 5q53 0 88 16.5t56 43 30 59.5 9 67v44z"/><glyph glyph-name="ccedilla" unicode="ç" horiz-adv-x="480" d="M399-146q0-24-11.5-39.5T359-210t-36.5-12.5T287-226q-19 0-43.5 5T197-206l5 17q19-10 43.5-14t42.5-4q15 0 30.5 2.5t29 9 22 18.5 8.5 31q0 16-7 26t-17.5 15.5-23 7.5-24.5 2q-14 0-35.5-4T237-110l-10 9 59 87q-49 2-90 20.5T125 57t-46.5 76T62 229q0 53 17.5 98t49 77.5 74 51T296 474q44 0 83.5-16t67.5-45l-17-15q-26 27-61 42t-73 15q-49 0-88-18.5T141.5 387 99 315t-15-86 15-86 42.5-71.5T208 23t88-18q38 0 74.5 13T434 57l15-14q-29-29-66.5-42T307-14l-49-72q14 5 27 6.5t27 1.5q15 0 30.5-3.5t28-11 20.5-21 8-32.5z"/><glyph glyph-name="egrave" unicode="è" horiz-adv-x="556" d="M84 235q0-42 12.5-83t38-73.5T199 26t92-20q54 0 96 21.5T460 90l16-14q-34-44-79.5-67T291-14q-51 0-93 18.5T125.5 56t-47 79T62 235q0 52 17 96t46.5 76 69.5 49.5 86 17.5q54 0 94-19t66.5-50 39.5-70.5 13-80.5v-19H84zm389 19q-1 45-15.5 82T418 399.5t-60 41-78 14.5q-52 0-89-21.5t-60.5-53-34.5-66T85 254h388zM212 708l103-144h-19L185 708h27z"/><glyph glyph-name="eacute" unicode="é" horiz-adv-x="556" d="M84 235q0-42 12.5-83t38-73.5T199 26t92-20q54 0 96 21.5T460 90l16-14q-34-44-79.5-67T291-14q-51 0-93 18.5T125.5 56t-47 79T62 235q0 52 17 96t46.5 76 69.5 49.5 86 17.5q54 0 94-19t66.5-50 39.5-70.5 13-80.5v-19H84zm389 19q-1 45-15.5 82T418 399.5t-60 41-78 14.5q-52 0-89-21.5t-60.5-53-34.5-66T85 254h388zM276 564h-19l103 144h27z"/><glyph glyph-name="ecircumflex" unicode="ê" horiz-adv-x="556" d="M84 235q0-42 12.5-83t38-73.5T199 26t92-20q54 0 96 21.5T460 90l16-14q-34-44-79.5-67T291-14q-51 0-93 18.5T125.5 56t-47 79T62 235q0 52 17 96t46.5 76 69.5 49.5 86 17.5q54 0 94-19t66.5-50 39.5-70.5 13-80.5v-19H84zm389 19q-1 45-15.5 82T418 399.5t-60 41-78 14.5q-52 0-89-21.5t-60.5-53-34.5-66T85 254h388zM300 708l103-144h-23l-94 132-94-132h-23l103 144h28z"/><glyph glyph-name="edieresis" unicode="ë" horiz-adv-x="556" d="M84 235q0-42 12.5-83t38-73.5T199 26t92-20q54 0 96 21.5T460 90l16-14q-34-44-79.5-67T291-14q-51 0-93 18.5T125.5 56t-47 79T62 235q0 52 17 96t46.5 76 69.5 49.5 86 17.5q54 0 94-19t66.5-50 39.5-70.5 13-80.5v-19H84zm389 19q-1 45-15.5 82T418 399.5t-60 41-78 14.5q-52 0-89-21.5t-60.5-53-34.5-66T85 254h388zM206 633q-9 0-16 7t-7 19q0 11 7 18t16 7 16-7 7-18q0-12-7.5-19t-15.5-7zm154 0q-9 0-16 7t-7 19q0 11 7 18t16 7 16-7 7-18q0-12-7.5-19t-15.5-7z"/><glyph glyph-name="igrave" unicode="ì" horiz-adv-x="226" d="M102 0v460h22V0h-22zM22 708l103-144h-19L-5 708h27z"/><glyph glyph-name="iacute" unicode="í" horiz-adv-x="226" d="M102 0v460h22V0h-22zm18 564h-19l103 144h27z"/><glyph glyph-name="icircumflex" unicode="î" horiz-adv-x="226" d="M102 0v460h22V0h-22zm26 708 103-144h-23l-94 132-94-132H-3l103 144h28z"/><glyph glyph-name="idieresis" unicode="ï" horiz-adv-x="226" d="M102 0v460h22V0h-22zM37 633q-9 0-16 7t-7 19q0 11 7 18t16 7 16-7 7-18q0-12-7.5-19T37 633zm154 0q-9 0-16 7t-7 19q0 11 7 18t16 7 16-7 7-18q0-12-7.5-19t-15.5-7z"/><glyph glyph-name="eth" unicode="ð" horiz-adv-x="605" d="M488 399q-15 36-35.5 73t-44 71.5-47 63.5-44.5 49l-112-61-12 14 110 62q-29 27-53 47t-44 33l17 12q25-16 49.5-37t48.5-45l105 59 16-13-105-59q15-15 36-40t44-57.5 45.5-71T503 418t29-89 11-93q0-55-17.5-101T476 56 399.5 4.5 302-14 205 4t-76 50.5T79.5 132 62 231t17.5 98.5T129 406t76 50 97 18q52 0 98-18.5t82-58.5zm33-168q0 46-15 87t-43.5 71.5-69 48T302 455t-91-17.5-68.5-48T99 318t-15-87q0-47 15-88t43.5-71.5T211 23t91-18 91.5 18 69 48.5T506 143t15 88z"/><glyph glyph-name="ntilde" unicode="ñ" horiz-adv-x="572" d="M128 339q10 32 29 57t43 42.5 52 26.5 58 9q48 0 80-17t51-45 27-63 8-71V0h-22v276q0 28-6 60t-22.5 58-44.5 43.5-71 17.5q-38 0-71.5-15.5t-58-44.5-39-70.5T127 230V0h-22v344q0 11-.5 27t-1 32.5T102 435t-2 25h22q1-10 1.5-25t1-32.5 1-34 .5-29.5h2zm165 299q13-8 22-13t15.5-7.5 11-3 10.5-.5q33 0 40 48h16q-4-36-20-51.5T352 595q-16 0-28.5 5T288 619q-26 16-37 20t-22 4q-32 0-40-51h-16q4 36 20 53t36 17q16 0 29-5t35-19z"/><glyph glyph-name="ograve" unicode="ò" horiz-adv-x="605" d="M543 231q0-54-17.5-99T476 54.5 399.5 4 302-14 205 4t-76 50.5T79.5 132 62 231t17.5 98.5T129 406t76 50 97 18 97.5-18 76.5-50 49.5-76.5T543 231zm-22 0q0 46-15 87t-43.5 71.5-69 48T302 455t-91-17.5-68.5-48T99 318t-15-87q0-47 15-88t43.5-71.5T211 23t91-18 91.5 18 69 48.5T506 143t15 88zM239 708l103-144h-19L212 708h27z"/><glyph glyph-name="oacute" unicode="ó" horiz-adv-x="605" d="M543 231q0-54-17.5-99T476 54.5 399.5 4 302-14 205 4t-76 50.5T79.5 132 62 231t17.5 98.5T129 406t76 50 97 18 97.5-18 76.5-50 49.5-76.5T543 231zm-22 0q0 46-15 87t-43.5 71.5-69 48T302 455t-91-17.5-68.5-48T99 318t-15-87q0-47 15-88t43.5-71.5T211 23t91-18 91.5 18 69 48.5T506 143t15 88zM286 564h-19l103 144h27z"/><glyph glyph-name="ocircumflex" unicode="ô" horiz-adv-x="605" d="M543 231q0-54-17.5-99T476 54.5 399.5 4 302-14 205 4t-76 50.5T79.5 132 62 231t17.5 98.5T129 406t76 50 97 18 97.5-18 76.5-50 49.5-76.5T543 231zm-22 0q0 46-15 87t-43.5 71.5-69 48T302 455t-91-17.5-68.5-48T99 318t-15-87q0-47 15-88t43.5-71.5T211 23t91-18 91.5 18 69 48.5T506 143t15 88zM318 708l103-144h-23l-94 132-94-132h-23l103 144h28z"/><glyph glyph-name="otilde" unicode="õ" horiz-adv-x="605" d="M543 231q0-54-17.5-99T476 54.5 399.5 4 302-14 205 4t-76 50.5T79.5 132 62 231t17.5 98.5T129 406t76 50 97 18 97.5-18 76.5-50 49.5-76.5T543 231zm-22 0q0 46-15 87t-43.5 71.5-69 48T302 455t-91-17.5-68.5-48T99 318t-15-87q0-47 15-88t43.5-71.5T211 23t91-18 91.5 18 69 48.5T506 143t15 88zM307 638q13-8 22-13t15.5-7.5 11-3 10.5-.5q33 0 40 48h16q-4-36-20-51.5T366 595q-16 0-28.5 5T302 619q-26 16-37 20t-22 4q-32 0-40-51h-16q4 36 20 53t36 17q16 0 29-5t35-19z"/><glyph glyph-name="odieresis" unicode="ö" horiz-adv-x="605" d="M543 231q0-54-17.5-99T476 54.5 399.5 4 302-14 205 4t-76 50.5T79.5 132 62 231t17.5 98.5T129 406t76 50 97 18 97.5-18 76.5-50 49.5-76.5T543 231zm-22 0q0 46-15 87t-43.5 71.5-69 48T302 455t-91-17.5-68.5-48T99 318t-15-87q0-47 15-88t43.5-71.5T211 23t91-18 91.5 18 69 48.5T506 143t15 88zM227 633q-9 0-16 7t-7 19q0 11 7 18t16 7 16-7 7-18q0-12-7.5-19t-15.5-7zm154 0q-9 0-16 7t-7 19q0 11 7 18t16 7 16-7 7-18q0-12-7.5-19t-15.5-7z"/><glyph glyph-name="divide" unicode="÷" d="M369 470q0-16-11-27t-25-11-24.5 11-10.5 27 10.5 27 24.5 11 25-11 11-27zM94 293v20h479v-20H94zm275-157q0-16-11-27t-25-11-24.5 11-10.5 27q0 17 10 27.5t25 10.5q14 0 25-11t11-27z"/><glyph glyph-name="oslash" unicode="ø" horiz-adv-x="605" d="M479 402q30-31 47-74t17-97-17.5-99T476 54.5 399.5 4 302-14q-52 0-95.5 18T131 54L65-12 51 1l67 67q-26 31-41 72.5T62 231q0 54 17.5 98.5T129 406t76 50 97 18q49 0 90.5-15t73.5-43l59 59 14-14zM146 69q27-30 66.5-47T302 5q51 0 91.5 18t69 48.5T506 143t15 88q0 45-14.5 85T464 387zm305 332q-28 25-65 39.5T302 455q-51 0-91-17.5t-68.5-48T99 318t-15-87q0-42 12.5-80T133 83z"/><glyph glyph-name="ugrave" unicode="ù" horiz-adv-x="572" d="M442 121q-11-32-29.5-57.5T370 21 318-5t-58-9q-48 0-80 17t-51 45-27 63-8 71v278h22V184q0-29 6-60.5T144.5 66t44-43.5T260 5q38 0 71.5 15.5t58 44.5 39 70.5T443 230v230h22V116q0-11 .5-27t1-32.5T468 25t2-25h-22q-1 10-1.5 25t-1 32.5-1 34-.5 29.5h-2zM202 708l103-144h-19L175 708h27z"/><glyph glyph-name="uacute" unicode="ú" horiz-adv-x="572" d="M442 121q-11-32-29.5-57.5T370 21 318-5t-58-9q-48 0-80 17t-51 45-27 63-8 71v278h22V184q0-29 6-60.5T144.5 66t44-43.5T260 5q38 0 71.5 15.5t58 44.5 39 70.5T443 230v230h22V116q0-11 .5-27t1-32.5T468 25t2-25h-22q-1 10-1.5 25t-1 32.5-1 34-.5 29.5h-2zM262 564h-19l103 144h27z"/><glyph glyph-name="ucircumflex" unicode="û" horiz-adv-x="572" d="M442 121q-11-32-29.5-57.5T370 21 318-5t-58-9q-48 0-80 17t-51 45-27 63-8 71v278h22V184q0-29 6-60.5T144.5 66t44-43.5T260 5q38 0 71.5 15.5t58 44.5 39 70.5T443 230v230h22V116q0-11 .5-27t1-32.5T468 25t2-25h-22q-1 10-1.5 25t-1 32.5-1 34-.5 29.5h-2zM292 708l103-144h-23l-94 132-94-132h-23l103 144h28z"/><glyph glyph-name="udieresis" unicode="ü" horiz-adv-x="572" d="M442 121q-11-32-29.5-57.5T370 21 318-5t-58-9q-48 0-80 17t-51 45-27 63-8 71v278h22V184q0-29 6-60.5T144.5 66t44-43.5T260 5q38 0 71.5 15.5t58 44.5 39 70.5T443 230v230h22V116q0-11 .5-27t1-32.5T468 25t2-25h-22q-1 10-1.5 25t-1 32.5-1 34-.5 29.5h-2zM201 633q-9 0-16 7t-7 19q0 11 7 18t16 7 16-7 7-18q0-12-7.5-19t-15.5-7zm154 0q-9 0-16 7t-7 19q0 11 7 18t16 7 16-7 7-18q0-12-7.5-19t-15.5-7z"/><glyph glyph-name="yacute" unicode="ý" horiz-adv-x="428" d="M176-152q-16-43-42.5-66.5T65-242q-9 0-21 2t-20 5l6 19q6-2 16.5-4t20.5-2q21 0 36.5 8t26.5 20.5 18.5 28.5 13.5 32l44 120L24 460h24L217 12l163 448h24zm37 716h-19l103 144h27z"/><glyph glyph-name="thorn" unicode="þ" horiz-adv-x="626" d="M127 335q30 69 85.5 104T334 474q51 0 93.5-18.5t73-51 47-77.5 16.5-98q0-52-17-96.5t-47.5-77-73-51T334-14q-33 0-64.5 9T211 21.5t-49 43-35 59.5h-3v-364h-22v996h22V335h3zm415-106q0 45-14.5 86T486 387t-65.5 49.5T334 455q-46 0-84.5-18T183 388.5 139 317t-16-87 16-87 44-71.5T249.5 23 334 5q48 0 86.5 18T486 71.5t41.5 71.5 14.5 86z"/><glyph glyph-name="ydieresis" unicode="ÿ" horiz-adv-x="428" d="M176-152q-16-43-42.5-66.5T65-242q-9 0-21 2t-20 5l6 19q6-2 16.5-4t20.5-2q21 0 36.5 8t26.5 20.5 18.5 28.5 13.5 32l44 120L24 460h24L217 12l163 448h24zm-36 785q-9 0-16 7t-7 19q0 11 7 18t16 7 16-7 7-18q0-12-7.5-19t-15.5-7zm154 0q-9 0-16 7t-7 19q0 11 7 18t16 7 16-7 7-18q0-12-7.5-19t-15.5-7z"/><glyph glyph-name="Amacron" unicode="Ā" d="m624 0-84 203H129L42 0H18l307 708h28L648 0h-24zM338 694 137 222h396zM222 821v20h232v-20H222z"/><glyph glyph-name="amacron" unicode="ā" horiz-adv-x="512" d="M418 104q0-26 2.5-55.5T426 0h-21q-2 10-3 24.5t-2.5 30-2 30.5-.5 25h-3q-20-63-69-93.5T220-14q-28 0-55.5 8T115 18 79.5 59 66 118q0 49 25.5 79t63.5 46.5 81.5 21.5 79.5 5h80v37q0 77-41 112.5T248 455q-41 0-76.5-15T108 400l-12 17q32 28 72.5 42.5T248 474q79 0 124.5-40.5T418 306V104zm-22 147h-71q-38 0-80-4.5T168 228t-57.5-40T88 118q0-32 12.5-53.5t32-34.5 43-19T220 5q51 0 85 19t54.5 48.5 28.5 65 8 69.5v44zM146 621v20h232v-20H146z"/><glyph glyph-name="Abreve" unicode="Ă" d="m624 0-84 203H129L42 0H18l307 708h28L648 0h-24zM338 694 137 222h396zm126 204q-10-61-43.5-93.5T337 772q-49 0-82.5 32.5T213 898h19q10-52 38-79t67-27q45 0 71 25t38 81h18z"/><glyph glyph-name="abreve" unicode="ă" horiz-adv-x="512" d="M418 104q0-26 2.5-55.5T426 0h-21q-2 10-3 24.5t-2.5 30-2 30.5-.5 25h-3q-20-63-69-93.5T220-14q-28 0-55.5 8T115 18 79.5 59 66 118q0 49 25.5 79t63.5 46.5 81.5 21.5 79.5 5h80v37q0 77-41 112.5T248 455q-41 0-76.5-15T108 400l-12 17q32 28 72.5 42.5T248 474q79 0 124.5-40.5T418 306V104zm-22 147h-71q-38 0-80-4.5T168 228t-57.5-40T88 118q0-32 12.5-53.5t32-34.5 43-19T220 5q51 0 85 19t54.5 48.5 28.5 65 8 69.5v44zm-8 447q-10-61-43.5-93.5T261 572q-49 0-82.5 32.5T137 698h19q10-52 38-79t67-27q45 0 71 25t38 81h18z"/><glyph glyph-name="Aogonek" unicode="Ą" d="M699-192q-16-14-37.5-22.5T617-223q-35 0-59.5 21T533-143q0 39 28 73.5T625 0h-1l-84 203H129L42 0H18l307 708h28L648 0q-46-46-69.5-76.5T555-141q0-30 18-47t47-17q20 0 38.5 8t30.5 21zM338 694 137 222h396z"/><glyph glyph-name="aogonek" unicode="ą" horiz-adv-x="512" d="M478-192q-16-14-37.5-22.5T396-223q-35 0-59.5 21T312-143q0 39 28 73.5T404 0h1q-2 10-3 24.5t-2.5 30-2 30.5-.5 25h-3q-20-63-69-93.5T220-14q-28 0-55.5 8T115 18 79.5 59 66 118q0 49 25.5 79t63.5 46.5 81.5 21.5 79.5 5h80v37q0 77-41 112.5T248 455q-41 0-76.5-15T108 400l-12 17q32 28 72.5 42.5T248 474q79 0 124.5-40.5T418 306V104q0-26 2.5-55.5T426 0h1q-46-46-69.5-76.5T334-141q0-30 18-47t47-17q20 0 38.5 8t30.5 21zm-82 443h-71q-38 0-80-4.5T168 228t-57.5-40T88 118q0-32 12.5-53.5t32-34.5 43-19T220 5q51 0 85 19t54.5 48.5 28.5 65 8 69.5v44z"/><glyph glyph-name="Cacute" unicode="Ć" horiz-adv-x="724" d="M686 87Q641 33 572.5 6.5T433-20q-80 0-146 28T173 85.5 98.5 204 72 354t26.5 150T173 622.5 287.5 700 433 728q66 0 128.5-22.5T668 637l-14-16q-21 22-47.5 38.5t-56 27.5-59.5 16-58 5q-76 0-138.5-27.5t-107-75.5-69-112.5T94 354t24-138.5T186.5 103t107-75.5T433 0q66 0 130.5 25.5T670 102zM411 764h-19l103 144h27z"/><glyph glyph-name="cacute" unicode="ć" horiz-adv-x="480" d="M430 398q-26 27-61 42t-73 15q-49 0-88-18.5T141.5 387 99 315t-15-86 15-86 42.5-71.5T208 23t88-18q38 0 74.5 13T434 57l15-14Q419 13 378.5-.5T296-14q-51 0-93.5 18t-74 50-49 77T62 229t17.5 98 49 77.5 74 51T296 474q44 0 83.5-16t67.5-45zM285 564h-19l103 144h27z"/><glyph glyph-name="Ccircumflex" unicode="Ĉ" horiz-adv-x="724" d="M686 87Q641 33 572.5 6.5T433-20q-80 0-146 28T173 85.5 98.5 204 72 354t26.5 150T173 622.5 287.5 700 433 728q66 0 128.5-22.5T668 637l-14-16q-21 22-47.5 38.5t-56 27.5-59.5 16-58 5q-76 0-138.5-27.5t-107-75.5-69-112.5T94 354t24-138.5T186.5 103t107-75.5T433 0q66 0 130.5 25.5T670 102zM447 908l103-144h-23l-94 132-94-132h-23l103 144h28z"/><glyph glyph-name="ccircumflex" unicode="ĉ" horiz-adv-x="480" d="M430 398q-26 27-61 42t-73 15q-49 0-88-18.5T141.5 387 99 315t-15-86 15-86 42.5-71.5T208 23t88-18q38 0 74.5 13T434 57l15-14Q419 13 378.5-.5T296-14q-51 0-93.5 18t-74 50-49 77T62 229t17.5 98 49 77.5 74 51T296 474q44 0 83.5-16t67.5-45zM310 708l103-144h-23l-94 132-94-132h-23l103 144h28z"/><glyph glyph-name="Cdotaccent" unicode="Ċ" horiz-adv-x="724" d="M686 87Q641 33 572.5 6.5T433-20q-80 0-146 28T173 85.5 98.5 204 72 354t26.5 150T173 622.5 287.5 700 433 728q66 0 128.5-22.5T668 637l-14-16q-21 22-47.5 38.5t-56 27.5-59.5 16-58 5q-76 0-138.5-27.5t-107-75.5-69-112.5T94 354t24-138.5T186.5 103t107-75.5T433 0q66 0 130.5 25.5T670 102zM432 833q-9 0-16 7t-7 19q0 11 7 18t16 7 16-7 7-18q0-12-7.5-19t-15.5-7z"/><glyph glyph-name="cdotaccent" unicode="ċ" horiz-adv-x="480" d="M430 398q-26 27-61 42t-73 15q-49 0-88-18.5T141.5 387 99 315t-15-86 15-86 42.5-71.5T208 23t88-18q38 0 74.5 13T434 57l15-14Q419 13 378.5-.5T296-14q-51 0-93.5 18t-74 50-49 77T62 229t17.5 98 49 77.5 74 51T296 474q44 0 83.5-16t67.5-45zM293 633q-9 0-16 7t-7 19q0 11 7 18t16 7 16-7 7-18q0-12-7.5-19t-15.5-7z"/><glyph glyph-name="Ccaron" unicode="Č" horiz-adv-x="724" d="M686 87Q641 33 572.5 6.5T433-20q-80 0-146 28T173 85.5 98.5 204 72 354t26.5 150T173 622.5 287.5 700 433 728q66 0 128.5-22.5T668 637l-14-16q-21 22-47.5 38.5t-56 27.5-59.5 16-58 5q-76 0-138.5-27.5t-107-75.5-69-112.5T94 354t24-138.5T186.5 103t107-75.5T433 0q66 0 130.5 25.5T670 102zM419 764 316 908h23l94-132 94 132h23L447 764h-28z"/><glyph glyph-name="ccaron" unicode="č" horiz-adv-x="480" d="M430 398q-26 27-61 42t-73 15q-49 0-88-18.5T141.5 387 99 315t-15-86 15-86 42.5-71.5T208 23t88-18q38 0 74.5 13T434 57l15-14Q419 13 378.5-.5T296-14q-51 0-93.5 18t-74 50-49 77T62 229t17.5 98 49 77.5 74 51T296 474q44 0 83.5-16t67.5-45zM278 564 175 708h23l94-132 94 132h23L306 564h-28z"/><glyph glyph-name="Dcaron" unicode="Ď" horiz-adv-x="770" d="M698 354q0-92-30-158.5t-83-110T460.5 21 307 0H106v708h201q82 0 153.5-20.5t124.5-64T668 513t30-159zM129 688V20h173q78 0 146.5 19.5t118.5 60T646 203t29 151-29 151.5-79 104T448.5 669 302 688H129zm212 76L238 908h23l94-132 94 132h23L369 764h-28z"/><glyph glyph-name="dcaron" unicode="ď" horiz-adv-x="626" d="M502 756h22V0h-22v124h-3q-30-68-85.5-103T292-14q-50 0-92.5 18.5t-73 51-47.5 77T62 229t17 97 47.5 78 73 51.5T292 474q66 0 121.5-35T499 335h3v421zM84 229q0-45 14.5-86T140 71.5 205.5 23 292 5q46 0 84.5 18T443 71.5t44 71.5 16 87-16 87-44 71.5-66.5 48.5-84.5 18q-48 0-86.5-18.5T140 387t-41.5-72T84 229zm519 294h-17l51 185h24z"/><glyph glyph-name="Dcroat" unicode="Đ" horiz-adv-x="770" d="M26 358v20h80v330h201q82 0 153.5-20.5t124.5-64T668 513t30-159-30-158.5-83-110T460.5 21 307 0H106v358H26zm371 20v-20H129V20h173q78 0 146.5 19.5t118.5 60T646 203t29 151-29 151.5-79 104T448.5 669 302 688H129V378h268z"/><glyph glyph-name="dcroat" unicode="đ" horiz-adv-x="626" d="M524 570V0h-22v124h-3q-30-68-85.5-103T292-14q-50 0-92.5 18.5t-73 51-47.5 77T62 229t17 97 47.5 78 73 51.5T292 474q66 0 121.5-35T499 335h3v235H289v18h213v168h22V588h70v-18h-70zM84 229q0-45 14.5-86T140 71.5 205.5 23 292 5q46 0 84.5 18T443 71.5t44 71.5 16 87-16 87-44 71.5-66.5 48.5-84.5 18q-48 0-86.5-18.5T140 387t-41.5-72T84 229z"/><glyph glyph-name="Emacron" unicode="Ē" horiz-adv-x="590" d="M106 0v708h412v-20H127V377h368v-20H127V20h407V0H106zm93 821v20h232v-20H199z"/><glyph glyph-name="emacron" unicode="ē" horiz-adv-x="556" d="M84 235q0-42 12.5-83t38-73.5T199 26t92-20q54 0 96 21.5T460 90l16-14q-34-44-79.5-67T291-14q-51 0-93 18.5T125.5 56t-47 79T62 235q0 52 17 96t46.5 76 69.5 49.5 86 17.5q54 0 94-19t66.5-50 39.5-70.5 13-80.5v-19H84zm389 19q-1 45-15.5 82T418 399.5t-60 41-78 14.5q-52 0-89-21.5t-60.5-53-34.5-66T85 254h388zM170 621v20h232v-20H170z"/><glyph glyph-name="Ebreve" unicode="Ĕ" horiz-adv-x="590" d="M106 0v708h412v-20H127V377h368v-20H127V20h407V0H106zm335 898q-10-61-43.5-93.5T314 772q-49 0-82.5 32.5T190 898h19q10-52 38-79t67-27q45 0 71 25t38 81h18z"/><glyph glyph-name="ebreve" unicode="ĕ" horiz-adv-x="556" d="M84 235q0-42 12.5-83t38-73.5T199 26t92-20q54 0 96 21.5T460 90l16-14q-34-44-79.5-67T291-14q-51 0-93 18.5T125.5 56t-47 79T62 235q0 52 17 96t46.5 76 69.5 49.5 86 17.5q54 0 94-19t66.5-50 39.5-70.5 13-80.5v-19H84zm389 19q-1 45-15.5 82T418 399.5t-60 41-78 14.5q-52 0-89-21.5t-60.5-53-34.5-66T85 254h388zm-59 444q-10-61-43.5-93.5T287 572q-49 0-82.5 32.5T163 698h19q10-52 38-79t67-27q45 0 71 25t38 81h18z"/><glyph glyph-name="Edotaccent" unicode="Ė" horiz-adv-x="590" d="M106 0v708h412v-20H127V377h368v-20H127V20h407V0H106zm209 833q-9 0-16 7t-7 19q0 11 7 18t16 7 16-7 7-18q0-12-7.5-19t-15.5-7z"/><glyph glyph-name="edotaccent" unicode="ė" horiz-adv-x="556" d="M84 235q0-42 12.5-83t38-73.5T199 26t92-20q54 0 96 21.5T460 90l16-14q-34-44-79.5-67T291-14q-51 0-93 18.5T125.5 56t-47 79T62 235q0 52 17 96t46.5 76 69.5 49.5 86 17.5q54 0 94-19t66.5-50 39.5-70.5 13-80.5v-19H84zm389 19q-1 45-15.5 82T418 399.5t-60 41-78 14.5q-52 0-89-21.5t-60.5-53-34.5-66T85 254h388zM286 633q-9 0-16 7t-7 19q0 11 7 18t16 7 16-7 7-18q0-12-7.5-19t-15.5-7z"/><glyph glyph-name="Eogonek" unicode="Ę" horiz-adv-x="590" d="M571-192q-16-14-37.5-22.5T489-223q-35 0-59.5 21T405-143q0 39 28 73.5T497 0H106v708h412v-20H127V377h368v-20H127V20h407V0h-14q-46-46-69.5-76.5T427-141q0-30 18-47t47-17q20 0 38.5 8t30.5 21z"/><glyph glyph-name="eogonek" unicode="ę" horiz-adv-x="556" d="M402-192q-16-14-37.5-22.5T320-223q-35 0-59.5 21T236-143q0 35 23 67t55 63q-5 0-11-.5t-12-.5q-51 0-93 18.5T125.5 56t-47 79T62 235q0 52 17 96t46.5 76 69.5 49.5 86 17.5q54 0 94-19t66.5-50 39.5-70.5 13-80.5v-19H84q0-42 12.5-83t38-73.5T199 26t92-20q54 0 96 21.5T460 90l16-14Q422 7 342-9q-41-41-62.5-70.5T258-141q0-30 18-47t47-17q20 0 38.5 8t30.5 21zm71 446q-1 45-15.5 82T418 399.5t-60 41-78 14.5q-52 0-89-21.5t-60.5-53-34.5-66T85 254h388z"/><glyph glyph-name="Ecaron" unicode="Ě" horiz-adv-x="590" d="M106 0v708h412v-20H127V377h368v-20H127V20h407V0H106zm195 764L198 908h23l94-132 94 132h23L329 764h-28z"/><glyph glyph-name="ecaron" unicode="ě" horiz-adv-x="556" d="M84 235q0-42 12.5-83t38-73.5T199 26t92-20q54 0 96 21.5T460 90l16-14q-34-44-79.5-67T291-14q-51 0-93 18.5T125.5 56t-47 79T62 235q0 52 17 96t46.5 76 69.5 49.5 86 17.5q54 0 94-19t66.5-50 39.5-70.5 13-80.5v-19H84zm389 19q-1 45-15.5 82T418 399.5t-60 41-78 14.5q-52 0-89-21.5t-60.5-53-34.5-66T85 254h388zM271 564 168 708h23l94-132 94 132h23L299 564h-28z"/><glyph glyph-name="Gcircumflex" unicode="Ĝ" horiz-adv-x="795" d="M699 41Q657 18 593-1T445-20 292 9 174 88.5t-75.5 119T72 356t27 148.5 75.5 118T291 700t150 28q72 0 132-22t106-60l-16-16q-20 19-46.5 33.5t-56 24.5-60.5 15-60 5q-78 0-142-27.5T188.5 605t-70-112T94 356t24-138 69.5-113.5 111-76.5T447 0q72 0 128 15t103 38v278H494v19h205V41zM449 908l103-144h-23l-94 132-94-132h-23l103 144h28z"/><glyph glyph-name="gcircumflex" unicode="ĝ" horiz-adv-x="626" d="M502 124h-3q-13-34-35-59.5t-49-43T356.5-5 292-14q-50 0-92.5 18.5t-73 51-47.5 77T62 229t17 97 47.5 78 73 51.5T292 474q66 0 121.5-35T499 335h3v125h22V26q0-55-11.5-105t-38-88-70-60.5T297-250q-65 0-116 22.5T94-164l15 15q38-43 86.5-62.5T297-231q60 0 100 22t63 58 32.5 82.5T502 28v96zM84 229q0-45 14.5-86T140 71t65.5-49T292 4q46 0 84.5 18T443 71t44 72 16 87-16 87-44 71.5-66.5 48.5-84.5 18q-48 0-86.5-18.5T140 387t-41.5-72T84 229zm237 479 103-144h-23l-94 132-94-132h-23l103 144h28z"/><glyph glyph-name="Gbreve" unicode="Ğ" horiz-adv-x="795" d="M699 41Q657 18 593-1T445-20 292 9 174 88.5t-75.5 119T72 356t27 148.5 75.5 118T291 700t150 28q72 0 132-22t106-60l-16-16q-20 19-46.5 33.5t-56 24.5-60.5 15-60 5q-78 0-142-27.5T188.5 605t-70-112T94 356t24-138 69.5-113.5 111-76.5T447 0q72 0 128 15t103 38v278H494v19h205V41zM563 898q-10-61-43.5-93.5T436 772q-49 0-82.5 32.5T312 898h19q10-52 38-79t67-27q45 0 71 25t38 81h18z"/><glyph glyph-name="gbreve" unicode="ğ" horiz-adv-x="626" d="M502 124h-3q-13-34-35-59.5t-49-43T356.5-5 292-14q-50 0-92.5 18.5t-73 51-47.5 77T62 229t17 97 47.5 78 73 51.5T292 474q66 0 121.5-35T499 335h3v125h22V26q0-55-11.5-105t-38-88-70-60.5T297-250q-65 0-116 22.5T94-164l15 15q38-43 86.5-62.5T297-231q60 0 100 22t63 58 32.5 82.5T502 28v96zM84 229q0-45 14.5-86T140 71t65.5-49T292 4q46 0 84.5 18T443 71t44 72 16 87-16 87-44 71.5-66.5 48.5-84.5 18q-48 0-86.5-18.5T140 387t-41.5-72T84 229zm347 469q-10-61-43.5-93.5T304 572q-49 0-82.5 32.5T180 698h19q10-52 38-79t67-27q45 0 71 25t38 81h18z"/><glyph glyph-name="Gdotaccent" unicode="Ġ" horiz-adv-x="795" d="M699 41Q657 18 593-1T445-20 292 9 174 88.5t-75.5 119T72 356t27 148.5 75.5 118T291 700t150 28q72 0 132-22t106-60l-16-16q-20 19-46.5 33.5t-56 24.5-60.5 15-60 5q-78 0-142-27.5T188.5 605t-70-112T94 356t24-138 69.5-113.5 111-76.5T447 0q72 0 128 15t103 38v278H494v19h205V41zM434 833q-9 0-16 7t-7 19q0 11 7 18t16 7 16-7 7-18q0-12-7.5-19t-15.5-7z"/><glyph glyph-name="gdotaccent" unicode="ġ" horiz-adv-x="626" d="M502 124h-3q-13-34-35-59.5t-49-43T356.5-5 292-14q-50 0-92.5 18.5t-73 51-47.5 77T62 229t17 97 47.5 78 73 51.5T292 474q66 0 121.5-35T499 335h3v125h22V26q0-55-11.5-105t-38-88-70-60.5T297-250q-65 0-116 22.5T94-164l15 15q38-43 86.5-62.5T297-231q60 0 100 22t63 58 32.5 82.5T502 28v96zM84 229q0-45 14.5-86T140 71t65.5-49T292 4q46 0 84.5 18T443 71t44 72 16 87-16 87-44 71.5-66.5 48.5-84.5 18q-48 0-86.5-18.5T140 387t-41.5-72T84 229zm220 404q-9 0-16 7t-7 19q0 11 7 18t16 7 16-7 7-18q0-12-7.5-19t-15.5-7z"/><glyph glyph-name="Gcommaaccent" unicode="Ģ" horiz-adv-x="795" d="M699 41Q657 18 593-1T445-20 292 9 174 88.5t-75.5 119T72 356t27 148.5 75.5 118T291 700t150 28q72 0 132-22t106-60l-16-16q-20 19-46.5 33.5t-56 24.5-60.5 15-60 5q-78 0-142-27.5T188.5 605t-70-112T94 356t24-138 69.5-113.5 111-76.5T447 0q72 0 128 15t103 38v278H494v19h205V41zM403-230h-17l51 185h24z"/><glyph glyph-name="gcommaaccent" unicode="ģ" horiz-adv-x="626" d="M502 124h-3q-13-34-35-59.5t-49-43T356.5-5 292-14q-50 0-92.5 18.5t-73 51-47.5 77T62 229t17 97 47.5 78 73 51.5T292 474q66 0 121.5-35T499 335h3v125h22V26q0-55-11.5-105t-38-88-70-60.5T297-250q-65 0-116 22.5T94-164l15 15q38-43 86.5-62.5T297-231q60 0 100 22t63 58 32.5 82.5T502 28v96zM84 229q0-45 14.5-86T140 71t65.5-49T292 4q46 0 84.5 18T443 71t44 72 16 87-16 87-44 71.5-66.5 48.5-84.5 18q-48 0-86.5-18.5T140 387t-41.5-72T84 229zm251 520h17l-51-185h-24z"/><glyph glyph-name="Hcircumflex" unicode="Ĥ" horiz-adv-x="732" d="M604 0v356H128V0h-22v708h22V376h476v332h22V0h-22zM381 908l103-144h-23l-94 132-94-132h-23l103 144h28z"/><glyph glyph-name="hcircumflex" unicode="ĥ" horiz-adv-x="569" d="M126 339q10 32 28.5 57t42.5 42.5 52 26.5 58 9q48 0 80-17t51-45 27-63 8-71V0h-22v276q0 28-6 60t-22.5 58-44.5 43.5-71 17.5q-38 0-71.5-15.5t-58-44.5-39-70.5T124 230V0h-22v756h22V339h2zm172 601 103-144h-23l-94 132-94-132h-23l103 144h28z"/><glyph glyph-name="Hbar" unicode="Ħ" horiz-adv-x="732" d="M604 0v356H128V0h-22v708h22V518h476v190h22V0h-22zm0 376v124H128V376h476z"/><glyph glyph-name="hbar" unicode="ħ" horiz-adv-x="569" d="M126 339q10 32 28.5 57t42.5 42.5 52 26.5 58 9q48 0 80-17t51-45 27-63 8-71V0h-22v276q0 28-6 60t-22.5 58-44.5 43.5-71 17.5q-38 0-71.5-15.5t-58-44.5-39-70.5T124 230V0h-22v570H30v18h72v168h22V588h211v-18H124V339h2z"/><glyph glyph-name="Itilde" unicode="Ĩ" horiz-adv-x="234" d="M106 0v708h22V0h-22zm15 838q13-8 22-13t15.5-7.5 11-3 10.5-.5q33 0 40 48h16q-4-36-20-51.5T180 795q-16 0-28.5 5T116 819q-26 16-37 20t-22 4q-32 0-40-51H1q4 36 20 53t36 17q16 0 29-5t35-19z"/><glyph glyph-name="itilde" unicode="ĩ" horiz-adv-x="226" d="M102 0v460h22V0h-22zm15 638q13-8 22-13t15.5-7.5 11-3 10.5-.5q33 0 40 48h16q-4-36-20-51.5T176 595q-16 0-28.5 5T112 619q-26 16-37 20t-22 4q-32 0-40-51H-3q4 36 20 53t36 17q16 0 29-5t35-19z"/><glyph glyph-name="Imacron" unicode="Ī" horiz-adv-x="234" d="M106 0v708h22V0h-22zM2 821v20h232v-20H2z"/><glyph glyph-name="imacron" unicode="ī" horiz-adv-x="226" d="M102 0v460h22V0h-22zM-2 621v20h232v-20H-2z"/><glyph glyph-name="Ibreve" unicode="Ĭ" horiz-adv-x="234" d="M106 0v708h22V0h-22zm137 909q-10-61-43.5-93.5T116 783q-49 0-82.5 32.5T-8 909h19q10-52 38-79t67-27q45 0 71 25t38 81h18z"/><glyph glyph-name="ibreve" unicode="ĭ" horiz-adv-x="226" d="M102 0v460h22V0h-22zm137 661q-10-61-43.5-93.5T112 535q-49 0-82.5 32.5T-12 661H7q10-52 38-79t67-27q45 0 71 25t38 81h18z"/><glyph glyph-name="Iogonek" unicode="Į" horiz-adv-x="234" d="M179-192q-16-14-37.5-22.5T97-223q-35 0-59.5 21T13-143q0 39 28 73.5T105 0h1v708h22V0Q82-46 58.5-76.5T35-141q0-30 18-47t47-17q20 0 38.5 8t30.5 21z"/><glyph glyph-name="iogonek" unicode="į" horiz-adv-x="226" d="M102 0v460h22V0h-22zm74-192q-16-14-37.5-22.5T94-223q-35 0-59.5 21T10-143q0 39 28 73.5T102 0h23Q79-46 55.5-76.5T32-141q0-30 18-47t47-17q20 0 38.5 8t30.5 21zm-63 825q-9 0-16 7t-7 19q0 11 7 18t16 7 16-7 7-18q0-12-7.5-19t-15.5-7z"/><glyph glyph-name="Idotaccent" unicode="İ" horiz-adv-x="234" d="M106 0v708h22V0h-22zm11 833q-9 0-16 7t-7 19q0 11 7 18t16 7 16-7 7-18q0-12-7.5-19t-15.5-7z"/><glyph glyph-name="dotlessi" unicode="ı" horiz-adv-x="226" d="M102 0v460h22V0h-22z"/><glyph glyph-name="Jcircumflex" unicode="Ĵ" horiz-adv-x="480" d="M378 193q0-98-45.5-154.5T197-18q-63 0-107 32.5T29 93l19 9q20-45 59-72.5T197 2q43 0 73 14.5T319 57t28 61.5 9 77.5v512h22V193zm1 715 103-144h-23l-94 132-94-132h-23l103 144h28z"/><glyph glyph-name="jcircumflex" unicode="ĵ" horiz-adv-x="226" d="M124-97q0-35-4.5-62t-17-45T68-231.5 12-241q-7 0-15 .5t-14 2.5l4 19q13-3 25-3 32 0 50 11t27 28.5 11 39.5 2 44v559h22V-97zm1 805 103-144h-23l-94 132-94-132H-6L97 708h28z"/><glyph glyph-name="Kcommaaccent" unicode="Ķ" horiz-adv-x="565" d="m129 383 356 325h32L157 383 535 0h-31L129 381h-1V0h-22v708h22V383h1zm136-613h-17l51 185h24z"/><glyph glyph-name="kcommaaccent" unicode="ķ" horiz-adv-x="445" d="m125 248 238 212h31L151 247 422 0h-33L125 243h-1V0h-22v756h22V248h1zm83-478h-17l51 185h24z"/><glyph glyph-name="Lacute" unicode="Ĺ" horiz-adv-x="498" d="M106 0v708h22V20h352V0H106zm19 764h-19l103 144h27z"/><glyph glyph-name="lacute" unicode="ĺ" horiz-adv-x="226" d="M102 0v756h22V0h-22zm19 792h-19l103 144h27z"/><glyph glyph-name="Lcommaaccent" unicode="Ļ" horiz-adv-x="498" d="M106 0v708h22V20h352V0H106zm144-230h-17l51 185h24z"/><glyph glyph-name="lcommaaccent" unicode="ļ" horiz-adv-x="226" d="M102 0v756h22V0h-22zM82-231H65l51 185h24z"/><glyph glyph-name="Lcaron" unicode="Ľ" horiz-adv-x="498" d="M106 0v708h22V20h352V0H106zm120 523h-17l51 185h24z"/><glyph glyph-name="lcaron" unicode="ľ" horiz-adv-x="226" d="M102 0v756h22V0h-22zm94 523h-17l51 185h24z"/><glyph glyph-name="Ldot" unicode="Ŀ" horiz-adv-x="498" d="M106 0v708h22V20h352V0H106zm261 273q-9 0-16 7t-7 19q0 11 7 18t16 7 16-7 7-18q0-12-7.5-19t-15.5-7z"/><glyph glyph-name="ldot" unicode="ŀ" horiz-adv-x="226" d="M102 0v756h22V0h-22zm122 273q-9 0-16 7t-7 19q0 11 7 18t16 7 16-7 7-18q0-12-7.5-19t-15.5-7z"/><glyph glyph-name="Lslash" unicode="Ł" horiz-adv-x="498" d="M41 198v27l65 60v423h22V302l207 186v-24L128 275V20h352V0H106v258z"/><glyph glyph-name="lslash" unicode="ł" horiz-adv-x="226" d="M41 302v27l65 60v367h22V406l73 63v-24l-73-66V0h-22v362z"/><glyph glyph-name="Nacute" unicode="Ń" horiz-adv-x="777" d="M639 0 131 680h-3V0h-22v708h31L646 29h3v679h22V0h-32zM386 764h-19l103 144h27z"/><glyph glyph-name="nacute" unicode="ń" horiz-adv-x="572" d="M128 339q10 32 29 57t43 42.5 52 26.5 58 9q48 0 80-17t51-45 27-63 8-71V0h-22v276q0 28-6 60t-22.5 58-44.5 43.5-71 17.5q-38 0-71.5-15.5t-58-44.5-39-70.5T127 230V0h-22v344q0 11-.5 27t-1 32.5T102 435t-2 25h22q1-10 1.5-25t1-32.5 1-34 .5-29.5h2zm156 225h-19l103 144h27z"/><glyph glyph-name="Ncommaaccent" unicode="Ņ" horiz-adv-x="777" d="M639 0 131 680h-3V0h-22v708h31L646 29h3v679h22V0h-32zM344-230h-17l51 185h24z"/><glyph glyph-name="ncommaaccent" unicode="ņ" horiz-adv-x="572" d="M128 339q10 32 29 57t43 42.5 52 26.5 58 9q48 0 80-17t51-45 27-63 8-71V0h-22v276q0 28-6 60t-22.5 58-44.5 43.5-71 17.5q-38 0-71.5-15.5t-58-44.5-39-70.5T127 230V0h-22v344q0 11-.5 27t-1 32.5T102 435t-2 25h22q1-10 1.5-25t1-32.5 1-34 .5-29.5h2zm129-569h-17l51 185h24z"/><glyph glyph-name="Ncaron" unicode="Ň" horiz-adv-x="777" d="M639 0 131 680h-3V0h-22v708h31L646 29h3v679h22V0h-32zM374 764 271 908h23l94-132 94 132h23L402 764h-28z"/><glyph glyph-name="ncaron" unicode="ň" horiz-adv-x="572" d="M128 339q10 32 29 57t43 42.5 52 26.5 58 9q48 0 80-17t51-45 27-63 8-71V0h-22v276q0 28-6 60t-22.5 58-44.5 43.5-71 17.5q-38 0-71.5-15.5t-58-44.5-39-70.5T127 230V0h-22v344q0 11-.5 27t-1 32.5T102 435t-2 25h22q1-10 1.5-25t1-32.5 1-34 .5-29.5h2zm151 225L176 708h23l94-132 94 132h23L307 564h-28z"/><glyph glyph-name="Omacron" unicode="Ō" horiz-adv-x="872" d="M800 354q0-82-27.5-150.5t-76-118T581 8 436-20 291 8 175.5 85.5t-76 118T72 354t27.5 150.5 76 118 115 77.5T436 728t145.5-28 115-77.5 76-118T800 354zm-22 0q0 74-25 138.5T682.5 605 574 680.5 436 708t-138-27.5T189.5 605 119 492.5 94 354t24.5-138.5T188 103t108-75.5T436 0t140 27.5T684 103t69.5 112.5T778 354zM322 821v20h232v-20H322z"/><glyph glyph-name="omacron" unicode="ō" horiz-adv-x="605" d="M543 231q0-54-17.5-99T476 54.5 399.5 4 302-14 205 4t-76 50.5T79.5 132 62 231t17.5 98.5T129 406t76 50 97 18 97.5-18 76.5-50 49.5-76.5T543 231zm-22 0q0 46-15 87t-43.5 71.5-69 48T302 455t-91-17.5-68.5-48T99 318t-15-87q0-47 15-88t43.5-71.5T211 23t91-18 91.5 18 69 48.5T506 143t15 88zM185 621v20h232v-20H185z"/><glyph glyph-name="Obreve" unicode="Ŏ" horiz-adv-x="872" d="M800 354q0-82-27.5-150.5t-76-118T581 8 436-20 291 8 175.5 85.5t-76 118T72 354t27.5 150.5 76 118 115 77.5T436 728t145.5-28 115-77.5 76-118T800 354zm-22 0q0 74-25 138.5T682.5 605 574 680.5 436 708t-138-27.5T189.5 605 119 492.5 94 354t24.5-138.5T188 103t108-75.5T436 0t140 27.5T684 103t69.5 112.5T778 354zM561 898q-10-61-43.5-93.5T434 772q-49 0-82.5 32.5T310 898h19q10-52 38-79t67-27q45 0 71 25t38 81h18z"/><glyph glyph-name="obreve" unicode="ŏ" horiz-adv-x="605" d="M543 231q0-54-17.5-99T476 54.5 399.5 4 302-14 205 4t-76 50.5T79.5 132 62 231t17.5 98.5T129 406t76 50 97 18 97.5-18 76.5-50 49.5-76.5T543 231zm-22 0q0 46-15 87t-43.5 71.5-69 48T302 455t-91-17.5-68.5-48T99 318t-15-87q0-47 15-88t43.5-71.5T211 23t91-18 91.5 18 69 48.5T506 143t15 88zm-93 467q-10-61-43.5-93.5T301 572q-49 0-82.5 32.5T177 698h19q10-52 38-79t67-27q45 0 71 25t38 81h18z"/><glyph glyph-name="Ohungarumlaut" unicode="Ő" horiz-adv-x="872" d="M800 354q0-82-27.5-150.5t-76-118T581 8 436-20 291 8 175.5 85.5t-76 118T72 354t27.5 150.5 76 118 115 77.5T436 728t145.5-28 115-77.5 76-118T800 354zm-22 0q0 74-25 138.5T682.5 605 574 680.5 436 708t-138-27.5T189.5 605 119 492.5 94 354t24.5-138.5T188 103t108-75.5T436 0t140 27.5T684 103t69.5 112.5T778 354zM384 763h-19l103 145h27zm117 0h-19l103 145h27z"/><glyph glyph-name="ohungarumlaut" unicode="ő" horiz-adv-x="605" d="M543 231q0-54-17.5-99T476 54.5 399.5 4 302-14 205 4t-76 50.5T79.5 132 62 231t17.5 98.5T129 406t76 50 97 18 97.5-18 76.5-50 49.5-76.5T543 231zm-22 0q0 46-15 87t-43.5 71.5-69 48T302 455t-91-17.5-68.5-48T99 318t-15-87q0-47 15-88t43.5-71.5T211 23t91-18 91.5 18 69 48.5T506 143t15 88zM248 563h-19l103 145h27zm117 0h-19l103 145h27z"/><glyph glyph-name="OE" unicode="Œ" horiz-adv-x="978" d="M468 688q-78 0-146.5-19.5t-118.5-60T124 505 95 354t29-151.5 79-104T321.5 39 468 20h64v668h-64zM463 0q-83 0-154 20.5t-124 64T102 195 72 354t30 158.5 83 110T309 687t154 21h443v-20H553V377h331v-20H553V20h369V0H463z"/><glyph glyph-name="oe" unicode="œ" horiz-adv-x="1012" d="M530 316q22 72 77.5 115T737 474q54 0 94-19t66.5-50 39.5-70.5 13-80.5v-19H541q0-42 12.5-83t38-73.5 64-52.5T747 6q54 0 96 21.5T916 90l16-14q-34-44-79.5-67T747-14q-80 0-137 44t-79 118q-23-74-83.5-118T302-14q-53 0-97 18t-76 50.5T79.5 132 62 231t17.5 98.5T129 406t76 50 97 18q83 0 144-43t84-115zm399-62q-1 45-15.5 82T874 399.5t-60 41-78 14.5q-52 0-89-21.5t-60-53-34-66-11-60.5h387zm-409-23q0 46-15 87t-43.5 71.5-68.5 48-91 17.5-91-17.5-68.5-48T99 318t-15-87q0-47 15-88t43.5-71.5T211 23t91-18 91 18 68.5 48.5T505 143t15 88z"/><glyph glyph-name="Racute" unicode="Ŕ" horiz-adv-x="594" d="M508 0 294 357H128V0h-22v708h196q39 0 79-7t71.5-26.5T504 621t20-88q0-50-19-83t-49-53.5-66.5-29.5-71.5-9L533 0h-25zm-6 533q0 46-18 76.5t-47.5 48-68 24.5-78.5 7H128V376h173q98 0 149.5 41T502 533zM258 764h-19l103 144h27z"/><glyph glyph-name="racute" unicode="ŕ" horiz-adv-x="317" d="M128 339q20 72 64 103.5t95 31.5h9l9-1v-19q-4 1-7.5 1H292q-44 0-75-19.5t-51-51-29.5-70T127 238V0h-22v344q0 11-.5 27t-1 32.5T102 435t-2 25h22q1-10 1.5-25t1-32.5 1-34 .5-29.5h2zm16 225h-19l103 144h27z"/><glyph glyph-name="Rcommaaccent" unicode="Ŗ" horiz-adv-x="594" d="M508 0 294 357H128V0h-22v708h196q39 0 79-7t71.5-26.5T504 621t20-88q0-50-19-83t-49-53.5-66.5-29.5-71.5-9L533 0h-25zm-6 533q0 46-18 76.5t-47.5 48-68 24.5-78.5 7H128V376h173q98 0 149.5 41T502 533zM264-230h-17l51 185h24z"/><glyph glyph-name="rcommaaccent" unicode="ŗ" horiz-adv-x="317" d="M128 339q20 72 64 103.5t95 31.5h9l9-1v-19q-4 1-7.5 1H292q-44 0-75-19.5t-51-51-29.5-70T127 238V0h-22v344q0 11-.5 27t-1 32.5T102 435t-2 25h22q1-10 1.5-25t1-32.5 1-34 .5-29.5h2zM85-231H68l51 185h24z"/><glyph glyph-name="Rcaron" unicode="Ř" horiz-adv-x="594" d="M508 0 294 357H128V0h-22v708h196q39 0 79-7t71.5-26.5T504 621t20-88q0-50-19-83t-49-53.5-66.5-29.5-71.5-9L533 0h-25zm-6 533q0 46-18 76.5t-47.5 48-68 24.5-78.5 7H128V376h173q98 0 149.5 41T502 533zM255 764 152 908h23l94-132 94 132h23L283 764h-28z"/><glyph glyph-name="rcaron" unicode="ř" horiz-adv-x="317" d="M128 339q20 72 64 103.5t95 31.5h9l9-1v-19q-4 1-7.5 1H292q-44 0-75-19.5t-51-51-29.5-70T127 238V0h-22v344q0 11-.5 27t-1 32.5T102 435t-2 25h22q1-10 1.5-25t1-32.5 1-34 .5-29.5h2zm52 225L77 708h23l94-132 94 132h23L208 564h-28z"/><glyph glyph-name="Sacute" unicode="Ś" horiz-adv-x="570" d="M498 170q0-45-17.5-80.5t-46.5-60-68.5-37T283-20q-66 0-120.5 23.5T72 67l17 15q38-41 88.5-61.5T282 0q39 0 74 11.5t62 33 42.5 53T476 170t-17 69-44 48-61.5 33.5T284 345q-44 14-80.5 29.5t-63 38-41 54T85 543q0 44 17.5 78.5t47.5 58 69.5 36T303 728q54 0 102.5-20.5T485 649l-17-15q-28 35-71.5 54.5T302 708q-36 0-70.5-10T169 667.5 124 616t-17-73q0-41 15-69.5t40-48.5 56.5-33 64.5-24q45-15 84-30.5t68.5-37.5 46-53.5T498 170zM282 764h-19l103 144h27z"/><glyph glyph-name="sacute" unicode="ś" horiz-adv-x="415" d="M361 120q0-31-12-55.5T316.5 23 269-3t-58-9q-51 0-92.5 19.5T50 65l18 12Q118 7 212 7q22 0 44.5 7t41 21 30 35 11.5 48q0 32-14.5 52T288 202t-48.5 19.5T190 235q-25 7-47 15.5t-38.5 22-26 33.5-9.5 50 12 52 32 36.5 45.5 22T210 474q94 0 141-67l-19-11q-23 30-52 44.5T210 455q-19 0-40-5t-38.5-16.5-29-30.5T91 357q0-30 9.5-48t26.5-29 41-18.5 53-14.5q27-7 52.5-16.5t45-23.5 31-35 11.5-52zM197 564h-19l103 144h27z"/><glyph glyph-name="Scircumflex" unicode="Ŝ" horiz-adv-x="570" d="M498 170q0-45-17.5-80.5t-46.5-60-68.5-37T283-20q-66 0-120.5 23.5T72 67l17 15q38-41 88.5-61.5T282 0q39 0 74 11.5t62 33 42.5 53T476 170t-17 69-44 48-61.5 33.5T284 345q-44 14-80.5 29.5t-63 38-41 54T85 543q0 44 17.5 78.5t47.5 58 69.5 36T303 728q54 0 102.5-20.5T485 649l-17-15q-28 35-71.5 54.5T302 708q-36 0-70.5-10T169 667.5 124 616t-17-73q0-41 15-69.5t40-48.5 56.5-33 64.5-24q45-15 84-30.5t68.5-37.5 46-53.5T498 170zM316 908l103-144h-23l-94 132-94-132h-23l103 144h28z"/><glyph glyph-name="scircumflex" unicode="ŝ" horiz-adv-x="415" d="M361 120q0-31-12-55.5T316.5 23 269-3t-58-9q-51 0-92.5 19.5T50 65l18 12Q118 7 212 7q22 0 44.5 7t41 21 30 35 11.5 48q0 32-14.5 52T288 202t-48.5 19.5T190 235q-25 7-47 15.5t-38.5 22-26 33.5-9.5 50 12 52 32 36.5 45.5 22T210 474q94 0 141-67l-19-11q-23 30-52 44.5T210 455q-19 0-40-5t-38.5-16.5-29-30.5T91 357q0-30 9.5-48t26.5-29 41-18.5 53-14.5q27-7 52.5-16.5t45-23.5 31-35 11.5-52zM228 708l103-144h-23l-94 132-94-132H97l103 144h28z"/><glyph glyph-name="Scedilla" unicode="Ş" horiz-adv-x="570" d="M384-146q0-24-11.5-39.5T344-210t-36.5-12.5T272-226q-19 0-43.5 5T182-206l5 17q19-10 43.5-14t42.5-4q15 0 30.5 2.5t29 9 22 18.5 8.5 31q0 16-7 26t-17.5 15.5-23 7.5-24.5 2q-14 0-35.5-4T222-110l-10 9 55 82q-61 3-111 25.5T72 67l17 15q38-41 88.5-61.5T282 0q39 0 74 11.5t62 33 42.5 53T476 170t-17 69-44 48-61.5 33.5T284 345q-44 14-80.5 29.5t-63 38-41 54T85 543q0 44 17.5 78.5t47.5 58 69.5 36T303 728q54 0 102.5-20.5T485 649l-17-15q-28 35-71.5 54.5T302 708q-36 0-70.5-10T169 667.5 124 616t-17-73q0-41 15-69.5t40-48.5 56.5-33 64.5-24q45-15 84-30.5t68.5-37.5 46-53.5T498 170t-17-80-45.5-59T369-6t-81-14l-45-66q14 5 27 6.5t27 1.5q15 0 30.5-3.5t28-11 20.5-21 8-32.5z"/><glyph glyph-name="scedilla" unicode="ş" horiz-adv-x="415" d="M310-146q0-24-11.5-39.5T270-210t-36.5-12.5T198-226q-19 0-43.5 5T108-206l5 17q19-10 43.5-14t42.5-4q15 0 30.5 2.5t29 9 22 18.5 8.5 31q0 16-7 26t-17.5 15.5-23 7.5-24.5 2q-14 0-35.5-4T148-110l-10 9 60 89q-47 2-84.5 22T50 65l18 12Q118 7 212 7q22 0 44.5 7t41 21 30 35 11.5 48q0 32-14.5 52T288 202t-48.5 19.5T190 235q-25 7-47 15.5t-38.5 22-26 33.5-9.5 50 12 52 32 36.5 45.5 22T210 474q94 0 141-67l-19-11q-23 30-52 44.5T210 455q-19 0-40-5t-38.5-16.5-29-30.5T91 357q0-30 9.5-48t26.5-29 41-18.5 53-14.5q27-7 52.5-16.5t45-23.5 31-35 11.5-52q0-30-11-53.5T319.5 26 274-1t-55-11l-50-74q14 5 27 6.5t27 1.5q15 0 30.5-3.5t28-11 20.5-21 8-32.5z"/><glyph glyph-name="Scaron" unicode="Š" horiz-adv-x="570" d="M498 170q0-45-17.5-80.5t-46.5-60-68.5-37T283-20q-66 0-120.5 23.5T72 67l17 15q38-41 88.5-61.5T282 0q39 0 74 11.5t62 33 42.5 53T476 170t-17 69-44 48-61.5 33.5T284 345q-44 14-80.5 29.5t-63 38-41 54T85 543q0 44 17.5 78.5t47.5 58 69.5 36T303 728q54 0 102.5-20.5T485 649l-17-15q-28 35-71.5 54.5T302 708q-36 0-70.5-10T169 667.5 124 616t-17-73q0-41 15-69.5t40-48.5 56.5-33 64.5-24q45-15 84-30.5t68.5-37.5 46-53.5T498 170zM285 764 182 908h23l94-132 94 132h23L313 764h-28z"/><glyph glyph-name="scaron" unicode="š" horiz-adv-x="415" d="M361 120q0-31-12-55.5T316.5 23 269-3t-58-9q-51 0-92.5 19.5T50 65l18 12Q118 7 212 7q22 0 44.5 7t41 21 30 35 11.5 48q0 32-14.5 52T288 202t-48.5 19.5T190 235q-25 7-47 15.5t-38.5 22-26 33.5-9.5 50 12 52 32 36.5 45.5 22T210 474q94 0 141-67l-19-11q-23 30-52 44.5T210 455q-19 0-40-5t-38.5-16.5-29-30.5T91 357q0-30 9.5-48t26.5-29 41-18.5 53-14.5q27-7 52.5-16.5t45-23.5 31-35 11.5-52zM200 564 97 708h23l94-132 94 132h23L228 564h-28z"/><glyph glyph-name="Tcommaaccent" unicode="Ţ" horiz-adv-x="540" d="M281 688V0h-22v688H18v20h504v-20H281zm81-834q0-24-11.5-39.5T322-210t-36.5-12.5T250-226q-19 0-43.5 5T160-206l5 17q19-10 43.5-14t42.5-4q15 0 30.5 2.5t29 9 22 18.5 8.5 31q0 16-7 26t-17.5 15.5-23 7.5-24.5 2q-14 0-35.5-4T200-110l-10 9L259 0h21l-59-86q14 5 27 6.5t27 1.5q15 0 30.5-3.5t28-11 20.5-21 8-32.5z"/><glyph glyph-name="tcommaaccent" unicode="ţ" horiz-adv-x="304" d="M280-1q-12-5-28-8t-31-3q-54 0-77.5 30.5T120 95v346H20v19h99v135h23V460h135v-19H142V95q0-47 23-67.5T226 7q28 0 51 9zm26-145q0-24-11.5-39.5T266-210t-36.5-12.5T194-226q-19 0-43.5 5T104-206l5 17q19-10 43.5-14t42.5-4q15 0 30.5 2.5t29 9 22 18.5 8.5 31q0 16-7 26t-17.5 15.5-23 7.5-24.5 2q-14 0-35.5-4T144-110l-10 9L203 0h21l-59-86q14 5 27 6.5t27 1.5q15 0 30.5-3.5t28-11 20.5-21 8-32.5z"/><glyph glyph-name="Tcaron" unicode="Ť" horiz-adv-x="540" d="M281 688V0h-22v688H18v20h504v-20H281zm-25 76L153 908h23l94-132 94 132h23L284 764h-28z"/><glyph glyph-name="tcaron" unicode="ť" horiz-adv-x="304" d="M280-1q-12-5-28-8t-31-3q-54 0-77.5 30.5T120 95v346H20v19h99v135h23V460h135v-19H142V95q0-47 23-67.5T226 7q28 0 51 9zm-33 547h-17l51 185h24z"/><glyph glyph-name="Tbar" unicode="Ŧ" horiz-adv-x="540" d="M281 527V0h-22v527H60v18h199v143H18v20h504v-20H281V545h199v-18H281z"/><glyph glyph-name="tbar" unicode="ŧ" horiz-adv-x="304" d="M142 259V95q0-47 23-67.5T226 7q28 0 51 9l3-17q-12-5-28-8t-31-3q-54 0-77.5 30.5T120 95v164H28v18h92v164H20v19h99v135h23V460h135v-19H142V277h120v-18H142z"/><glyph glyph-name="Utilde" unicode="Ũ" horiz-adv-x="732" d="M636 268q0-60-14-112.5T576 64 492.5 2.5 366-20 239.5 2.5 156 64t-46 91.5T96 268v440h22V272q0-42 8.5-89.5t35-88 75-67.5T366 0q79 0 127.5 26T569 92.5t36 88 9 91.5v436h22V268zM370 838q13-8 22-13t15.5-7.5 11-3 10.5-.5q33 0 40 48h16q-4-36-20-51.5T429 795q-16 0-28.5 5T365 819q-26 16-37 20t-22 4q-32 0-40-51h-16q4 36 20 53t36 17q16 0 29-5t35-19z"/><glyph glyph-name="utilde" unicode="ũ" horiz-adv-x="572" d="M442 121q-11-32-29.5-57.5T370 21 318-5t-58-9q-48 0-80 17t-51 45-27 63-8 71v278h22V184q0-29 6-60.5T144.5 66t44-43.5T260 5q38 0 71.5 15.5t58 44.5 39 70.5T443 230v230h22V116q0-11 .5-27t1-32.5T468 25t2-25h-22q-1 10-1.5 25t-1 32.5-1 34-.5 29.5h-2zM285 638q13-8 22-13t15.5-7.5 11-3 10.5-.5q33 0 40 48h16q-4-36-20-51.5T344 595q-16 0-28.5 5T280 619q-26 16-37 20t-22 4q-32 0-40-51h-16q4 36 20 53t36 17q16 0 29-5t35-19z"/><glyph glyph-name="Umacron" unicode="Ū" horiz-adv-x="732" d="M636 268q0-60-14-112.5T576 64 492.5 2.5 366-20 239.5 2.5 156 64t-46 91.5T96 268v440h22V272q0-42 8.5-89.5t35-88 75-67.5T366 0q79 0 127.5 26T569 92.5t36 88 9 91.5v436h22V268zM251 821v20h232v-20H251z"/><glyph glyph-name="umacron" unicode="ū" horiz-adv-x="572" d="M442 121q-11-32-29.5-57.5T370 21 318-5t-58-9q-48 0-80 17t-51 45-27 63-8 71v278h22V184q0-29 6-60.5T144.5 66t44-43.5T260 5q38 0 71.5 15.5t58 44.5 39 70.5T443 230v230h22V116q0-11 .5-27t1-32.5T468 25t2-25h-22q-1 10-1.5 25t-1 32.5-1 34-.5 29.5h-2zM165 621v20h232v-20H165z"/><glyph glyph-name="Ubreve" unicode="Ŭ" horiz-adv-x="732" d="M636 268q0-60-14-112.5T576 64 492.5 2.5 366-20 239.5 2.5 156 64t-46 91.5T96 268v440h22V272q0-42 8.5-89.5t35-88 75-67.5T366 0q79 0 127.5 26T569 92.5t36 88 9 91.5v436h22V268zM493 898q-10-61-43.5-93.5T366 772q-49 0-82.5 32.5T242 898h19q10-52 38-79t67-27q45 0 71 25t38 81h18z"/><glyph glyph-name="ubreve" unicode="ŭ" horiz-adv-x="572" d="M442 121q-11-32-29.5-57.5T370 21 318-5t-58-9q-48 0-80 17t-51 45-27 63-8 71v278h22V184q0-29 6-60.5T144.5 66t44-43.5T260 5q38 0 71.5 15.5t58 44.5 39 70.5T443 230v230h22V116q0-11 .5-27t1-32.5T468 25t2-25h-22q-1 10-1.5 25t-1 32.5-1 34-.5 29.5h-2zm-36 577q-10-61-43.5-93.5T279 572q-49 0-82.5 32.5T155 698h19q10-52 38-79t67-27q45 0 71 25t38 81h18z"/><glyph glyph-name="Uring" unicode="Ů" horiz-adv-x="732" d="M636 268q0-60-14-112.5T576 64 492.5 2.5 366-20 239.5 2.5 156 64t-46 91.5T96 268v440h22V272q0-42 8.5-89.5t35-88 75-67.5T366 0q79 0 127.5 26T569 92.5t36 88 9 91.5v436h22V268zM464 850q0-20-7.5-37.5t-21-30.5-31-20-36.5-7q-20 0-37 7t-30.5 20-21 30.5T272 850t7.5 37.5 21 30 30.5 20 37 7.5q19 0 36.5-7.5t31-20 21-30T464 850zm-19 0q0 32-22.5 55T368 928t-54.5-23-22.5-55 22.5-55 54.5-23 54.5 23 22.5 55z"/><glyph glyph-name="uring" unicode="ů" horiz-adv-x="572" d="M442 121q-11-32-29.5-57.5T370 21 318-5t-58-9q-48 0-80 17t-51 45-27 63-8 71v278h22V184q0-29 6-60.5T144.5 66t44-43.5T260 5q38 0 71.5 15.5t58 44.5 39 70.5T443 230v230h22V116q0-11 .5-27t1-32.5T468 25t2-25h-22q-1 10-1.5 25t-1 32.5-1 34-.5 29.5h-2zm-65 529q0-20-7.5-37.5t-21-30.5-31-20-36.5-7q-20 0-37 7t-30.5 20-21 30.5T185 650t7.5 37.5 21 30 30.5 20 37 7.5q19 0 36.5-7.5t31-20 21-30T377 650zm-19 0q0 32-22.5 55T281 728t-54.5-23-22.5-55 22.5-55 54.5-23 54.5 23 22.5 55z"/><glyph glyph-name="Uhungarumlaut" unicode="Ű" horiz-adv-x="732" d="M636 268q0-60-14-112.5T576 64 492.5 2.5 366-20 239.5 2.5 156 64t-46 91.5T96 268v440h22V272q0-42 8.5-89.5t35-88 75-67.5T366 0q79 0 127.5 26T569 92.5t36 88 9 91.5v436h22V268zM313 763h-19l103 145h27zm117 0h-19l103 145h27z"/><glyph glyph-name="uhungarumlaut" unicode="ű" horiz-adv-x="572" d="M442 121q-11-32-29.5-57.5T370 21 318-5t-58-9q-48 0-80 17t-51 45-27 63-8 71v278h22V184q0-29 6-60.5T144.5 66t44-43.5T260 5q38 0 71.5 15.5t58 44.5 39 70.5T443 230v230h22V116q0-11 .5-27t1-32.5T468 25t2-25h-22q-1 10-1.5 25t-1 32.5-1 34-.5 29.5h-2zM227 563h-19l103 145h27zm117 0h-19l103 145h27z"/><glyph glyph-name="Uogonek" unicode="Ų" horiz-adv-x="732" d="M479-192q-16-14-37.5-22.5T397-223q-35 0-59.5 21T313-143q0 34 21.5 64.5T385-19q-5-1-9.5-1H366q-75 0-126.5 22.5T156 64t-46 91.5T96 268v440h22V272q0-42 8.5-89.5t35-88 75-67.5T366 0q79 0 127.5 26T569 92.5t36 88 9 91.5v436h22V268q0-55-12-104t-38.5-87T516 14 411-17q-38-38-57-65.5T335-141q0-30 18-47t47-17q20 0 38.5 8t30.5 21z"/><glyph glyph-name="uogonek" unicode="ų" horiz-adv-x="572" d="M521-192q-16-14-37.5-22.5T439-223q-35 0-59.5 21T355-143q0 39 28 73.5T447 0h1q-1 10-1.5 25t-1 32.5-1 34-.5 29.5h-2q-11-32-29.5-57.5T370 21 318-5t-58-9q-48 0-80 17t-51 45-27 63-8 71v278h22V184q0-29 6-60.5T144.5 66t44-43.5T260 5q38 0 71.5 15.5t58 44.5 39 70.5T443 230v230h22V116q0-11 .5-27t1-32.5T468 25t2-25q-46-46-69.5-76.5T377-141q0-30 18-47t47-17q20 0 38.5 8t30.5 21z"/><glyph glyph-name="Wcircumflex" unicode="Ŵ" horiz-adv-x="956" d="M716 0h-34L477 687h-2L274 0h-34L28 708h23L255 20h3l201 688h34L698 20h3l204 688h23zM490 908l103-144h-23l-94 132-94-132h-23l103 144h28z"/><glyph glyph-name="wcircumflex" unicode="ŵ" horiz-adv-x="698" d="M529 0h-30L349 436h-2L198 0h-30L34 460h23L183 22h2l148 438h31L513 22h2l126 438h23zM362 708l103-144h-23l-94 132-94-132h-23l103 144h28z"/><glyph glyph-name="Ycircumflex" unicode="Ŷ" horiz-adv-x="538" d="M280 310V0h-22v310L15 708h26l229-376 228 376h25zm4 598 103-144h-23l-94 132-94-132h-23l103 144h28z"/><glyph glyph-name="ycircumflex" unicode="ŷ" horiz-adv-x="428" d="M176-152q-16-43-42.5-66.5T65-242q-9 0-21 2t-20 5l6 19q6-2 16.5-4t20.5-2q21 0 36.5 8t26.5 20.5 18.5 28.5 13.5 32l44 120L24 460h24L217 12l163 448h24zm56 860 103-144h-23l-94 132-94-132h-23l103 144h28z"/><glyph glyph-name="Ydieresis" unicode="Ÿ" horiz-adv-x="538" d="M280 310V0h-22v310L15 708h26l229-376 228 376h25zm-87 523q-9 0-16 7t-7 19q0 11 7 18t16 7 16-7 7-18q0-12-7.5-19t-15.5-7zm154 0q-9 0-16 7t-7 19q0 11 7 18t16 7 16-7 7-18q0-12-7.5-19t-15.5-7z"/><glyph glyph-name="Zacute" unicode="Ź" horiz-adv-x="594" d="M54 0v27l466 661H67v20h473v-29L75 20h477V0H54zm244 764h-19l103 144h27z"/><glyph glyph-name="zacute" unicode="ź" horiz-adv-x="438" d="M49 0v21l304 420H65v19h310v-22L74 19h313V0H49zm167 564h-19l103 144h27z"/><glyph glyph-name="Zdotaccent" unicode="Ż" horiz-adv-x="594" d="M54 0v27l466 661H67v20h473v-29L75 20h477V0H54zm251 833q-9 0-16 7t-7 19q0 11 7 18t16 7 16-7 7-18q0-12-7.5-19t-15.5-7z"/><glyph glyph-name="zdotaccent" unicode="ż" horiz-adv-x="438" d="M49 0v21l304 420H65v19h310v-22L74 19h313V0H49zm174 633q-9 0-16 7t-7 19q0 11 7 18t16 7 16-7 7-18q0-12-7.5-19t-15.5-7z"/><glyph glyph-name="Zcaron" unicode="Ž" horiz-adv-x="594" d="M54 0v27l466 661H67v20h473v-29L75 20h477V0H54zm235 764L186 908h23l94-132 94 132h23L317 764h-28z"/><glyph glyph-name="zcaron" unicode="ž" horiz-adv-x="438" d="M49 0v21l304 420H65v19h310v-22L74 19h313V0H49zm160 564L106 708h23l94-132 94 132h23L237 564h-28z"/><glyph glyph-name="florin" unicode="ƒ" horiz-adv-x="560" d="M472 683q-10 8-25 13t-29 5q-26 0-44.5-10T343 665t-19-36-11-40l-33-181h118v-19H277L203-20q-5-28-13.5-50.5t-22-39-34-25.5-49.5-9q-16 0-31 2.5T26-131l10 19q24-12 48-12 26 0 43.5 9.5t29 27 18.5 41T187 5l68 384H144v19h114l31 173q5 27 13.5 52t23 44.5 37 31T417 720q43 0 67-19z"/><glyph glyph-name="Ohorn" unicode="Ơ" horiz-adv-x="872" d="M696 639h-9l-9 1q53-47 87.5-118.5T800 354q0-82-27.5-150.5t-76-118T581 8 436-20 291 8 175.5 85.5t-76 118T72 354t27.5 150.5 76 118 115 77.5T436 728q55 0 93.5-11t67.5-23.5 52-23.5 47-11q82 0 82 72 0 14-4 30t-10 28l23 7q13-28 13-65 0-44-27-68t-77-24zM94 354q0-74 24.5-138.5T188 103t108-75.5T436 0t140 27.5T684 103t69.5 112.5T778 354t-25 138.5T682.5 605 574 680.5 436 708t-138-27.5T189.5 605 119 492.5 94 354z"/><glyph glyph-name="ohorn" unicode="ơ" horiz-adv-x="610" d="M495 410h-13.5l-12.5 2q35-32 54.5-78T543 231q0-54-17.5-99T476 54.5 399.5 4 302-14 205 4t-76 50.5T79.5 132 62 231t17.5 98.5T129 406t76 50 97 18q37 0 62.5-7t46.5-15 40.5-15 43.5-7q82 0 82 72 0 14-4 30t-10 28l23 7q13-28 13-65 0-44-27-68t-77-24zm-193 45q-51 0-91-17.5t-68.5-48T99 318t-15-87q0-47 15-88t43.5-71.5T211 23t91-18 91.5 18 69 48.5T506 143t15 88q0 46-15 87t-43.5 71.5-69 48T302 455z"/><glyph glyph-name="Uhorn" unicode="Ư" horiz-adv-x="732" d="M636 268q0-60-14-112.5T576 64 492.5 2.5 366-20 239.5 2.5 156 64t-46 91.5T96 268v440h22V272q0-42 8.5-89.5t35-88 75-67.5T366 0q79 0 127.5 26T569 92.5t36 88 9 91.5v436h22q82 0 82 72 0 14-4 30t-10 28l23 7q13-28 13-65 0-44-27-68t-77-24V268z"/><glyph glyph-name="uhorn" unicode="ư" horiz-adv-x="577" d="M442 121q-11-32-29.5-57.5T370 21 318-5t-58-9q-48 0-80 17t-51 45-27 63-8 71v278h22V184q0-29 6-60.5T144.5 66t44-43.5T260 5q38 0 71.5 15.5t58 44.5 39 70.5T443 230v230h22q82 0 82 72 0 14-4 30t-10 28l23 7q13-28 13-65 0-44-27-68t-77-24V116q0-11 .5-27t1-32.5T468 25t2-25h-22q-1 10-1.5 25t-1 32.5-1 34-.5 29.5h-2z"/><glyph glyph-name="clickdental" unicode="ǀ" horiz-adv-x="222" d="M122 750V-250h-22V750h22z"/><glyph glyph-name="clicklateral" unicode="ǁ" horiz-adv-x="444" d="M122 750V-250h-22V750h22zm222 0V-250h-22V750h22z"/><glyph glyph-name="clickretroflex" unicode="ǃ" horiz-adv-x="276" d="M138 45q8 0 15.5-7t7.5-19q0-11-7-18t-16-7-16 7-7 18q0 12 7 19t16 7zm11 150h-22v513h22V195z"/><glyph glyph-name="DZcaron" unicode="Ǆ" horiz-adv-x="1604" d="M698 354q0-92-30-158.5t-83-110T460.5 21 307 0H106v708h201q82 0 153.5-20.5t124.5-64T668 513t30-159zM129 688V20h173q78 0 146.5 19.5t118.5 60T646 203t29 151-29 151.5-79 104T448.5 669 302 688H129zM824 0v27l466 661H837v20h473v-29L845 20h477V0H824zm235 783L956 927h23l94-132 94 132h23l-103-144h-28z"/><glyph glyph-name="Dzcaron" unicode="ǅ" horiz-adv-x="1448" d="M698 354q0-92-30-158.5t-83-110T460.5 21 307 0H106v708h201q82 0 153.5-20.5t124.5-64T668 513t30-159zM129 688V20h173q78 0 146.5 19.5t118.5 60T646 203t29 151-29 151.5-79 104T448.5 669 302 688H129zM819 0v21l304 420H835v19h310v-22L844 19h313V0H819zm155 535L871 679h23l94-132 94 132h23l-103-144h-28z"/><glyph glyph-name="dzcaron" unicode="ǆ" horiz-adv-x="1304" d="M502 756h22V0h-22v124h-3q-30-68-85.5-103T292-14q-50 0-92.5 18.5t-73 51-47.5 77T62 229t17 97 47.5 78 73 51.5T292 474q66 0 121.5-35T499 335h3v421zM84 229q0-45 14.5-86T140 71.5 205.5 23 292 5q46 0 84.5 18T443 71.5t44 71.5 16 87-16 87-44 71.5-66.5 48.5-84.5 18q-48 0-86.5-18.5T140 387t-41.5-72T84 229zM675 0v21l304 420H691v19h310v-22L700 19h313V0H675zm155 535L727 679h23l94-132 94 132h23L858 535h-28z"/><glyph glyph-name="LJ" unicode="Ǉ" horiz-adv-x="978" d="M106 0v708h22V20h352V0H106zm770 193q0-98-45.5-154.5T695-18q-63 0-107 32.5T527 93l19 9q20-45 59-72.5T695 2q43 0 73 14.5T817 57t28 61.5 9 77.5v512h22V193z"/><glyph glyph-name="Lj" unicode="ǈ" horiz-adv-x="724" d="M106 0v708h22V20h352V0H106zm516-97q0-35-4.5-62t-17-45-34.5-27.5-56-9.5q-7 0-15 .5t-14 2.5l4 19q13-3 25-3 32 0 50 11t27 28.5 11 39.5 2 44v559h22V-97zm-11 730q-9 0-16 7t-7 19q0 11 7 18t16 7 16-7 7-18q0-12-7.5-19t-15.5-7z"/><glyph glyph-name="lj" unicode="ǉ" horiz-adv-x="452" d="M102 0v756h22V0h-22zm248-97q0-35-4.5-62t-17-45-34.5-27.5-56-9.5q-7 0-15 .5t-14 2.5l4 19q13-3 25-3 32 0 50 11t27 28.5 11 39.5 2 44v559h22V-97zm-11 730q-9 0-16 7t-7 19q0 11 7 18t16 7 16-7 7-18q0-12-7.5-19t-15.5-7z"/><glyph glyph-name="NJ" unicode="Ǌ" horiz-adv-x="1257" d="M639 0 131 680h-3V0h-22v708h31L646 29h3v679h22V0h-32zm516 193q0-98-45.5-154.5T974-18q-63 0-107 32.5T806 93l19 9q20-45 59-72.5T974 2q43 0 73 14.5t49 40.5 28 61.5 9 77.5v512h22V193z"/><glyph glyph-name="Nj" unicode="ǋ" horiz-adv-x="1003" d="M639 0 131 680h-3V0h-22v708h31L646 29h3v679h22V0h-32zm262-97q0-35-4.5-62t-17-45-34.5-27.5-56-9.5q-7 0-15 .5t-14 2.5l4 19q13-3 25-3 32 0 50 11t27 28.5 11 39.5 2 44v559h22V-97zm-11 730q-9 0-16 7t-7 19q0 11 7 18t16 7 16-7 7-18q0-12-7.5-19t-15.5-7z"/><glyph glyph-name="nj" unicode="ǌ" horiz-adv-x="798" d="M128 339q10 32 29 57t43 42.5 52 26.5 58 9q48 0 80-17t51-45 27-63 8-71V0h-22v276q0 28-6 60t-22.5 58-44.5 43.5-71 17.5q-38 0-71.5-15.5t-58-44.5-39-70.5T127 230V0h-22v344q0 11-.5 27t-1 32.5T102 435t-2 25h22q1-10 1.5-25t1-32.5 1-34 .5-29.5h2zM696-97q0-35-4.5-62t-17-45-34.5-27.5-56-9.5q-7 0-15 .5t-14 2.5l4 19q13-3 25-3 32 0 50 11t27 28.5 11 39.5 2 44v559h22V-97zm-11 730q-9 0-16 7t-7 19q0 11 7 18t16 7 16-7 7-18q0-12-7.5-19t-15.5-7z"/><glyph glyph-name="Acaron" unicode="Ǎ" d="m624 0-84 203H129L42 0H18l307 708h28L648 0h-24zM338 694 137 222h396zm-19 89L216 927h23l94-132 94 132h23L347 783h-28z"/><glyph glyph-name="acaron" unicode="ǎ" horiz-adv-x="512" d="M418 104q0-26 2.5-55.5T426 0h-21q-2 10-3 24.5t-2.5 30-2 30.5-.5 25h-3q-20-63-69-93.5T220-14q-28 0-55.5 8T115 18 79.5 59 66 118q0 49 25.5 79t63.5 46.5 81.5 21.5 79.5 5h80v37q0 77-41 112.5T248 455q-41 0-76.5-15T108 400l-12 17q32 28 72.5 42.5T248 474q79 0 124.5-40.5T418 306V104zm-22 147h-71q-38 0-80-4.5T168 228t-57.5-40T88 118q0-32 12.5-53.5t32-34.5 43-19T220 5q51 0 85 19t54.5 48.5 28.5 65 8 69.5v44zM232 549 129 693h23l94-132 94 132h23L260 549h-28z"/><glyph glyph-name="Icaron" unicode="Ǐ" horiz-adv-x="234" d="M106 0v708h22V0h-22zm-3 783L0 927h23l94-132 94 132h23L131 783h-28z"/><glyph glyph-name="icaron" unicode="ǐ" horiz-adv-x="226" d="M102 0v460h22V0h-22zm-3 535L-4 679h23l94-132 94 132h23L127 535H99z"/><glyph glyph-name="Ocaron" unicode="Ǒ" horiz-adv-x="872" d="M800 354q0-82-27.5-150.5t-76-118T581 8 436-20 291 8 175.5 85.5t-76 118T72 354t27.5 150.5 76 118 115 77.5T436 728t145.5-28 115-77.5 76-118T800 354zm-22 0q0 74-25 138.5T682.5 605 574 680.5 436 708t-138-27.5T189.5 605 119 492.5 94 354t24.5-138.5T188 103t108-75.5T436 0t140 27.5T684 103t69.5 112.5T778 354zM422 803 319 947h23l94-132 94 132h23L450 803h-28z"/><glyph glyph-name="ocaron" unicode="ǒ" horiz-adv-x="605" d="M543 231q0-54-17.5-99T476 54.5 399.5 4 302-14 205 4t-76 50.5T79.5 132 62 231t17.5 98.5T129 406t76 50 97 18 97.5-18 76.5-50 49.5-76.5T543 231zm-22 0q0 46-15 87t-43.5 71.5-69 48T302 455t-91-17.5-68.5-48T99 318t-15-87q0-47 15-88t43.5-71.5T211 23t91-18 91.5 18 69 48.5T506 143t15 88zM288 549 185 693h23l94-132 94 132h23L316 549h-28z"/><glyph glyph-name="Ucaron" unicode="Ǔ" horiz-adv-x="732" d="M636 268q0-60-14-112.5T576 64 492.5 2.5 366-20 239.5 2.5 156 64t-46 91.5T96 268v440h22V272q0-42 8.5-89.5t35-88 75-67.5T366 0q79 0 127.5 26T569 92.5t36 88 9 91.5v436h22V268zM352 783 249 927h23l94-132 94 132h23L380 783h-28z"/><glyph glyph-name="ucaron" unicode="ǔ" horiz-adv-x="572" d="M442 121q-11-32-29.5-57.5T370 21 318-5t-58-9q-48 0-80 17t-51 45-27 63-8 71v278h22V184q0-29 6-60.5T144.5 66t44-43.5T260 5q38 0 71.5 15.5t58 44.5 39 70.5T443 230v230h22V116q0-11 .5-27t1-32.5T468 25t2-25h-22q-1 10-1.5 25t-1 32.5-1 34-.5 29.5h-2zM268 535 165 679h23l94-132 94 132h23L296 535h-28z"/><glyph glyph-name="Udieresismacron" unicode="Ǖ" horiz-adv-x="732" d="M636 268q0-60-14-112.5T576 64 492.5 2.5 366-20 239.5 2.5 156 64t-46 91.5T96 268v440h22V272q0-42 8.5-89.5t35-88 75-67.5T366 0q79 0 127.5 26T569 92.5t36 88 9 91.5v436h22V268zM289 783q-9 0-16 7t-7 19q0 11 7 18t16 7 16-7 7-18q0-12-7.5-19t-15.5-7zm154 0q-9 0-16 7t-7 19q0 11 7 18t16 7 16-7 7-18q0-12-7.5-19t-15.5-7zM250 909v20h232v-20H250z"/><glyph glyph-name="udieresismacron" unicode="ǖ" horiz-adv-x="572" d="M442 121q-11-32-29.5-57.5T370 21 318-5t-58-9q-48 0-80 17t-51 45-27 63-8 71v278h22V184q0-29 6-60.5T144.5 66t44-43.5T260 5q38 0 71.5 15.5t58 44.5 39 70.5T443 230v230h22V116q0-11 .5-27t1-32.5T468 25t2-25h-22q-1 10-1.5 25t-1 32.5-1 34-.5 29.5h-2zM205 535q-9 0-16 7t-7 19q0 11 7 18t16 7 16-7 7-18q0-12-7.5-19t-15.5-7zm154 0q-9 0-16 7t-7 19q0 11 7 18t16 7 16-7 7-18q0-12-7.5-19t-15.5-7zM166 661v20h232v-20H166z"/><glyph glyph-name="Udieresisacute" unicode="Ǘ" horiz-adv-x="732" d="M636 268q0-60-14-112.5T576 64 492.5 2.5 366-20 239.5 2.5 156 64t-46 91.5T96 268v440h22V272q0-42 8.5-89.5t35-88 75-67.5T366 0q79 0 127.5 26T569 92.5t36 88 9 91.5v436h22V268zM289 783q-9 0-16 7t-7 19q0 11 7 18t16 7 16-7 7-18q0-12-7.5-19t-15.5-7zm154 0q-9 0-16 7t-7 19q0 11 7 18t16 7 16-7 7-18q0-12-7.5-19t-15.5-7zM320 909h-19l103 144h27z"/><glyph glyph-name="udieresisacute" unicode="ǘ" horiz-adv-x="572" d="M442 121q-11-32-29.5-57.5T370 21 318-5t-58-9q-48 0-80 17t-51 45-27 63-8 71v278h22V184q0-29 6-60.5T144.5 66t44-43.5T260 5q38 0 71.5 15.5t58 44.5 39 70.5T443 230v230h22V116q0-11 .5-27t1-32.5T468 25t2-25h-22q-1 10-1.5 25t-1 32.5-1 34-.5 29.5h-2zM205 535q-9 0-16 7t-7 19q0 11 7 18t16 7 16-7 7-18q0-12-7.5-19t-15.5-7zm154 0q-9 0-16 7t-7 19q0 11 7 18t16 7 16-7 7-18q0-12-7.5-19t-15.5-7zM236 661h-19l103 144h27z"/><glyph glyph-name="Udieresiscaron" unicode="Ǚ" horiz-adv-x="732" d="M636 268q0-60-14-112.5T576 64 492.5 2.5 366-20 239.5 2.5 156 64t-46 91.5T96 268v440h22V272q0-42 8.5-89.5t35-88 75-67.5T366 0q79 0 127.5 26T569 92.5t36 88 9 91.5v436h22V268zM289 783q-9 0-16 7t-7 19q0 11 7 18t16 7 16-7 7-18q0-12-7.5-19t-15.5-7zm154 0q-9 0-16 7t-7 19q0 11 7 18t16 7 16-7 7-18q0-12-7.5-19t-15.5-7zm-91 126-103 144h23l94-132 94 132h23L380 909h-28z"/><glyph glyph-name="udieresiscaron" unicode="ǚ" horiz-adv-x="572" d="M442 121q-11-32-29.5-57.5T370 21 318-5t-58-9q-48 0-80 17t-51 45-27 63-8 71v278h22V184q0-29 6-60.5T144.5 66t44-43.5T260 5q38 0 71.5 15.5t58 44.5 39 70.5T443 230v230h22V116q0-11 .5-27t1-32.5T468 25t2-25h-22q-1 10-1.5 25t-1 32.5-1 34-.5 29.5h-2zM205 535q-9 0-16 7t-7 19q0 11 7 18t16 7 16-7 7-18q0-12-7.5-19t-15.5-7zm154 0q-9 0-16 7t-7 19q0 11 7 18t16 7 16-7 7-18q0-12-7.5-19t-15.5-7zm-91 126L165 805h23l94-132 94 132h23L296 661h-28z"/><glyph glyph-name="Udieresisgrave" unicode="Ǜ" horiz-adv-x="732" d="M636 268q0-60-14-112.5T576 64 492.5 2.5 366-20 239.5 2.5 156 64t-46 91.5T96 268v440h22V272q0-42 8.5-89.5t35-88 75-67.5T366 0q79 0 127.5 26T569 92.5t36 88 9 91.5v436h22V268zM289 783q-9 0-16 7t-7 19q0 11 7 18t16 7 16-7 7-18q0-12-7.5-19t-15.5-7zm154 0q-9 0-16 7t-7 19q0 11 7 18t16 7 16-7 7-18q0-12-7.5-19t-15.5-7zm-115 270 103-144h-19l-111 144h27z"/><glyph glyph-name="udieresisgrave" unicode="ǜ" horiz-adv-x="572" d="M442 121q-11-32-29.5-57.5T370 21 318-5t-58-9q-48 0-80 17t-51 45-27 63-8 71v278h22V184q0-29 6-60.5T144.5 66t44-43.5T260 5q38 0 71.5 15.5t58 44.5 39 70.5T443 230v230h22V116q0-11 .5-27t1-32.5T468 25t2-25h-22q-1 10-1.5 25t-1 32.5-1 34-.5 29.5h-2zM205 535q-9 0-16 7t-7 19q0 11 7 18t16 7 16-7 7-18q0-12-7.5-19t-15.5-7zm154 0q-9 0-16 7t-7 19q0 11 7 18t16 7 16-7 7-18q0-12-7.5-19t-15.5-7zM244 805l103-144h-19L217 805h27z"/><glyph glyph-name="Adieresismacron" unicode="Ǟ" d="m624 0-84 203H129L42 0H18l307 708h28L648 0h-24zM338 694 137 222h396zm-82 89q-9 0-16 7t-7 19q0 11 7 18t16 7 16-7 7-18q0-12-7.5-19t-15.5-7zm154 0q-9 0-16 7t-7 19q0 11 7 18t16 7 16-7 7-18q0-12-7.5-19t-15.5-7zM217 909v20h232v-20H217z"/><glyph glyph-name="adieresismacron" unicode="ǟ" horiz-adv-x="512" d="M418 104q0-26 2.5-55.5T426 0h-21q-2 10-3 24.5t-2.5 30-2 30.5-.5 25h-3q-20-63-69-93.5T220-14q-28 0-55.5 8T115 18 79.5 59 66 118q0 49 25.5 79t63.5 46.5 81.5 21.5 79.5 5h80v37q0 77-41 112.5T248 455q-41 0-76.5-15T108 400l-12 17q32 28 72.5 42.5T248 474q79 0 124.5-40.5T418 306V104zm-22 147h-71q-38 0-80-4.5T168 228t-57.5-40T88 118q0-32 12.5-53.5t32-34.5 43-19T220 5q51 0 85 19t54.5 48.5 28.5 65 8 69.5v44zM169 549q-9 0-16 7t-7 19q0 11 7 18t16 7 16-7 7-18q0-12-7.5-19t-15.5-7zm154 0q-9 0-16 7t-7 19q0 11 7 18t16 7 16-7 7-18q0-12-7.5-19t-15.5-7zM130 675v20h232v-20H130z"/><glyph glyph-name="Adotmacron" unicode="Ǡ" d="m624 0-84 203H129L42 0H18l307 708h28L648 0h-24zM338 694 137 222h396zm-5 89q-9 0-16 7t-7 19q0 11 7 18t16 7 16-7 7-18q0-12-7.5-19t-15.5-7zM217 909v20h232v-20H217z"/><glyph glyph-name="adotmacron" unicode="ǡ" horiz-adv-x="512" d="M418 104q0-26 2.5-55.5T426 0h-21q-2 10-3 24.5t-2.5 30-2 30.5-.5 25h-3q-20-63-69-93.5T220-14q-28 0-55.5 8T115 18 79.5 59 66 118q0 49 25.5 79t63.5 46.5 81.5 21.5 79.5 5h80v37q0 77-41 112.5T248 455q-41 0-76.5-15T108 400l-12 17q32 28 72.5 42.5T248 474q79 0 124.5-40.5T418 306V104zm-22 147h-71q-38 0-80-4.5T168 228t-57.5-40T88 118q0-32 12.5-53.5t32-34.5 43-19T220 5q51 0 85 19t54.5 48.5 28.5 65 8 69.5v44zM246 549q-9 0-16 7t-7 19q0 11 7 18t16 7 16-7 7-18q0-12-7.5-19t-15.5-7zM130 675v20h232v-20H130z"/><glyph glyph-name="AEmacron" unicode="Ǣ" horiz-adv-x="968" d="M491 0v206H167L32 0H6l460 708h429v-20H513V377h358v-20H513V20h399V0H491zm0 688h-13L180 226h311v462zm-148 95v20h232v-20H343z"/><glyph glyph-name="aemacron" unicode="ǣ" horiz-adv-x="879" d="M796 255q-2 45-15.5 81.5t-37 63-57 41T613 455q-50 0-84.5-22.5t-57-54T439 313t-10-58h367zm-370 83q24 61 74 98.5T614 474q51 0 89-19t63.5-50 38-70.5T817 254v-19H428q0-40 11-80.5T474 81t61-53.5T624 7q49 0 90.5 21T785 90l15-13q-32-44-76-67T623-13q-73 0-127 42t-76 114q-4-31-17.5-59.5t-37.5-50T305.5-1 224-14q-29 0-57 7t-50.5 22T80 54t-14 58q0 46 25 74t63.5 43.5T238 250t85 5h84v47q0 75-40 114t-114 39q-42 0-78.5-15T109 400l-12 17q32 28 74 42.5t82 14.5q42 0 73.5-10.5t52.5-29 32.5-43.5 14.5-53zm-19-103h-75q-43 0-86.5-4.5t-78-17.5-56.5-37-22-64q0-32 13-52.5T135 27t43.5-17T224 5q53 0 88 16.5t56 43 30 59.5 9 67v44zm-82 314v20h232v-20H325z"/><glyph glyph-name="Gcaron" unicode="Ǧ" horiz-adv-x="795" d="M699 41Q657 18 593-1T445-20 292 9 174 88.5t-75.5 119T72 356t27 148.5 75.5 118T291 700t150 28q72 0 132-22t106-60l-16-16q-20 19-46.5 33.5t-56 24.5-60.5 15-60 5q-78 0-142-27.5T188.5 605t-70-112T94 356t24-138 69.5-113.5 111-76.5T447 0q72 0 128 15t103 38v278H494v19h205V41zM371 803 268 947h23l94-132 94 132h23L399 803h-28z"/><glyph glyph-name="gcaron" unicode="ǧ" horiz-adv-x="626" d="M502 124h-3q-13-34-35-59.5t-49-43T356.5-5 292-14q-50 0-92.5 18.5t-73 51-47.5 77T62 229t17 97 47.5 78 73 51.5T292 474q66 0 121.5-35T499 335h3v125h22V26q0-55-11.5-105t-38-88-70-60.5T297-250q-65 0-116 22.5T94-164l15 15q38-43 86.5-62.5T297-231q60 0 100 22t63 58 32.5 82.5T502 28v96zM84 229q0-45 14.5-86T140 71t65.5-49T292 4q46 0 84.5 18T443 71t44 72 16 87-16 87-44 71.5-66.5 48.5-84.5 18q-48 0-86.5-18.5T140 387t-41.5-72T84 229zm195 320L176 693h23l94-132 94 132h23L307 549h-28z"/><glyph glyph-name="Kcaron" unicode="Ǩ" horiz-adv-x="565" d="m129 383 356 325h32L157 383 535 0h-31L129 381h-1V0h-22v708h22V383h1zm177 400L203 927h23l94-132 94 132h23L334 783h-28z"/><glyph glyph-name="kcaron" unicode="ǩ" horiz-adv-x="445" d="m125 248 238 212h31L151 247 422 0h-33L125 243h-1V0h-22v756h22V248h1zm123 583L145 975h23l94-132 94 132h23L276 831h-28z"/><glyph glyph-name="Oogonek" unicode="Ǫ" horiz-adv-x="872" d="M800 354q0-82-27.5-150.5t-76-118T581 8 436-20 291 8 175.5 85.5t-76 118T72 354t27.5 150.5 76 118 115 77.5T436 728t145.5-28 115-77.5 76-118T800 354zm-22 0q0 74-25 138.5T682.5 605 574 680.5 436 708t-138-27.5T189.5 605 119 492.5 94 354t24.5-138.5T188 103t108-75.5T436 0t140 27.5T684 103t69.5 112.5T778 354zM519-212q-16-14-37.5-22.5T437-243q-35 0-59.5 21T353-163q0 39 28 73.5T445-20h23q-46-46-69.5-76.5T375-161q0-30 18-47t47-17q20 0 38.5 8t30.5 21z"/><glyph glyph-name="oogonek" unicode="ǫ" horiz-adv-x="605" d="M543 231q0-54-17.5-99T476 54.5 399.5 4 302-14 205 4t-76 50.5T79.5 132 62 231t17.5 98.5T129 406t76 50 97 18 97.5-18 76.5-50 49.5-76.5T543 231zm-22 0q0 46-15 87t-43.5 71.5-69 48T302 455t-91-17.5-68.5-48T99 318t-15-87q0-47 15-88t43.5-71.5T211 23t91-18 91.5 18 69 48.5T506 143t15 88zM385-206q-16-14-37.5-22.5T303-237q-35 0-59.5 21T219-157q0 39 28 73.5T311-14h23q-46-46-69.5-76.5T241-155q0-30 18-47t47-17q20 0 38.5 8t30.5 21z"/><glyph glyph-name="Oogonekmacron" unicode="Ǭ" horiz-adv-x="872" d="M800 354q0-82-27.5-150.5t-76-118T581 8 436-20 291 8 175.5 85.5t-76 118T72 354t27.5 150.5 76 118 115 77.5T436 728t145.5-28 115-77.5 76-118T800 354zm-22 0q0 74-25 138.5T682.5 605 574 680.5 436 708t-138-27.5T189.5 605 119 492.5 94 354t24.5-138.5T188 103t108-75.5T436 0t140 27.5T684 103t69.5 112.5T778 354zM519-212q-16-14-37.5-22.5T437-243q-35 0-59.5 21T353-163q0 39 28 73.5T445-20h23q-46-46-69.5-76.5T375-161q0-30 18-47t47-17q20 0 38.5 8t30.5 21zM320 803v20h232v-20H320z"/><glyph glyph-name="oogonekmacron" unicode="ǭ" horiz-adv-x="605" d="M543 231q0-54-17.5-99T476 54.5 399.5 4 302-14 205 4t-76 50.5T79.5 132 62 231t17.5 98.5T129 406t76 50 97 18 97.5-18 76.5-50 49.5-76.5T543 231zm-22 0q0 46-15 87t-43.5 71.5-69 48T302 455t-91-17.5-68.5-48T99 318t-15-87q0-47 15-88t43.5-71.5T211 23t91-18 91.5 18 69 48.5T506 143t15 88zM385-206q-16-14-37.5-22.5T303-237q-35 0-59.5 21T219-157q0 39 28 73.5T311-14h23q-46-46-69.5-76.5T241-155q0-30 18-47t47-17q20 0 38.5 8t30.5 21zM186 549v20h232v-20H186z"/><glyph glyph-name="DZ" unicode="Ǳ" horiz-adv-x="1364" d="M698 354q0-92-30-158.5t-83-110T460.5 21 307 0H106v708h201q82 0 153.5-20.5t124.5-64T668 513t30-159zM129 688V20h173q78 0 146.5 19.5t118.5 60T646 203t29 151-29 151.5-79 104T448.5 669 302 688H129zM824 0v27l466 661H837v20h473v-29L845 20h477V0H824z"/><glyph glyph-name="Dz" unicode="ǲ" horiz-adv-x="1208" d="M698 354q0-92-30-158.5t-83-110T460.5 21 307 0H106v708h201q82 0 153.5-20.5t124.5-64T668 513t30-159zM129 688V20h173q78 0 146.5 19.5t118.5 60T646 203t29 151-29 151.5-79 104T448.5 669 302 688H129zM819 0v21l304 420H835v19h310v-22L844 19h313V0H819z"/><glyph glyph-name="dz" unicode="ǳ" horiz-adv-x="1064" d="M502 756h22V0h-22v124h-3q-30-68-85.5-103T292-14q-50 0-92.5 18.5t-73 51-47.5 77T62 229t17 97 47.5 78 73 51.5T292 474q66 0 121.5-35T499 335h3v421zM84 229q0-45 14.5-86T140 71.5 205.5 23 292 5q46 0 84.5 18T443 71.5t44 71.5 16 87-16 87-44 71.5-66.5 48.5-84.5 18q-48 0-86.5-18.5T140 387t-41.5-72T84 229zM675 0v21l304 420H691v19h310v-22L700 19h313V0H675z"/><glyph glyph-name="Gacute" unicode="Ǵ" horiz-adv-x="795" d="M699 41Q657 18 593-1T445-20 292 9 174 88.5t-75.5 119T72 356t27 148.5 75.5 118T291 700t150 28q72 0 132-22t106-60l-16-16q-20 19-46.5 33.5t-56 24.5-60.5 15-60 5q-78 0-142-27.5T188.5 605t-70-112T94 356t24-138 69.5-113.5 111-76.5T447 0q72 0 128 15t103 38v278H494v19h205V41zM339 803h-19l103 144h27z"/><glyph glyph-name="gacute" unicode="ǵ" horiz-adv-x="626" d="M502 124h-3q-13-34-35-59.5t-49-43T356.5-5 292-14q-50 0-92.5 18.5t-73 51-47.5 77T62 229t17 97 47.5 78 73 51.5T292 474q66 0 121.5-35T499 335h3v125h22V26q0-55-11.5-105t-38-88-70-60.5T297-250q-65 0-116 22.5T94-164l15 15q38-43 86.5-62.5T297-231q60 0 100 22t63 58 32.5 82.5T502 28v96zM84 229q0-45 14.5-86T140 71t65.5-49T292 4q46 0 84.5 18T443 71t44 72 16 87-16 87-44 71.5-66.5 48.5-84.5 18q-48 0-86.5-18.5T140 387t-41.5-72T84 229zm163 320h-19l103 144h27z"/><glyph glyph-name="Ngrave" unicode="Ǹ" horiz-adv-x="777" d="M639 0 131 680h-3V0h-22v708h31L646 29h3v679h22V0h-32zM350 927l103-144h-19L323 927h27z"/><glyph glyph-name="ngrave" unicode="ǹ" horiz-adv-x="572" d="M128 339q10 32 29 57t43 42.5 52 26.5 58 9q48 0 80-17t51-45 27-63 8-71V0h-22v276q0 28-6 60t-22.5 58-44.5 43.5-71 17.5q-38 0-71.5-15.5t-58-44.5-39-70.5T127 230V0h-22v344q0 11-.5 27t-1 32.5T102 435t-2 25h22q1-10 1.5-25t1-32.5 1-34 .5-29.5h2zm122 354 103-144h-19L223 693h27z"/><glyph glyph-name="Aringacute" unicode="Ǻ" d="m624 0-84 203H129L42 0H18l307 708h28L648 0h-24zM338 694 137 222h396zm91 184q0-20-7.5-37.5t-21-30.5-31-20-36.5-7q-20 0-37 7t-30.5 20-21 30.5T237 878t7.5 37.5 21 30 30.5 20 37 7.5q19 0 36.5-7.5t31-20 21-30T429 878zm-19 0q0 32-22.5 55T333 956t-54.5-23-22.5-55 22.5-55 54.5-23 54.5 23 22.5 55zm-123 170h-19l103 144h27z"/><glyph glyph-name="aringacute" unicode="ǻ" horiz-adv-x="512" d="M418 104q0-26 2.5-55.5T426 0h-21q-2 10-3 24.5t-2.5 30-2 30.5-.5 25h-3q-20-63-69-93.5T220-14q-28 0-55.5 8T115 18 79.5 59 66 118q0 49 25.5 79t63.5 46.5 81.5 21.5 79.5 5h80v37q0 77-41 112.5T248 455q-41 0-76.5-15T108 400l-12 17q32 28 72.5 42.5T248 474q79 0 124.5-40.5T418 306V104zm-22 147h-71q-38 0-80-4.5T168 228t-57.5-40T88 118q0-32 12.5-53.5t32-34.5 43-19T220 5q51 0 85 19t54.5 48.5 28.5 65 8 69.5v44zm-54 393q0-20-7.5-37.5t-21-30.5-31-20-36.5-7q-20 0-37 7t-30.5 20-21 30.5T150 644t7.5 37.5 21 30 30.5 20 37 7.5q19 0 36.5-7.5t31-20 21-30T342 644zm-19 0q0 32-22.5 55T246 722t-54.5-23-22.5-55 22.5-55 54.5-23 54.5 23 22.5 55zM200 814h-19l103 144h27z"/><glyph glyph-name="AEacute" unicode="Ǽ" horiz-adv-x="968" d="M491 0v206H167L32 0H6l460 708h429v-20H513V377h358v-20H513V20h399V0H491zm0 688h-13L180 226h311v462zm-78 95h-19l103 144h27z"/><glyph glyph-name="aeacute" unicode="ǽ" horiz-adv-x="879" d="M796 255q-2 45-15.5 81.5t-37 63-57 41T613 455q-50 0-84.5-22.5t-57-54T439 313t-10-58h367zm-370 83q24 61 74 98.5T614 474q51 0 89-19t63.5-50 38-70.5T817 254v-19H428q0-40 11-80.5T474 81t61-53.5T624 7q49 0 90.5 21T785 90l15-13q-32-44-76-67T623-13q-73 0-127 42t-76 114q-4-31-17.5-59.5t-37.5-50T305.5-1 224-14q-29 0-57 7t-50.5 22T80 54t-14 58q0 46 25 74t63.5 43.5T238 250t85 5h84v47q0 75-40 114t-114 39q-42 0-78.5-15T109 400l-12 17q32 28 74 42.5t82 14.5q42 0 73.5-10.5t52.5-29 32.5-43.5 14.5-53zm-19-103h-75q-43 0-86.5-4.5t-78-17.5-56.5-37-22-64q0-32 13-52.5T135 27t43.5-17T224 5q53 0 88 16.5t56 43 30 59.5 9 67v44zm-12 314h-19l103 144h27z"/><glyph glyph-name="Oslashacute" unicode="Ǿ" horiz-adv-x="872" d="M640 632q-42 35-97 55.5T423 708q-75 0-138-27.5T176.5 605 106 492.5 81 354q0-75 26-141t74-115zm30 4q55-50 86-121.5T787 354q0-82-27.5-150.5t-76-118T568 8 423-20q-71 0-132.5 23T181 68l-68-79L99 3l68 78q-51 49-79.5 118.5T59 354q0 82 27.5 150.5t76 118 115 77.5T423 728q67 0 125.5-20.5T655 649l67 78 15-13zM195 84q44-39 101-61.5T423 0q77 0 140 27.5T671 103t69.5 112.5T765 354q0 79-28.5 147T655 619zm182 719h-19l103 144h27z"/><glyph glyph-name="oslashacute" unicode="ǿ" horiz-adv-x="605" d="M479 402q30-31 47-74t17-97-17.5-99T476 54.5 399.5 4 302-14q-52 0-95.5 18T131 54L65-12 51 1l67 67q-26 31-41 72.5T62 231q0 54 17.5 98.5T129 406t76 50 97 18q49 0 90.5-15t73.5-43l59 59 14-14zM146 69q27-30 66.5-47T302 5q51 0 91.5 18t69 48.5T506 143t15 88q0 45-14.5 85T464 387zm305 332q-28 25-65 39.5T302 455q-51 0-91-17.5t-68.5-48T99 318t-15-87q0-42 12.5-80T133 83zM251 550h-19l103 144h27z"/><glyph glyph-name="Adblgrave" unicode="Ȁ" d="m624 0-84 203H129L42 0H18l307 708h28L648 0h-24zM338 694 137 222h396zm17 233 103-144h-19L328 927h27zm-120 0 103-144h-19L208 927h27z"/><glyph glyph-name="adblgrave" unicode="ȁ" horiz-adv-x="512" d="M418 104q0-26 2.5-55.5T426 0h-21q-2 10-3 24.5t-2.5 30-2 30.5-.5 25h-3q-20-63-69-93.5T220-14q-28 0-55.5 8T115 18 79.5 59 66 118q0 49 25.5 79t63.5 46.5 81.5 21.5 79.5 5h80v37q0 77-41 112.5T248 455q-41 0-76.5-15T108 400l-12 17q32 28 72.5 42.5T248 474q79 0 124.5-40.5T418 306V104zm-22 147h-71q-38 0-80-4.5T168 228t-57.5-40T88 118q0-32 12.5-53.5t32-34.5 43-19T220 5q51 0 85 19t54.5 48.5 28.5 65 8 69.5v44zM268 693l103-144h-19L241 693h27zm-120 0 103-144h-19L121 693h27z"/><glyph glyph-name="Ainvertedbreve" unicode="Ȃ" d="m624 0-84 203H129L42 0H18l307 708h28L648 0h-24zM338 694 137 222h396zm121 215q-10-61-43.5-93.5T332 783q-49 0-82.5 32.5T208 909h19q10-52 38-79t67-27q45 0 71 25t38 81h18z"/><glyph glyph-name="ainvertedbreve" unicode="ȃ" horiz-adv-x="512" d="M418 104q0-26 2.5-55.5T426 0h-21q-2 10-3 24.5t-2.5 30-2 30.5-.5 25h-3q-20-63-69-93.5T220-14q-28 0-55.5 8T115 18 79.5 59 66 118q0 49 25.5 79t63.5 46.5 81.5 21.5 79.5 5h80v37q0 77-41 112.5T248 455q-41 0-76.5-15T108 400l-12 17q32 28 72.5 42.5T248 474q79 0 124.5-40.5T418 306V104zm-22 147h-71q-38 0-80-4.5T168 228t-57.5-40T88 118q0-32 12.5-53.5t32-34.5 43-19T220 5q51 0 85 19t54.5 48.5 28.5 65 8 69.5v44zm-24 424q-10-61-43.5-93.5T245 549q-49 0-82.5 32.5T121 675h19q10-52 38-79t67-27q45 0 71 25t38 81h18z"/><glyph glyph-name="Edblgrave" unicode="Ȅ" horiz-adv-x="590" d="M106 0v708h412v-20H127V377h368v-20H127V20h407V0H106zm236 927 103-144h-19L315 927h27zm-120 0 103-144h-19L195 927h27z"/><glyph glyph-name="edblgrave" unicode="ȅ" horiz-adv-x="556" d="M84 235q0-42 12.5-83t38-73.5T199 26t92-20q54 0 96 21.5T460 90l16-14q-34-44-79.5-67T291-14q-51 0-93 18.5T125.5 56t-47 79T62 235q0 52 17 96t46.5 76 69.5 49.5 86 17.5q54 0 94-19t66.5-50 39.5-70.5 13-80.5v-19H84zm389 19q-1 45-15.5 82T418 399.5t-60 41-78 14.5q-52 0-89-21.5t-60.5-53-34.5-66T85 254h388zM300 693l103-144h-19L273 693h27zm-120 0 103-144h-19L153 693h27z"/><glyph glyph-name="Einvertedbreve" unicode="Ȇ" horiz-adv-x="590" d="M106 0v708h412v-20H127V377h368v-20H127V20h407V0H106zm340 909q-10-61-43.5-93.5T319 783q-49 0-82.5 32.5T195 909h19q10-52 38-79t67-27q45 0 71 25t38 81h18z"/><glyph glyph-name="einvertedbreve" unicode="ȇ" horiz-adv-x="556" d="M84 235q0-42 12.5-83t38-73.5T199 26t92-20q54 0 96 21.5T460 90l16-14q-34-44-79.5-67T291-14q-51 0-93 18.5T125.5 56t-47 79T62 235q0 52 17 96t46.5 76 69.5 49.5 86 17.5q54 0 94-19t66.5-50 39.5-70.5 13-80.5v-19H84zm389 19q-1 45-15.5 82T418 399.5t-60 41-78 14.5q-52 0-89-21.5t-60.5-53-34.5-66T85 254h388zm-69 421q-10-61-43.5-93.5T277 549q-49 0-82.5 32.5T153 675h19q10-52 38-79t67-27q45 0 71 25t38 81h18z"/><glyph glyph-name="Idblgrave" unicode="Ȉ" horiz-adv-x="234" d="M106 0v708h22V0h-22zm33 927 103-144h-19L112 927h27zm-120 0 103-144h-19L-8 927h27z"/><glyph glyph-name="idblgrave" unicode="ȉ" horiz-adv-x="226" d="M102 0v460h22V0h-22zm33 679 103-144h-19L108 679h27zm-120 0 103-144H99L-12 679h27z"/><glyph glyph-name="Iinvertedbreve" unicode="Ȋ" horiz-adv-x="234" d="M106 0v708h22V0h-22zm137 909q-10-61-43.5-93.5T116 783q-49 0-82.5 32.5T-8 909h19q10-52 38-79t67-27q45 0 71 25t38 81h18z"/><glyph glyph-name="iinvertedbreve" unicode="ȋ" horiz-adv-x="226" d="M102 0v460h22V0h-22zm137 661q-10-61-43.5-93.5T112 535q-49 0-82.5 32.5T-12 661H7q10-52 38-79t67-27q45 0 71 25t38 81h18z"/><glyph glyph-name="Odblgrave" unicode="Ȍ" horiz-adv-x="872" d="M800 354q0-82-27.5-150.5t-76-118T581 8 436-20 291 8 175.5 85.5t-76 118T72 354t27.5 150.5 76 118 115 77.5T436 728t145.5-28 115-77.5 76-118T800 354zm-22 0q0 74-25 138.5T682.5 605 574 680.5 436 708t-138-27.5T189.5 605 119 492.5 94 354t24.5-138.5T188 103t108-75.5T436 0t140 27.5T684 103t69.5 112.5T778 354zM458 947l103-144h-19L431 947h27zm-120 0 103-144h-19L311 947h27z"/><glyph glyph-name="odblgrave" unicode="ȍ" horiz-adv-x="605" d="M543 231q0-54-17.5-99T476 54.5 399.5 4 302-14 205 4t-76 50.5T79.5 132 62 231t17.5 98.5T129 406t76 50 97 18 97.5-18 76.5-50 49.5-76.5T543 231zm-22 0q0 46-15 87t-43.5 71.5-69 48T302 455t-91-17.5-68.5-48T99 318t-15-87q0-47 15-88t43.5-71.5T211 23t91-18 91.5 18 69 48.5T506 143t15 88zM324 693l103-144h-19L297 693h27zm-120 0 103-144h-19L177 693h27z"/><glyph glyph-name="Oinvertedbreve" unicode="Ȏ" horiz-adv-x="872" d="M800 354q0-82-27.5-150.5t-76-118T581 8 436-20 291 8 175.5 85.5t-76 118T72 354t27.5 150.5 76 118 115 77.5T436 728t145.5-28 115-77.5 76-118T800 354zm-22 0q0 74-25 138.5T682.5 605 574 680.5 436 708t-138-27.5T189.5 605 119 492.5 94 354t24.5-138.5T188 103t108-75.5T436 0t140 27.5T684 103t69.5 112.5T778 354zM562 929q-10-61-43.5-93.5T435 803q-49 0-82.5 32.5T311 929h19q10-52 38-79t67-27q45 0 71 25t38 81h18z"/><glyph glyph-name="oinvertedbreve" unicode="ȏ" horiz-adv-x="605" d="M543 231q0-54-17.5-99T476 54.5 399.5 4 302-14 205 4t-76 50.5T79.5 132 62 231t17.5 98.5T129 406t76 50 97 18 97.5-18 76.5-50 49.5-76.5T543 231zm-22 0q0 46-15 87t-43.5 71.5-69 48T302 455t-91-17.5-68.5-48T99 318t-15-87q0-47 15-88t43.5-71.5T211 23t91-18 91.5 18 69 48.5T506 143t15 88zm-93 444q-10-61-43.5-93.5T301 549q-49 0-82.5 32.5T177 675h19q10-52 38-79t67-27q45 0 71 25t38 81h18z"/><glyph glyph-name="Rdblgrave" unicode="Ȑ" horiz-adv-x="594" d="M508 0 294 357H128V0h-22v708h196q39 0 79-7t71.5-26.5T504 621t20-88q0-50-19-83t-49-53.5-66.5-29.5-71.5-9L533 0h-25zm-6 533q0 46-18 76.5t-47.5 48-68 24.5-78.5 7H128V376h173q98 0 149.5 41T502 533zM341 927l103-144h-19L314 927h27zm-120 0 103-144h-19L194 927h27z"/><glyph glyph-name="rdblgrave" unicode="ȑ" horiz-adv-x="317" d="M128 339q20 72 64 103.5t95 31.5h9l9-1v-19q-4 1-7.5 1H292q-44 0-75-19.5t-51-51-29.5-70T127 238V0h-22v344q0 11-.5 27t-1 32.5T102 435t-2 25h22q1-10 1.5-25t1-32.5 1-34 .5-29.5h2zm96 354 103-144h-19L197 693h27zm-120 0 103-144h-19L77 693h27z"/><glyph glyph-name="Rinvertedbreve" unicode="Ȓ" horiz-adv-x="594" d="M508 0 294 357H128V0h-22v708h196q39 0 79-7t71.5-26.5T504 621t20-88q0-50-19-83t-49-53.5-66.5-29.5-71.5-9L533 0h-25zm-6 533q0 46-18 76.5t-47.5 48-68 24.5-78.5 7H128V376h173q98 0 149.5 41T502 533zm-57 376q-10-61-43.5-93.5T318 783q-49 0-82.5 32.5T194 909h19q10-52 38-79t67-27q45 0 71 25t38 81h18z"/><glyph glyph-name="rinvertedbreve" unicode="ȓ" horiz-adv-x="317" d="M128 339q20 72 64 103.5t95 31.5h9l9-1v-19q-4 1-7.5 1H292q-44 0-75-19.5t-51-51-29.5-70T127 238V0h-22v344q0 11-.5 27t-1 32.5T102 435t-2 25h22q1-10 1.5-25t1-32.5 1-34 .5-29.5h2zm200 336q-10-61-43.5-93.5T201 549q-49 0-82.5 32.5T77 675h19q10-52 38-79t67-27q45 0 71 25t38 81h18z"/><glyph glyph-name="Udblgrave" unicode="Ȕ" horiz-adv-x="732" d="M636 268q0-60-14-112.5T576 64 492.5 2.5 366-20 239.5 2.5 156 64t-46 91.5T96 268v440h22V272q0-42 8.5-89.5t35-88 75-67.5T366 0q79 0 127.5 26T569 92.5t36 88 9 91.5v436h22V268zM388 927l103-144h-19L361 927h27zm-120 0 103-144h-19L241 927h27z"/><glyph glyph-name="udblgrave" unicode="ȕ" horiz-adv-x="572" d="M442 121q-11-32-29.5-57.5T370 21 318-5t-58-9q-48 0-80 17t-51 45-27 63-8 71v278h22V184q0-29 6-60.5T144.5 66t44-43.5T260 5q38 0 71.5 15.5t58 44.5 39 70.5T443 230v230h22V116q0-11 .5-27t1-32.5T468 25t2-25h-22q-1 10-1.5 25t-1 32.5-1 34-.5 29.5h-2zM304 679l103-144h-19L277 679h27zm-120 0 103-144h-19L157 679h27z"/><glyph glyph-name="Uinvertedbreve" unicode="Ȗ" horiz-adv-x="732" d="M636 268q0-60-14-112.5T576 64 492.5 2.5 366-20 239.5 2.5 156 64t-46 91.5T96 268v440h22V272q0-42 8.5-89.5t35-88 75-67.5T366 0q79 0 127.5 26T569 92.5t36 88 9 91.5v436h22V268zM492 909q-10-61-43.5-93.5T365 783q-49 0-82.5 32.5T241 909h19q10-52 38-79t67-27q45 0 71 25t38 81h18z"/><glyph glyph-name="uinvertedbreve" unicode="ȗ" horiz-adv-x="572" d="M442 121q-11-32-29.5-57.5T370 21 318-5t-58-9q-48 0-80 17t-51 45-27 63-8 71v278h22V184q0-29 6-60.5T144.5 66t44-43.5T260 5q38 0 71.5 15.5t58 44.5 39 70.5T443 230v230h22V116q0-11 .5-27t1-32.5T468 25t2-25h-22q-1 10-1.5 25t-1 32.5-1 34-.5 29.5h-2zm-34 540q-10-61-43.5-93.5T281 535q-49 0-82.5 32.5T157 661h19q10-52 38-79t67-27q45 0 71 25t38 81h18z"/><glyph glyph-name="Scommaaccent" unicode="Ș" horiz-adv-x="570" d="M498 170q0-45-17.5-80.5t-46.5-60-68.5-37T283-20q-66 0-120.5 23.5T72 67l17 15q38-41 88.5-61.5T282 0q39 0 74 11.5t62 33 42.5 53T476 170t-17 69-44 48-61.5 33.5T284 345q-44 14-80.5 29.5t-63 38-41 54T85 543q0 44 17.5 78.5t47.5 58 69.5 36T303 728q54 0 102.5-20.5T485 649l-17-15q-28 35-71.5 54.5T302 708q-36 0-70.5-10T169 667.5 124 616t-17-73q0-41 15-69.5t40-48.5 56.5-33 64.5-24q45-15 84-30.5t68.5-37.5 46-53.5T498 170zM256-230h-17l51 185h24z"/><glyph glyph-name="scommaaccent" unicode="ș" horiz-adv-x="415" d="M361 120q0-31-12-55.5T316.5 23 269-3t-58-9q-51 0-92.5 19.5T50 65l18 12Q118 7 212 7q22 0 44.5 7t41 21 30 35 11.5 48q0 32-14.5 52T288 202t-48.5 19.5T190 235q-25 7-47 15.5t-38.5 22-26 33.5-9.5 50 12 52 32 36.5 45.5 22T210 474q94 0 141-67l-19-11q-23 30-52 44.5T210 455q-19 0-40-5t-38.5-16.5-29-30.5T91 357q0-30 9.5-48t26.5-29 41-18.5 53-14.5q27-7 52.5-16.5t45-23.5 31-35 11.5-52zM176-230h-17l51 185h24z"/><glyph glyph-name="uni021A" unicode="Ț" horiz-adv-x="540" d="M281 688V0h-22v688H18v20h504v-20H281zm-43-918h-17l51 185h24z"/><glyph glyph-name="uni021B" unicode="ț" horiz-adv-x="304" d="M280-1q-12-5-28-8t-31-3q-54 0-77.5 30.5T120 95v346H20v19h99v135h23V460h135v-19H142V95q0-47 23-67.5T226 7q28 0 51 9zM156-230h-17l51 185h24z"/><glyph glyph-name="Hcaron" unicode="Ȟ" horiz-adv-x="732" d="M604 0v356H128V0h-22v708h22V376h476v332h22V0h-22zM352 783 249 927h23l94-132 94 132h23L380 783h-28z"/><glyph glyph-name="hcaron" unicode="ȟ" horiz-adv-x="569" d="M126 339q10 32 28.5 57t42.5 42.5 52 26.5 58 9q48 0 80-17t51-45 27-63 8-71V0h-22v276q0 28-6 60t-22.5 58-44.5 43.5-71 17.5q-38 0-71.5-15.5t-58-44.5-39-70.5T124 230V0h-22v756h22V339h2zm147 492L170 975h23l94-132 94 132h23L301 831h-28z"/><glyph glyph-name="Adotaccent" unicode="Ȧ" d="m624 0-84 203H129L42 0H18l307 708h28L648 0h-24zM338 694 137 222h396zm-5 89q-9 0-16 7t-7 19q0 11 7 18t16 7 16-7 7-18q0-12-7.5-19t-15.5-7z"/><glyph glyph-name="adotaccent" unicode="ȧ" horiz-adv-x="512" d="M418 104q0-26 2.5-55.5T426 0h-21q-2 10-3 24.5t-2.5 30-2 30.5-.5 25h-3q-20-63-69-93.5T220-14q-28 0-55.5 8T115 18 79.5 59 66 118q0 49 25.5 79t63.5 46.5 81.5 21.5 79.5 5h80v37q0 77-41 112.5T248 455q-41 0-76.5-15T108 400l-12 17q32 28 72.5 42.5T248 474q79 0 124.5-40.5T418 306V104zm-22 147h-71q-38 0-80-4.5T168 228t-57.5-40T88 118q0-32 12.5-53.5t32-34.5 43-19T220 5q51 0 85 19t54.5 48.5 28.5 65 8 69.5v44zM246 549q-9 0-16 7t-7 19q0 11 7 18t16 7 16-7 7-18q0-12-7.5-19t-15.5-7z"/><glyph glyph-name="Ecedilla" unicode="Ȩ" horiz-adv-x="590" d="M106 0v708h412v-20H127V377h368v-20H127V20h407V0H106zm315-146q0-24-11.5-39.5T381-210t-36.5-12.5T309-226q-19 0-43.5 5T219-206l5 17q19-10 43.5-14t42.5-4q15 0 30.5 2.5t29 9 22 18.5 8.5 31q0 16-7 26t-17.5 15.5-23 7.5-24.5 2q-14 0-35.5-4T259-110l-10 9L318 0h21l-59-86q14 5 27 6.5t27 1.5q15 0 30.5-3.5t28-11 20.5-21 8-32.5z"/><glyph glyph-name="ecedilla" unicode="ȩ" horiz-adv-x="556" d="M84 235q0-42 12.5-83t38-73.5T199 26t92-20q54 0 96 21.5T460 90l16-14q-34-44-79.5-67T291-14q-51 0-93 18.5T125.5 56t-47 79T62 235q0 52 17 96t46.5 76 69.5 49.5 86 17.5q54 0 94-19t66.5-50 39.5-70.5 13-80.5v-19H84zm389 19q-1 45-15.5 82T418 399.5t-60 41-78 14.5q-52 0-89-21.5t-60.5-53-34.5-66T85 254h388zm-94-414q0-24-11.5-39.5T339-224t-36.5-12.5T267-240q-19 0-43.5 5T177-220l5 17q19-10 43.5-14t42.5-4q15 0 30.5 2.5t29 9 22 18.5 8.5 31q0 16-7 26t-17.5 15.5-23 7.5-24.5 2q-14 0-35.5-4T217-124l-10 9 69 101h21l-59-86q14 5 27 6.5t27 1.5q15 0 30.5-3.5t28-11 20.5-21 8-32.5z"/><glyph glyph-name="Odieresismacron" unicode="Ȫ" horiz-adv-x="872" d="M800 354q0-82-27.5-150.5t-76-118T581 8 436-20 291 8 175.5 85.5t-76 118T72 354t27.5 150.5 76 118 115 77.5T436 728t145.5-28 115-77.5 76-118T800 354zm-22 0q0 74-25 138.5T682.5 605 574 680.5 436 708t-138-27.5T189.5 605 119 492.5 94 354t24.5-138.5T188 103t108-75.5T436 0t140 27.5T684 103t69.5 112.5T778 354zM359 803q-9 0-16 7t-7 19q0 11 7 18t16 7 16-7 7-18q0-12-7.5-19t-15.5-7zm154 0q-9 0-16 7t-7 19q0 11 7 18t16 7 16-7 7-18q0-12-7.5-19t-15.5-7zM320 929v20h232v-20H320z"/><glyph glyph-name="odieresismacron" unicode="ȫ" horiz-adv-x="605" d="M543 231q0-54-17.5-99T476 54.5 399.5 4 302-14 205 4t-76 50.5T79.5 132 62 231t17.5 98.5T129 406t76 50 97 18 97.5-18 76.5-50 49.5-76.5T543 231zm-22 0q0 46-15 87t-43.5 71.5-69 48T302 455t-91-17.5-68.5-48T99 318t-15-87q0-47 15-88t43.5-71.5T211 23t91-18 91.5 18 69 48.5T506 143t15 88zM225 549q-9 0-16 7t-7 19q0 11 7 18t16 7 16-7 7-18q0-12-7.5-19t-15.5-7zm154 0q-9 0-16 7t-7 19q0 11 7 18t16 7 16-7 7-18q0-12-7.5-19t-15.5-7zM186 675v20h232v-20H186z"/><glyph glyph-name="Otildemacron" unicode="Ȭ" horiz-adv-x="872" d="M800 354q0-82-27.5-150.5t-76-118T581 8 436-20 291 8 175.5 85.5t-76 118T72 354t27.5 150.5 76 118 115 77.5T436 728t145.5-28 115-77.5 76-118T800 354zm-22 0q0 74-25 138.5T682.5 605 574 680.5 436 708t-138-27.5T189.5 605 119 492.5 94 354t24.5-138.5T188 103t108-75.5T436 0t140 27.5T684 103t69.5 112.5T778 354zM439 849q13-8 22-13t15.5-7.5 11-3 10.5-.5q33 0 40 48h16q-4-36-20-51.5T498 806q-16 0-28.5 5T434 830q-26 16-37 20t-22 4q-32 0-40-51h-16q4 36 20 53t36 17q16 0 29-5t35-19zm-119 99v20h232v-20H320z"/><glyph glyph-name="otildemacron" unicode="ȭ" horiz-adv-x="605" d="M543 231q0-54-17.5-99T476 54.5 399.5 4 302-14 205 4t-76 50.5T79.5 132 62 231t17.5 98.5T129 406t76 50 97 18 97.5-18 76.5-50 49.5-76.5T543 231zm-22 0q0 46-15 87t-43.5 71.5-69 48T302 455t-91-17.5-68.5-48T99 318t-15-87q0-47 15-88t43.5-71.5T211 23t91-18 91.5 18 69 48.5T506 143t15 88zM305 595q13-8 22-13t15.5-7.5 11-3 10.5-.5q33 0 40 48h16q-4-36-20-51.5T364 552q-16 0-28.5 5T300 576q-26 16-37 20t-22 4q-32 0-40-51h-16q4 36 20 53t36 17q16 0 29-5t35-19zm-119 99v20h232v-20H186z"/><glyph glyph-name="Odotaccent" unicode="Ȯ" horiz-adv-x="872" d="M800 354q0-82-27.5-150.5t-76-118T581 8 436-20 291 8 175.5 85.5t-76 118T72 354t27.5 150.5 76 118 115 77.5T436 728t145.5-28 115-77.5 76-118T800 354zm-22 0q0 74-25 138.5T682.5 605 574 680.5 436 708t-138-27.5T189.5 605 119 492.5 94 354t24.5-138.5T188 103t108-75.5T436 0t140 27.5T684 103t69.5 112.5T778 354zM436 803q-9 0-16 7t-7 19q0 11 7 18t16 7 16-7 7-18q0-12-7.5-19t-15.5-7z"/><glyph glyph-name="odotaccent" unicode="ȯ" horiz-adv-x="605" d="M543 231q0-54-17.5-99T476 54.5 399.5 4 302-14 205 4t-76 50.5T79.5 132 62 231t17.5 98.5T129 406t76 50 97 18 97.5-18 76.5-50 49.5-76.5T543 231zm-22 0q0 46-15 87t-43.5 71.5-69 48T302 455t-91-17.5-68.5-48T99 318t-15-87q0-47 15-88t43.5-71.5T211 23t91-18 91.5 18 69 48.5T506 143t15 88zM302 549q-9 0-16 7t-7 19q0 11 7 18t16 7 16-7 7-18q0-12-7.5-19t-15.5-7z"/><glyph glyph-name="Odotaccentmacron" unicode="Ȱ" horiz-adv-x="872" d="M800 354q0-82-27.5-150.5t-76-118T581 8 436-20 291 8 175.5 85.5t-76 118T72 354t27.5 150.5 76 118 115 77.5T436 728t145.5-28 115-77.5 76-118T800 354zm-22 0q0 74-25 138.5T682.5 605 574 680.5 436 708t-138-27.5T189.5 605 119 492.5 94 354t24.5-138.5T188 103t108-75.5T436 0t140 27.5T684 103t69.5 112.5T778 354zM436 803q-9 0-16 7t-7 19q0 11 7 18t16 7 16-7 7-18q0-12-7.5-19t-15.5-7zM320 929v20h232v-20H320z"/><glyph glyph-name="odotaccentmacron" unicode="ȱ" horiz-adv-x="605" d="M543 231q0-54-17.5-99T476 54.5 399.5 4 302-14 205 4t-76 50.5T79.5 132 62 231t17.5 98.5T129 406t76 50 97 18 97.5-18 76.5-50 49.5-76.5T543 231zm-22 0q0 46-15 87t-43.5 71.5-69 48T302 455t-91-17.5-68.5-48T99 318t-15-87q0-47 15-88t43.5-71.5T211 23t91-18 91.5 18 69 48.5T506 143t15 88zM302 549q-9 0-16 7t-7 19q0 11 7 18t16 7 16-7 7-18q0-12-7.5-19t-15.5-7zM186 675v20h232v-20H186z"/><glyph glyph-name="Ymacron" unicode="Ȳ" horiz-adv-x="538" d="M280 310V0h-22v310L15 708h26l229-376 228 376h25zM153 783v20h232v-20H153z"/><glyph glyph-name="ymacron" unicode="ȳ" horiz-adv-x="428" d="M176-152q-16-43-42.5-66.5T65-242q-9 0-21 2t-20 5l6 19q6-2 16.5-4t20.5-2q21 0 36.5 8t26.5 20.5 18.5 28.5 13.5 32l44 120L24 460h24L217 12l163 448h24zM98 535v20h232v-20H98z"/><glyph glyph-name="commaturnedmod" unicode="ʻ" horiz-adv-x="220" d="M133 708h17L94 480H70z"/><glyph glyph-name="afii57929" unicode="ʼ" horiz-adv-x="220" d="M87 480H70l56 228h24z"/><glyph glyph-name="circumflex" unicode="ˆ" horiz-adv-x="240" d="m134 708 103-144h-23l-94 132-94-132H3l103 144h28z"/><glyph glyph-name="caron" unicode="ˇ" horiz-adv-x="240" d="M106 564 3 708h23l94-132 94 132h23L134 564h-28z"/><glyph glyph-name="uni02C9" unicode="ˉ" horiz-adv-x="240" d="M4 821v20h232v-20H4z"/><glyph glyph-name="breve" unicode="˘" horiz-adv-x="240" d="M245 698q-10-61-43.5-93.5T118 572q-49 0-82.5 32.5T-6 698h19q10-52 38-79t67-27q45 0 71 25t38 81h18z"/><glyph glyph-name="dotaccent" unicode="˙" horiz-adv-x="240" d="M120 633q-9 0-16 7t-7 19q0 11 7 18t16 7 16-7 7-18q0-12-7.5-19t-15.5-7z"/><glyph glyph-name="ring" unicode="˚" horiz-adv-x="240" d="M216 650q0-20-7.5-37.5t-21-30.5-31-20-36.5-7q-20 0-37 7t-30.5 20-21 30.5T24 650t7.5 37.5 21 30 30.5 20 37 7.5q19 0 36.5-7.5t31-20 21-30T216 650zm-19 0q0 32-22.5 55T120 728t-54.5-23T43 650t22.5-55 54.5-23 54.5 23 22.5 55z"/><glyph glyph-name="ogonek" unicode="˛" horiz-adv-x="240" d="M206-192q-16-14-37.5-22.5T124-223q-35 0-59.5 21T40-143q0 39 28 73.5T132 0h23q-46-46-69.5-76.5T62-141q0-30 18-47t47-17q20 0 38.5 8t30.5 21z"/><glyph glyph-name="tilde" unicode="˜" horiz-adv-x="240" d="M123 638q13-8 22-13t15.5-7.5 11-3 10.5-.5q33 0 40 48h16q-4-36-20-51.5T182 595q-16 0-28.5 5T118 619q-26 16-37 20t-22 4q-32 0-40-51H3q4 36 20 53t36 17q16 0 29-5t35-19z"/><glyph glyph-name="hungarumlaut" unicode="˝" horiz-adv-x="240" d="M60 563H41l103 145h27zm117 0h-19l103 145h27z"/><glyph glyph-name="uni02EE" unicode="ˮ" horiz-adv-x="350" d="M87 480H70l56 228h24zm128 0h-17l58 228h24z"/><glyph glyph-name="gravecmb" unicode="̀" horiz-adv-x="0" d="m-213 708 103-144h-19l-111 144h27z"/><glyph glyph-name="acutecmb" unicode="́" horiz-adv-x="0" d="M-221 564h-19l103 144h27z"/><glyph glyph-name="circumflexcmb" unicode="̂" horiz-adv-x="0" d="M-109 708-6 564h-23l-94 132-94-132h-23l103 144h28z"/><glyph glyph-name="tildecmb" unicode="̃" horiz-adv-x="0" d="M-120 638q13-8 22-13t15.5-7.5 11-3 10.5-.5q33 0 40 48h16q-4-36-20-51.5T-61 595q-16 0-28.5 5t-35.5 19q-26 16-37 20t-22 4q-32 0-40-51h-16q4 36 20 53t36 17q16 0 29-5t35-19z"/><glyph glyph-name="macroncmb" unicode="̄" horiz-adv-x="0" d="M-240 621v20H-8v-20h-232z"/><glyph glyph-name="brevecmb" unicode="̆" horiz-adv-x="0" d="M11 698q-10-61-43.5-93.5T-116 572q-49 0-82.5 32.5T-240 698h19q10-52 38-79t67-27q45 0 71 25t38 81h18z"/><glyph glyph-name="dotaccentcmb" unicode="̇" horiz-adv-x="0" d="M-217 633q-9 0-16 7t-7 19q0 11 7 18t16 7 16-7 7-18q0-12-7.5-19t-15.5-7z"/><glyph glyph-name="dieresiscmb" unicode="̈" horiz-adv-x="0" d="M-217 633q-9 0-16 7t-7 19q0 11 7 18t16 7 16-7 7-18q0-12-7.5-19t-15.5-7zm154 0q-9 0-16 7t-7 19q0 11 7 18t16 7 16-7 7-18q0-12-7.5-19t-15.5-7z"/><glyph glyph-name="hookabovecomb" unicode="̉" horiz-adv-x="240" d="M106 555q0 18 9.5 31t36.5 26q19 9 27.5 22.5T188 662q0 23-16 39t-45 16-49-14-26-49l-19 3q8 41 32.5 60t61.5 19 59-21 22-53q0-21-12.5-39T159 594q-20-10-27-19t-7-20h-19z"/><glyph glyph-name="ringcmb" unicode="̊" horiz-adv-x="0" d="M-48 650q0-20-7.5-37.5t-21-30.5-31-20-36.5-7q-20 0-37 7t-30.5 20-21 30.5-7.5 37.5 7.5 37.5 21 30 30.5 20 37 7.5q19 0 36.5-7.5t31-20 21-30T-48 650zm-19 0q0 32-22.5 55t-54.5 23-54.5-23-22.5-55 22.5-55 54.5-23 54.5 23 22.5 55z"/><glyph glyph-name="hungarumlautcmb" unicode="̋" horiz-adv-x="0" d="M-221 563h-19l103 145h27zm117 0h-19l103 145H7z"/><glyph glyph-name="caroncmb" unicode="̌" horiz-adv-x="0" d="m-137 564-103 144h23l94-132 94 132h23l-103-144h-28z"/><glyph glyph-name="doublegravecmb" unicode="̏" horiz-adv-x="0" d="m-213 708 103-144h-19l-111 144h27zm-120 0 103-144h-19l-111 144h27z"/><glyph glyph-name="invertedbrevecmb" unicode="̑" horiz-adv-x="0" d="M0 698q-10-61-43.5-93.5T-127 572q-49 0-82.5 32.5T-251 698h19q10-52 38-79t67-27q45 0 71 25t38 81H0z"/><glyph glyph-name="horncmb" unicode="̛" horiz-adv-x="0" d="M-164 460q82 0 82 72 0 14-4 30t-10 28l23 7q13-28 13-65 0-44-27-68t-77-24q-23 0-36.5 3t-21.5 7q-9 4-13 10h71z"/><glyph glyph-name="dotbelowcmb" unicode="̣" horiz-adv-x="0" d="M-217-121q-9 0-16 7t-7 19q0 11 7 18t16 7 16-7 7-18q0-12-7.5-19t-15.5-7z"/><glyph glyph-name="dieresisbelowcmb" unicode="̤" horiz-adv-x="0" d="M-217-121q-9 0-16 7t-7 19q0 11 7 18t16 7 16-7 7-18q0-12-7.5-19t-15.5-7zm154 0q-9 0-16 7t-7 19q0 11 7 18t16 7 16-7 7-18q0-12-7.5-19t-15.5-7z"/><glyph glyph-name="ringbelowcmb" unicode="̥" horiz-adv-x="0" d="M-48-165q0-20-7.5-37.5t-21-30.5-31-20-36.5-7q-20 0-37 7t-30.5 20-21 30.5-7.5 37.5 7.5 37.5 21 30 30.5 20 37 7.5q19 0 36.5-7.5t31-20 21-30T-48-165zm-19 0q0 32-22.5 55T-144-87t-54.5-23-22.5-55 22.5-55 54.5-23 54.5 23 22.5 55z"/><glyph glyph-name="commabelowcmb" unicode="̦" horiz-adv-x="0" d="M-223-298h-17l57 228h24z"/><glyph glyph-name="cedillacmb" unicode="̧" horiz-adv-x="0" d="M-38-146q0-24-11.5-39.5T-78-210t-36.5-12.5-35.5-3.5q-19 0-43.5 5t-46.5 15l5 17q19-10 43.5-14t42.5-4q15 0 30.5 2.5t29 9 22 18.5 8.5 31q0 16-7 26t-17.5 15.5-23 7.5-24.5 2q-14 0-35.5-4t-33.5-11l-10 9 69 101h21l-59-86q14 5 27 6.5t27 1.5q15 0 30.5-3.5t28-11 20.5-21 8-32.5z"/><glyph glyph-name="ogonekcmb" unicode="̨" horiz-adv-x="0" d="M-74-192q-16-14-37.5-22.5T-156-223q-35 0-59.5 21t-24.5 59q0 39 28 73.5T-148 0h23q-46-46-69.5-76.5T-218-141q0-30 18-47t47-17q20 0 38.5 8t30.5 21z"/><glyph glyph-name="circumflexbelowcmb" unicode="̭" horiz-adv-x="0" d="M-109-70-6-214h-23l-94 132-94-132h-23l103 144h28z"/><glyph glyph-name="brevebelowcmb" unicode="̮" horiz-adv-x="0" d="M11-70q-10-61-43.5-93.5T-116-196q-49 0-82.5 32.5T-240-70h19q10-52 38-79t67-27q45 0 71 25t38 81h18z"/><glyph glyph-name="tildebelowcmb" unicode="̰" horiz-adv-x="0" d="M-120-94q13-8 22-13t15.5-7.5 11-3 10.5-.5q33 0 40 48h16q-4-36-20-51.5T-61-137q-16 0-28.5 5t-35.5 19q-26 16-37 20t-22 4q-32 0-40-51h-16q4 36 20 53t36 17q16 0 29-5t35-19z"/><glyph glyph-name="macronbelowcmb" unicode="̱" horiz-adv-x="0" d="M-240-90v20H-8v-20h-232z"/><glyph glyph-name="gravetonecmb" unicode="̀" horiz-adv-x="0" d="m-213 708 103-144h-19l-111 144h27z"/><glyph glyph-name="acutetonecmb" unicode="́" horiz-adv-x="0" d="M-221 564h-19l103 144h27z"/><glyph glyph-name="dialytikatonoscmb" unicode="̈́" horiz-adv-x="0" d="M-217 633q-9 0-16 7t-7 19q0 11 7 18t16 7 16-7 7-18q0-12-7.5-19t-15.5-7zm154 0q-9 0-16 7t-7 19q0 11 7 18t16 7 16-7 7-18q0-12-7.5-19t-15.5-7zm-123 126h-19l103 144h27z"/><glyph glyph-name="combininggraphemejoiner" unicode="͏" horiz-adv-x="0"/><glyph glyph-name="uni037E" unicode=";" horiz-adv-x="280" d="M140 409q-9 0-16 7t-7 19q0 11 7 18t16 7 16-7 7-18q0-12-7.5-19t-15.5-7zM98-138H81l57 228h24z"/><glyph glyph-name="anoteleia" unicode="·" horiz-adv-x="240" d="M120 229q-9 0-16 7t-7 19q0 11 7 18t16 7 16-7 7-18q0-12-7.5-19t-15.5-7z"/><glyph glyph-name="palochkacyrillic" unicode="Ӏ" horiz-adv-x="234" d="M106 0v708h22V0h-22z"/><glyph glyph-name="Aiecyrillic" unicode="Ӕ" horiz-adv-x="968" d="M491 0v206H167L32 0H6l460 708h429v-20H513V377h358v-20H513V20h399V0H491zm0 688h-13L180 226h311v462z"/><glyph glyph-name="aiecyrillic" unicode="ӕ" horiz-adv-x="879" d="M796 255q-2 45-15.5 81.5t-37 63-57 41T613 455q-50 0-84.5-22.5t-57-54T439 313t-10-58h367zm-370 83q24 61 74 98.5T614 474q51 0 89-19t63.5-50 38-70.5T817 254v-19H428q0-40 11-80.5T474 81t61-53.5T624 7q49 0 90.5 21T785 90l15-13q-32-44-76-67T623-13q-73 0-127 42t-76 114q-4-31-17.5-59.5t-37.5-50T305.5-1 224-14q-29 0-57 7t-50.5 22T80 54t-14 58q0 46 25 74t63.5 43.5T238 250t85 5h84v47q0 75-40 114t-114 39q-42 0-78.5-15T109 400l-12 17q32 28 74 42.5t82 14.5q42 0 73.5-10.5t52.5-29 32.5-43.5 14.5-53zm-19-103h-75q-43 0-86.5-4.5t-78-17.5-56.5-37-22-64q0-32 13-52.5T135 27t43.5-17T224 5q53 0 88 16.5t56 43 30 59.5 9 67v44z"/><glyph glyph-name="Aringbelow" unicode="Ḁ" d="m624 0-84 203H129L42 0H18l307 708h28L648 0h-24zM338 694 137 222h396zm91-864q0-20-7.5-37.5t-21-30.5-31-20-36.5-7q-20 0-37 7t-30.5 20-21 30.5T237-170t7.5 37.5 21 30 30.5 20 37 7.5q19 0 36.5-7.5t31-20 21-30T429-170zm-19 0q0 32-22.5 55T333-92t-54.5-23-22.5-55 22.5-55 54.5-23 54.5 23 22.5 55z"/><glyph glyph-name="aringbelow" unicode="ḁ" horiz-adv-x="512" d="M418 104q0-26 2.5-55.5T426 0h-21q-2 10-3 24.5t-2.5 30-2 30.5-.5 25h-3q-20-63-69-93.5T220-14q-28 0-55.5 8T115 18 79.5 59 66 118q0 49 25.5 79t63.5 46.5 81.5 21.5 79.5 5h80v37q0 77-41 112.5T248 455q-41 0-76.5-15T108 400l-12 17q32 28 72.5 42.5T248 474q79 0 124.5-40.5T418 306V104zm-22 147h-71q-38 0-80-4.5T168 228t-57.5-40T88 118q0-32 12.5-53.5t32-34.5 43-19T220 5q51 0 85 19t54.5 48.5 28.5 65 8 69.5v44zm-54-435q0-20-7.5-37.5t-21-30.5-31-20-36.5-7q-20 0-37 7t-30.5 20-21 30.5T150-184t7.5 37.5 21 30 30.5 20 37 7.5q19 0 36.5-7.5t31-20 21-30T342-184zm-19 0q0 32-22.5 55T246-106t-54.5-23-22.5-55 22.5-55 54.5-23 54.5 23 22.5 55z"/><glyph glyph-name="uni1E02" unicode="Ḃ" horiz-adv-x="612" d="M551 189q0-57-21.5-93.5t-55-57.5-74-29.5T323 0H106v708h193q40 0 79.5-8t70.5-27 50-51 19-81q0-38-12-66t-32.5-48-46.5-32.5-53-18.5v-2q27-3 58-14.5t57.5-33.5 44-56 17.5-81zm-55 349q0 43-17 72t-45 46-64.5 24.5T293 688H128V383h170q36 0 71.5 9t63.5 27.5 45.5 48T496 538zm33-352q0 48-19.5 82T460 323t-66 30.5-70 9.5H128V20h185q46 0 86 9.5T467.5 59t45 51.5T529 186zM292 833q-9 0-16 7t-7 19q0 11 7 18t16 7 16-7 7-18q0-12-7.5-19t-15.5-7z"/><glyph glyph-name="uni1E03" unicode="ḃ" horiz-adv-x="626" d="M127 335q30 69 85.5 104T334 474q51 0 93.5-18.5t73-51 47-77.5 16.5-98q0-52-17-96.5t-47.5-77-73-51T334-14q-33 0-64.5 9T211 21.5t-49 43-35 59.5h-3V0h-22v756h22V335h3zm415-106q0 45-14.5 86T486 387t-65.5 49.5T334 455q-46 0-84.5-18T183 388.5 139 317t-16-87 16-87 44-71.5T249.5 23 334 5q48 0 86.5 18T486 71.5t41.5 71.5 14.5 86zM328 797q-9 0-16 7t-7 19q0 11 7 18t16 7 16-7 7-18q0-12-7.5-19t-15.5-7z"/><glyph glyph-name="Bdotbelow" unicode="Ḅ" horiz-adv-x="612" d="M551 189q0-57-21.5-93.5t-55-57.5-74-29.5T323 0H106v708h193q40 0 79.5-8t70.5-27 50-51 19-81q0-38-12-66t-32.5-48-46.5-32.5-53-18.5v-2q27-3 58-14.5t57.5-33.5 44-56 17.5-81zm-55 349q0 43-17 72t-45 46-64.5 24.5T293 688H128V383h170q36 0 71.5 9t63.5 27.5 45.5 48T496 538zm33-352q0 48-19.5 82T460 323t-66 30.5-70 9.5H128V20h185q46 0 86 9.5T467.5 59t45 51.5T529 186zM328-126q-9 0-16 7t-7 19q0 11 7 18t16 7 16-7 7-18q0-12-7.5-19t-15.5-7z"/><glyph glyph-name="bdotbelow" unicode="ḅ" horiz-adv-x="626" d="M127 335q30 69 85.5 104T334 474q51 0 93.5-18.5t73-51 47-77.5 16.5-98q0-52-17-96.5t-47.5-77-73-51T334-14q-33 0-64.5 9T211 21.5t-49 43-35 59.5h-3V0h-22v756h22V335h3zm415-106q0 45-14.5 86T486 387t-65.5 49.5T334 455q-46 0-84.5-18T183 388.5 139 317t-16-87 16-87 44-71.5T249.5 23 334 5q48 0 86.5 18T486 71.5t41.5 71.5 14.5 86zM333-140q-9 0-16 7t-7 19q0 11 7 18t16 7 16-7 7-18q0-12-7.5-19t-15.5-7z"/><glyph glyph-name="Blinebelow" unicode="Ḇ" horiz-adv-x="612" d="M551 189q0-57-21.5-93.5t-55-57.5-74-29.5T323 0H106v708h193q40 0 79.5-8t70.5-27 50-51 19-81q0-38-12-66t-32.5-48-46.5-32.5-53-18.5v-2q27-3 58-14.5t57.5-33.5 44-56 17.5-81zm-55 349q0 43-17 72t-45 46-64.5 24.5T293 688H128V383h170q36 0 71.5 9t63.5 27.5 45.5 48T496 538zm33-352q0 48-19.5 82T460 323t-66 30.5-70 9.5H128V20h185q46 0 86 9.5T467.5 59t45 51.5T529 186zM212-95v20h232v-20H212z"/><glyph glyph-name="blinebelow" unicode="ḇ" horiz-adv-x="626" d="M127 335q30 69 85.5 104T334 474q51 0 93.5-18.5t73-51 47-77.5 16.5-98q0-52-17-96.5t-47.5-77-73-51T334-14q-33 0-64.5 9T211 21.5t-49 43-35 59.5h-3V0h-22v756h22V335h3zm415-106q0 45-14.5 86T486 387t-65.5 49.5T334 455q-46 0-84.5-18T183 388.5 139 317t-16-87 16-87 44-71.5T249.5 23 334 5q48 0 86.5 18T486 71.5t41.5 71.5 14.5 86zM217-109v20h232v-20H217z"/><glyph glyph-name="Ccedillaacute" unicode="Ḉ" horiz-adv-x="724" d="M535-146q0-24-11.5-39.5T495-210t-36.5-12.5T423-226q-19 0-43.5 5T333-206l5 17q19-10 43.5-14t42.5-4q15 0 30.5 2.5t29 9 22 18.5 8.5 31q0 16-7 26t-17.5 15.5-23 7.5-24.5 2q-14 0-35.5-4T373-110l-10 9 55 82q-77 3-140.5 31.5t-109 78-71 116.5T72 354q0 81 26.5 150T173 622.5 287.5 700 433 728q66 0 128.5-22.5T668 637l-14-16q-21 22-47.5 38.5t-56 27.5-59.5 16-58 5q-76 0-138.5-27.5t-107-75.5-69-112.5T94 354t24-138.5T186.5 103t107-75.5T433 0q66 0 130.5 25.5T670 102l16-15q-22-27-50.5-46.5T575 7.5t-67-20-69-7.5l-45-66q14 5 27 6.5t27 1.5q15 0 30.5-3.5t28-11 20.5-21 8-32.5zM333 803h-19l103 144h27z"/><glyph glyph-name="ccedillaacute" unicode="ḉ" horiz-adv-x="480" d="M399-146q0-24-11.5-39.5T359-210t-36.5-12.5T287-226q-19 0-43.5 5T197-206l5 17q19-10 43.5-14t42.5-4q15 0 30.5 2.5t29 9 22 18.5 8.5 31q0 16-7 26t-17.5 15.5-23 7.5-24.5 2q-14 0-35.5-4T237-110l-10 9 59 87q-49 2-90 20.5T125 57t-46.5 76T62 229q0 53 17.5 98t49 77.5 74 51T296 474q44 0 83.5-16t67.5-45l-17-15q-26 27-61 42t-73 15q-49 0-88-18.5T141.5 387 99 315t-15-86 15-86 42.5-71.5T208 23t88-18q38 0 74.5 13T434 57l15-14q-29-29-66.5-42T307-14l-49-72q14 5 27 6.5t27 1.5q15 0 30.5-3.5t28-11 20.5-21 8-32.5zM209 549h-19l103 144h27z"/><glyph glyph-name="uni1E0A" unicode="Ḋ" horiz-adv-x="770" d="M698 354q0-92-30-158.5t-83-110T460.5 21 307 0H106v708h201q82 0 153.5-20.5t124.5-64T668 513t30-159zM129 688V20h173q78 0 146.5 19.5t118.5 60T646 203t29 151-29 151.5-79 104T448.5 669 302 688H129zm226 145q-9 0-16 7t-7 19q0 11 7 18t16 7 16-7 7-18q0-12-7.5-19t-15.5-7z"/><glyph glyph-name="uni1E0B" unicode="ḋ" horiz-adv-x="626" d="M502 756h22V0h-22v124h-3q-30-68-85.5-103T292-14q-50 0-92.5 18.5t-73 51-47.5 77T62 229t17 97 47.5 78 73 51.5T292 474q66 0 121.5-35T499 335h3v421zM84 229q0-45 14.5-86T140 71.5 205.5 23 292 5q46 0 84.5 18T443 71.5t44 71.5 16 87-16 87-44 71.5-66.5 48.5-84.5 18q-48 0-86.5-18.5T140 387t-41.5-72T84 229zm216 568q-9 0-16 7t-7 19q0 11 7 18t16 7 16-7 7-18q0-12-7.5-19t-15.5-7z"/><glyph glyph-name="Ddotbelow" unicode="Ḍ" horiz-adv-x="770" d="M698 354q0-92-30-158.5t-83-110T460.5 21 307 0H106v708h201q82 0 153.5-20.5t124.5-64T668 513t30-159zM129 688V20h173q78 0 146.5 19.5t118.5 60T646 203t29 151-29 151.5-79 104T448.5 669 302 688H129zm273-814q-9 0-16 7t-7 19q0 11 7 18t16 7 16-7 7-18q0-12-7.5-19t-15.5-7z"/><glyph glyph-name="ddotbelow" unicode="ḍ" horiz-adv-x="626" d="M502 756h22V0h-22v124h-3q-30-68-85.5-103T292-14q-50 0-92.5 18.5t-73 51-47.5 77T62 229t17 97 47.5 78 73 51.5T292 474q66 0 121.5-35T499 335h3v421zM84 229q0-45 14.5-86T140 71.5 205.5 23 292 5q46 0 84.5 18T443 71.5t44 71.5 16 87-16 87-44 71.5-66.5 48.5-84.5 18q-48 0-86.5-18.5T140 387t-41.5-72T84 229zm209-369q-9 0-16 7t-7 19q0 11 7 18t16 7 16-7 7-18q0-12-7.5-19t-15.5-7z"/><glyph glyph-name="Dlinebelow" unicode="Ḏ" horiz-adv-x="770" d="M698 354q0-92-30-158.5t-83-110T460.5 21 307 0H106v708h201q82 0 153.5-20.5t124.5-64T668 513t30-159zM129 688V20h173q78 0 146.5 19.5t118.5 60T646 203t29 151-29 151.5-79 104T448.5 669 302 688H129zM286-95v20h232v-20H286z"/><glyph glyph-name="dlinebelow" unicode="ḏ" horiz-adv-x="626" d="M502 756h22V0h-22v124h-3q-30-68-85.5-103T292-14q-50 0-92.5 18.5t-73 51-47.5 77T62 229t17 97 47.5 78 73 51.5T292 474q66 0 121.5-35T499 335h3v421zM84 229q0-45 14.5-86T140 71.5 205.5 23 292 5q46 0 84.5 18T443 71.5t44 71.5 16 87-16 87-44 71.5-66.5 48.5-84.5 18q-48 0-86.5-18.5T140 387t-41.5-72T84 229zm93-338v20h232v-20H177z"/><glyph glyph-name="Dcommaaccent" unicode="Ḑ" horiz-adv-x="770" d="M698 354q0-92-30-158.5t-83-110T460.5 21 307 0H106v708h201q82 0 153.5-20.5t124.5-64T668 513t30-159zM129 688V20h173q78 0 146.5 19.5t118.5 60T646 203t29 151-29 151.5-79 104T448.5 669 302 688H129zm250-991h-17l57 228h24z"/><glyph glyph-name="dcommaaccent" unicode="ḑ" horiz-adv-x="626" d="M502 756h22V0h-22v124h-3q-30-68-85.5-103T292-14q-50 0-92.5 18.5t-73 51-47.5 77T62 229t17 97 47.5 78 73 51.5T292 474q66 0 121.5-35T499 335h3v421zM84 229q0-45 14.5-86T140 71.5 205.5 23 292 5q46 0 84.5 18T443 71.5t44 71.5 16 87-16 87-44 71.5-66.5 48.5-84.5 18q-48 0-86.5-18.5T140 387t-41.5-72T84 229zm186-546h-17l57 228h24z"/><glyph glyph-name="Dcircumflexbelow" unicode="Ḓ" horiz-adv-x="770" d="M698 354q0-92-30-158.5t-83-110T460.5 21 307 0H106v708h201q82 0 153.5-20.5t124.5-64T668 513t30-159zM129 688V20h173q78 0 146.5 19.5t118.5 60T646 203t29 151-29 151.5-79 104T448.5 669 302 688H129zM416-75l103-144h-23L402-87l-94-132h-23L388-75h28z"/><glyph glyph-name="dcircumflexbelow" unicode="ḓ" horiz-adv-x="626" d="M502 756h22V0h-22v124h-3q-30-68-85.5-103T292-14q-50 0-92.5 18.5t-73 51-47.5 77T62 229t17 97 47.5 78 73 51.5T292 474q66 0 121.5-35T499 335h3v421zM84 229q0-45 14.5-86T140 71.5 205.5 23 292 5q46 0 84.5 18T443 71.5t44 71.5 16 87-16 87-44 71.5-66.5 48.5-84.5 18q-48 0-86.5-18.5T140 387t-41.5-72T84 229zM307-89l103-144h-23l-94 132-94-132h-23L279-89h28z"/><glyph glyph-name="Emacrongrave" unicode="Ḕ" horiz-adv-x="590" d="M106 0v708h412v-20H127V377h368v-20H127V20h407V0H106zm98 783v20h232v-20H204zm78 239 103-144h-19l-111 144h27z"/><glyph glyph-name="emacrongrave" unicode="ḕ" horiz-adv-x="556" d="M84 235q0-42 12.5-83t38-73.5T199 26t92-20q54 0 96 21.5T460 90l16-14q-34-44-79.5-67T291-14q-51 0-93 18.5T125.5 56t-47 79T62 235q0 52 17 96t46.5 76 69.5 49.5 86 17.5q54 0 94-19t66.5-50 39.5-70.5 13-80.5v-19H84zm389 19q-1 45-15.5 82T418 399.5t-60 41-78 14.5q-52 0-89-21.5t-60.5-53-34.5-66T85 254h388zM162 549v20h232v-20H162zm78 239 103-144h-19L213 788h27z"/><glyph glyph-name="Emacronacute" unicode="Ḗ" horiz-adv-x="590" d="M106 0v708h412v-20H127V377h368v-20H127V20h407V0H106zm98 783v20h232v-20H204zm70 95h-19l103 144h27z"/><glyph glyph-name="emacronacute" unicode="ḗ" horiz-adv-x="556" d="M84 235q0-42 12.5-83t38-73.5T199 26t92-20q54 0 96 21.5T460 90l16-14q-34-44-79.5-67T291-14q-51 0-93 18.5T125.5 56t-47 79T62 235q0 52 17 96t46.5 76 69.5 49.5 86 17.5q54 0 94-19t66.5-50 39.5-70.5 13-80.5v-19H84zm389 19q-1 45-15.5 82T418 399.5t-60 41-78 14.5q-52 0-89-21.5t-60.5-53-34.5-66T85 254h388zM162 549v20h232v-20H162zm70 95h-19l103 144h27z"/><glyph glyph-name="Ecircumflexbelow" unicode="Ḙ" horiz-adv-x="590" d="M106 0v708h412v-20H127V377h368v-20H127V20h407V0H106zm228-75 103-144h-23L320-87l-94-132h-23L306-75h28z"/><glyph glyph-name="ecircumflexbelow" unicode="ḙ" horiz-adv-x="556" d="M84 235q0-42 12.5-83t38-73.5T199 26t92-20q54 0 96 21.5T460 90l16-14q-34-44-79.5-67T291-14q-51 0-93 18.5T125.5 56t-47 79T62 235q0 52 17 96t46.5 76 69.5 49.5 86 17.5q54 0 94-19t66.5-50 39.5-70.5 13-80.5v-19H84zm389 19q-1 45-15.5 82T418 399.5t-60 41-78 14.5q-52 0-89-21.5t-60.5-53-34.5-66T85 254h388zM292-89l103-144h-23l-94 132-94-132h-23L264-89h28z"/><glyph glyph-name="Etildebelow" unicode="Ḛ" horiz-adv-x="590" d="M106 0v708h412v-20H127V377h368v-20H127V20h407V0H106zm217-99q13-8 22-13t15.5-7.5 11-3 10.5-.5q33 0 40 48h16q-4-36-20-51.5T382-142q-16 0-28.5 5T318-118q-26 16-37 20t-22 4q-32 0-40-51h-16q4 36 20 53t36 17q16 0 29-5t35-19z"/><glyph glyph-name="etildebelow" unicode="ḛ" horiz-adv-x="556" d="M84 235q0-42 12.5-83t38-73.5T199 26t92-20q54 0 96 21.5T460 90l16-14q-34-44-79.5-67T291-14q-51 0-93 18.5T125.5 56t-47 79T62 235q0 52 17 96t46.5 76 69.5 49.5 86 17.5q54 0 94-19t66.5-50 39.5-70.5 13-80.5v-19H84zm389 19q-1 45-15.5 82T418 399.5t-60 41-78 14.5q-52 0-89-21.5t-60.5-53-34.5-66T85 254h388zM281-113q13-8 22-13t15.5-7.5 11-3 10.5-.5q33 0 40 48h16q-4-36-20-51.5T340-156q-16 0-28.5 5T276-132q-26 16-37 20t-22 4q-32 0-40-51h-16q4 36 20 53t36 17q16 0 29-5t35-19z"/><glyph glyph-name="Ecedillabreve" unicode="Ḝ" horiz-adv-x="590" d="M106 0v708h412v-20H127V377h368v-20H127V20h407V0H106zm340 909q-10-61-43.5-93.5T319 783q-49 0-82.5 32.5T195 909h19q10-52 38-79t67-27q45 0 71 25t38 81h18zM421-146q0-24-11.5-39.5T381-210t-36.5-12.5T309-226q-19 0-43.5 5T219-206l5 17q19-10 43.5-14t42.5-4q15 0 30.5 2.5t29 9 22 18.5 8.5 31q0 16-7 26t-17.5 15.5-23 7.5-24.5 2q-14 0-35.5-4T259-110l-10 9L318 0h21l-59-86q14 5 27 6.5t27 1.5q15 0 30.5-3.5t28-11 20.5-21 8-32.5z"/><glyph glyph-name="ecedillabreve" unicode="ḝ" horiz-adv-x="556" d="M84 235q0-42 12.5-83t38-73.5T199 26t92-20q54 0 96 21.5T460 90l16-14q-34-44-79.5-67T291-14q-51 0-93 18.5T125.5 56t-47 79T62 235q0 52 17 96t46.5 76 69.5 49.5 86 17.5q54 0 94-19t66.5-50 39.5-70.5 13-80.5v-19H84zm389 19q-1 45-15.5 82T418 399.5t-60 41-78 14.5q-52 0-89-21.5t-60.5-53-34.5-66T85 254h388zm-69 421q-10-61-43.5-93.5T277 549q-49 0-82.5 32.5T153 675h19q10-52 38-79t67-27q45 0 71 25t38 81h18zm-25-835q0-24-11.5-39.5T339-224t-36.5-12.5T267-240q-19 0-43.5 5T177-220l5 17q19-10 43.5-14t42.5-4q15 0 30.5 2.5t29 9 22 18.5 8.5 31q0 16-7 26t-17.5 15.5-23 7.5-24.5 2q-14 0-35.5-4T217-124l-10 9 69 101h21l-59-86q14 5 27 6.5t27 1.5q15 0 30.5-3.5t28-11 20.5-21 8-32.5z"/><glyph glyph-name="uni1E1E" unicode="Ḟ" horiz-adv-x="560" d="M128 688V377h355v-20H128V0h-22v708h404v-20H128zm180 145q-9 0-16 7t-7 19q0 11 7 18t16 7 16-7 7-18q0-12-7.5-19t-15.5-7z"/><glyph glyph-name="uni1E1F" unicode="ḟ" horiz-adv-x="282" d="M282 745q-10 2-20 3.5t-21 1.5q-27 0-46-11t-30.5-28.5T148 671t-5-45V460h125v-19H143V0h-22v441H24v19h96v165q0 42 11 70t28.5 44 38.5 22.5 42 6.5q26 0 46-6zM160 853q-9 0-16 7t-7 19q0 11 7 18t16 7 16-7 7-18q0-12-7.5-19t-15.5-7z"/><glyph glyph-name="Gmacron" unicode="Ḡ" horiz-adv-x="795" d="M699 41Q657 18 593-1T445-20 292 9 174 88.5t-75.5 119T72 356t27 148.5 75.5 118T291 700t150 28q72 0 132-22t106-60l-16-16q-20 19-46.5 33.5t-56 24.5-60.5 15-60 5q-78 0-142-27.5T188.5 605t-70-112T94 356t24-138 69.5-113.5 111-76.5T447 0q72 0 128 15t103 38v278H494v19h205V41zM269 803v20h232v-20H269z"/><glyph glyph-name="gmacron" unicode="ḡ" horiz-adv-x="626" d="M502 124h-3q-13-34-35-59.5t-49-43T356.5-5 292-14q-50 0-92.5 18.5t-73 51-47.5 77T62 229t17 97 47.5 78 73 51.5T292 474q66 0 121.5-35T499 335h3v125h22V26q0-55-11.5-105t-38-88-70-60.5T297-250q-65 0-116 22.5T94-164l15 15q38-43 86.5-62.5T297-231q60 0 100 22t63 58 32.5 82.5T502 28v96zM84 229q0-45 14.5-86T140 71t65.5-49T292 4q46 0 84.5 18T443 71t44 72 16 87-16 87-44 71.5-66.5 48.5-84.5 18q-48 0-86.5-18.5T140 387t-41.5-72T84 229zm93 320v20h232v-20H177z"/><glyph glyph-name="uni1E22" unicode="Ḣ" horiz-adv-x="732" d="M604 0v356H128V0h-22v708h22V376h476v332h22V0h-22zM367 833q-9 0-16 7t-7 19q0 11 7 18t16 7 16-7 7-18q0-12-7.5-19t-15.5-7z"/><glyph glyph-name="uni1E23" unicode="ḣ" horiz-adv-x="569" d="M126 339q10 32 28.5 57t42.5 42.5 52 26.5 58 9q48 0 80-17t51-45 27-63 8-71V0h-22v276q0 28-6 60t-22.5 58-44.5 43.5-71 17.5q-38 0-71.5-15.5t-58-44.5-39-70.5T124 230V0h-22v756h22V339h2zm158 458q-9 0-16 7t-7 19q0 11 7 18t16 7 16-7 7-18q0-12-7.5-19t-15.5-7z"/><glyph glyph-name="Hdotbelow" unicode="Ḥ" horiz-adv-x="732" d="M604 0v356H128V0h-22v708h22V376h476v332h22V0h-22zM366-126q-9 0-16 7t-7 19q0 11 7 18t16 7 16-7 7-18q0-12-7.5-19t-15.5-7z"/><glyph glyph-name="hdotbelow" unicode="ḥ" horiz-adv-x="569" d="M126 339q10 32 28.5 57t42.5 42.5 52 26.5 58 9q48 0 80-17t51-45 27-63 8-71V0h-22v276q0 28-6 60t-22.5 58-44.5 43.5-71 17.5q-38 0-71.5-15.5t-58-44.5-39-70.5T124 230V0h-22v756h22V339h2zm161-465q-9 0-16 7t-7 19q0 11 7 18t16 7 16-7 7-18q0-12-7.5-19t-15.5-7z"/><glyph glyph-name="Hdieresis" unicode="Ḧ" horiz-adv-x="732" d="M604 0v356H128V0h-22v708h22V376h476v332h22V0h-22zM289 783q-9 0-16 7t-7 19q0 11 7 18t16 7 16-7 7-18q0-12-7.5-19t-15.5-7zm154 0q-9 0-16 7t-7 19q0 11 7 18t16 7 16-7 7-18q0-12-7.5-19t-15.5-7z"/><glyph glyph-name="hdieresis" unicode="ḧ" horiz-adv-x="569" d="M126 339q10 32 28.5 57t42.5 42.5 52 26.5 58 9q48 0 80-17t51-45 27-63 8-71V0h-22v276q0 28-6 60t-22.5 58-44.5 43.5-71 17.5q-38 0-71.5-15.5t-58-44.5-39-70.5T124 230V0h-22v756h22V339h2zm84 492q-9 0-16 7t-7 19q0 11 7 18t16 7 16-7 7-18q0-12-7.5-19t-15.5-7zm154 0q-9 0-16 7t-7 19q0 11 7 18t16 7 16-7 7-18q0-12-7.5-19t-15.5-7z"/><glyph glyph-name="Hcedilla" unicode="Ḩ" horiz-adv-x="732" d="M604 0v356H128V0h-22v708h22V376h476v332h22V0h-22zM219-146q0-24-11.5-39.5T179-210t-36.5-12.5T107-226q-19 0-43.5 5T17-206l5 17q19-10 43.5-14t42.5-4q15 0 30.5 2.5t29 9 22 18.5 8.5 31q0 16-7 26t-17.5 15.5-23 7.5-24.5 2q-14 0-35.5-4T57-110l-10 9L116 0h21L78-86q14 5 27 6.5t27 1.5q15 0 30.5-3.5t28-11 20.5-21 8-32.5z"/><glyph glyph-name="hcedilla" unicode="ḩ" horiz-adv-x="569" d="M126 339q10 32 28.5 57t42.5 42.5 52 26.5 58 9q48 0 80-17t51-45 27-63 8-71V0h-22v276q0 28-6 60t-22.5 58-44.5 43.5-71 17.5q-38 0-71.5-15.5t-58-44.5-39-70.5T124 230V0h-22v756h22V339h2zm93-485q0-24-11.5-39.5T179-210t-36.5-12.5T107-226q-19 0-43.5 5T17-206l5 17q19-10 43.5-14t42.5-4q15 0 30.5 2.5t29 9 22 18.5 8.5 31q0 16-7 26t-17.5 15.5-23 7.5-24.5 2q-14 0-35.5-4T57-110l-10 9L116 0h21L78-86q14 5 27 6.5t27 1.5q15 0 30.5-3.5t28-11 20.5-21 8-32.5z"/><glyph glyph-name="Hbrevebelow" unicode="Ḫ" horiz-adv-x="732" d="M604 0v356H128V0h-22v708h22V376h476v332h22V0h-22zM492-75q-10-61-43.5-93.5T365-201q-49 0-82.5 32.5T241-75h19q10-52 38-79t67-27q45 0 71 25t38 81h18z"/><glyph glyph-name="hbrevebelow" unicode="ḫ" horiz-adv-x="569" d="M126 339q10 32 28.5 57t42.5 42.5 52 26.5 58 9q48 0 80-17t51-45 27-63 8-71V0h-22v276q0 28-6 60t-22.5 58-44.5 43.5-71 17.5q-38 0-71.5-15.5t-58-44.5-39-70.5T124 230V0h-22v756h22V339h2zM413-75q-10-61-43.5-93.5T286-201q-49 0-82.5 32.5T162-75h19q10-52 38-79t67-27q45 0 71 25t38 81h18z"/><glyph glyph-name="Itildebelow" unicode="Ḭ" horiz-adv-x="234" d="M106 0v708h22V0h-22zm14-99q13-8 22-13t15.5-7.5 11-3 10.5-.5q33 0 40 48h16q-4-36-20-51.5T179-142q-16 0-28.5 5T115-118q-26 16-37 20t-22 4q-32 0-40-51H0q4 36 20 53t36 17q16 0 29-5t35-19z"/><glyph glyph-name="itildebelow" unicode="ḭ" horiz-adv-x="226" d="M113 633q-9 0-16 7t-7 19q0 11 7 18t16 7 16-7 7-18q0-12-7.5-19t-15.5-7zM102 0v460h22V0h-22zm14-99q13-8 22-13t15.5-7.5 11-3 10.5-.5q33 0 40 48h16q-4-36-20-51.5T175-142q-16 0-28.5 5T111-118q-26 16-37 20t-22 4q-32 0-40-51H-4q4 36 20 53t36 17q16 0 29-5t35-19z"/><glyph glyph-name="Idieresisacute" unicode="Ḯ" horiz-adv-x="234" d="M106 0v708h22V0h-22zM40 783q-9 0-16 7t-7 19q0 11 7 18t16 7 16-7 7-18q0-12-7.5-19T40 783zm154 0q-9 0-16 7t-7 19q0 11 7 18t16 7 16-7 7-18q0-12-7.5-19t-15.5-7zM71 909H52l103 144h27z"/><glyph glyph-name="idieresisacute" unicode="ḯ" horiz-adv-x="226" d="M102 0v460h22V0h-22zM36 535q-9 0-16 7t-7 19q0 11 7 18t16 7 16-7 7-18q0-12-7.5-19T36 535zm154 0q-9 0-16 7t-7 19q0 11 7 18t16 7 16-7 7-18q0-12-7.5-19t-15.5-7zM67 661H48l103 144h27z"/><glyph glyph-name="Kacute" unicode="Ḱ" horiz-adv-x="565" d="m129 383 356 325h32L157 383 535 0h-31L129 381h-1V0h-22v708h22V383h1zm145 400h-19l103 144h27z"/><glyph glyph-name="kacute" unicode="ḱ" horiz-adv-x="445" d="m125 248 238 212h31L151 247 422 0h-33L125 243h-1V0h-22v756h22V248h1zm91 583h-19l103 144h27z"/><glyph glyph-name="Kdotbelow" unicode="Ḳ" horiz-adv-x="565" d="m129 383 356 325h32L157 383 535 0h-31L129 381h-1V0h-22v708h22V383h1zm191-509q-9 0-16 7t-7 19q0 11 7 18t16 7 16-7 7-18q0-12-7.5-19t-15.5-7z"/><glyph glyph-name="kdotbelow" unicode="ḳ" horiz-adv-x="445" d="m125 248 238 212h31L151 247 422 0h-33L125 243h-1V0h-22v756h22V248h1zm137-374q-9 0-16 7t-7 19q0 11 7 18t16 7 16-7 7-18q0-12-7.5-19t-15.5-7z"/><glyph glyph-name="Klinebelow" unicode="Ḵ" horiz-adv-x="565" d="m129 383 356 325h32L157 383 535 0h-31L129 381h-1V0h-22v708h22V383h1zm75-478v20h232v-20H204z"/><glyph glyph-name="klinebelow" unicode="ḵ" horiz-adv-x="445" d="m125 248 238 212h31L151 247 422 0h-33L125 243h-1V0h-22v756h22V248h1zm21-343v20h232v-20H146z"/><glyph glyph-name="Ldotbelow" unicode="Ḷ" horiz-adv-x="498" d="M106 0v708h22V20h352V0H106zm187-126q-9 0-16 7t-7 19q0 11 7 18t16 7 16-7 7-18q0-12-7.5-19t-15.5-7z"/><glyph glyph-name="ldotbelow" unicode="ḷ" horiz-adv-x="226" d="M102 0v756h22V0h-22zm11-126q-9 0-16 7t-7 19q0 11 7 18t16 7 16-7 7-18q0-12-7.5-19t-15.5-7z"/><glyph glyph-name="Ldotbelowmacron" unicode="Ḹ" horiz-adv-x="498" d="M106 0v708h22V20h352V0H106zm187-126q-9 0-16 7t-7 19q0 11 7 18t16 7 16-7 7-18q0-12-7.5-19t-15.5-7zM177 783v20h232v-20H177z"/><glyph glyph-name="ldotbelowmacron" unicode="ḹ" horiz-adv-x="226" d="M102 0v756h22V0h-22zm11-126q-9 0-16 7t-7 19q0 11 7 18t16 7 16-7 7-18q0-12-7.5-19t-15.5-7zM-3 831v20h232v-20H-3z"/><glyph glyph-name="Llinebelow" unicode="Ḻ" horiz-adv-x="498" d="M106 0v708h22V20h352V0H106zm71-95v20h232v-20H177z"/><glyph glyph-name="llinebelow" unicode="ḻ" horiz-adv-x="226" d="M102 0v756h22V0h-22zM-3-95v20h232v-20H-3z"/><glyph glyph-name="Lcircumflexbelow" unicode="Ḽ" horiz-adv-x="498" d="M106 0v708h22V20h352V0H106zm201-75 103-144h-23L293-87l-94-132h-23L279-75h28z"/><glyph glyph-name="lcircumflexbelow" unicode="ḽ" horiz-adv-x="226" d="M102 0v756h22V0h-22zm25-75 103-144h-23L113-87 19-219H-4L99-75h28z"/><glyph glyph-name="Macute" unicode="Ḿ" horiz-adv-x="906" d="M778 0v683h-4L461 0h-18L131 683h-3V0h-22v708h39L453 32l308 676h39V0h-22zM407 783h-19l103 144h27z"/><glyph glyph-name="macute" unicode="ḿ" horiz-adv-x="889" d="M454 333q20 68 68 104.5T631 474q46 0 77.5-17t50-45 26.5-63 8-71V0h-22v276q0 28-6.5 60T742 394t-43 43.5-68 17.5q-36 0-67.5-15.5t-55-44.5-37.5-70.5-14-94.5V0h-22v276q0 28-5.5 60T409 394t-41.5 43.5T300 455q-36 0-67.5-15.5t-55-44.5-37-70.5T127 230V0h-22v344q0 11-.5 27t-1 32.5T102 435t-2 25h22q1-10 1.5-25t1-32.5 1-34 .5-29.5h2q10 32 28 57t40.5 42.5 49 26.5 54.5 9q36 0 62.5-11t44.5-30 29-44.5 16-55.5h2zm-54 216h-19l103 144h27z"/><glyph glyph-name="Mdotaccent" unicode="Ṁ" horiz-adv-x="906" d="M778 0v683h-4L461 0h-18L131 683h-3V0h-22v708h39L453 32l308 676h39V0h-22zM453 783q-9 0-16 7t-7 19q0 11 7 18t16 7 16-7 7-18q0-12-7.5-19t-15.5-7z"/><glyph glyph-name="mdotaccent" unicode="ṁ" horiz-adv-x="889" d="M454 333q20 68 68 104.5T631 474q46 0 77.5-17t50-45 26.5-63 8-71V0h-22v276q0 28-6.5 60T742 394t-43 43.5-68 17.5q-36 0-67.5-15.5t-55-44.5-37.5-70.5-14-94.5V0h-22v276q0 28-5.5 60T409 394t-41.5 43.5T300 455q-36 0-67.5-15.5t-55-44.5-37-70.5T127 230V0h-22v344q0 11-.5 27t-1 32.5T102 435t-2 25h22q1-10 1.5-25t1-32.5 1-34 .5-29.5h2q10 32 28 57t40.5 42.5 49 26.5 54.5 9q36 0 62.5-11t44.5-30 29-44.5 16-55.5h2zm-8 216q-9 0-16 7t-7 19q0 11 7 18t16 7 16-7 7-18q0-12-7.5-19t-15.5-7z"/><glyph glyph-name="Mdotbelow" unicode="Ṃ" horiz-adv-x="906" d="M778 0v683h-4L461 0h-18L131 683h-3V0h-22v708h39L453 32l308 676h39V0h-22zM453-126q-9 0-16 7t-7 19q0 11 7 18t16 7 16-7 7-18q0-12-7.5-19t-15.5-7z"/><glyph glyph-name="mdotbelow" unicode="ṃ" horiz-adv-x="889" d="M454 333q20 68 68 104.5T631 474q46 0 77.5-17t50-45 26.5-63 8-71V0h-22v276q0 28-6.5 60T742 394t-43 43.5-68 17.5q-36 0-67.5-15.5t-55-44.5-37.5-70.5-14-94.5V0h-22v276q0 28-5.5 60T409 394t-41.5 43.5T300 455q-36 0-67.5-15.5t-55-44.5-37-70.5T127 230V0h-22v344q0 11-.5 27t-1 32.5T102 435t-2 25h22q1-10 1.5-25t1-32.5 1-34 .5-29.5h2q10 32 28 57t40.5 42.5 49 26.5 54.5 9q36 0 62.5-11t44.5-30 29-44.5 16-55.5h2zm-8-459q-9 0-16 7t-7 19q0 11 7 18t16 7 16-7 7-18q0-12-7.5-19t-15.5-7z"/><glyph glyph-name="Ndotaccent" unicode="Ṅ" horiz-adv-x="777" d="M639 0 131 680h-3V0h-22v708h31L646 29h3v679h22V0h-32zM388 783q-9 0-16 7t-7 19q0 11 7 18t16 7 16-7 7-18q0-12-7.5-19t-15.5-7z"/><glyph glyph-name="ndotaccent" unicode="ṅ" horiz-adv-x="572" d="M128 339q10 32 29 57t43 42.5 52 26.5 58 9q48 0 80-17t51-45 27-63 8-71V0h-22v276q0 28-6 60t-22.5 58-44.5 43.5-71 17.5q-38 0-71.5-15.5t-58-44.5-39-70.5T127 230V0h-22v344q0 11-.5 27t-1 32.5T102 435t-2 25h22q1-10 1.5-25t1-32.5 1-34 .5-29.5h2zm160 210q-9 0-16 7t-7 19q0 11 7 18t16 7 16-7 7-18q0-12-7.5-19t-15.5-7z"/><glyph glyph-name="Ndotbelow" unicode="Ṇ" horiz-adv-x="777" d="M639 0 131 680h-3V0h-22v708h31L646 29h3v679h22V0h-32zM388-126q-9 0-16 7t-7 19q0 11 7 18t16 7 16-7 7-18q0-12-7.5-19t-15.5-7z"/><glyph glyph-name="ndotbelow" unicode="ṇ" horiz-adv-x="572" d="M128 339q10 32 29 57t43 42.5 52 26.5 58 9q48 0 80-17t51-45 27-63 8-71V0h-22v276q0 28-6 60t-22.5 58-44.5 43.5-71 17.5q-38 0-71.5-15.5t-58-44.5-39-70.5T127 230V0h-22v344q0 11-.5 27t-1 32.5T102 435t-2 25h22q1-10 1.5-25t1-32.5 1-34 .5-29.5h2zm160-465q-9 0-16 7t-7 19q0 11 7 18t16 7 16-7 7-18q0-12-7.5-19t-15.5-7z"/><glyph glyph-name="Nlinebelow" unicode="Ṉ" horiz-adv-x="777" d="M639 0 131 680h-3V0h-22v708h31L646 29h3v679h22V0h-32zM272-95v20h232v-20H272z"/><glyph glyph-name="nlinebelow" unicode="ṉ" horiz-adv-x="572" d="M128 339q10 32 29 57t43 42.5 52 26.5 58 9q48 0 80-17t51-45 27-63 8-71V0h-22v276q0 28-6 60t-22.5 58-44.5 43.5-71 17.5q-38 0-71.5-15.5t-58-44.5-39-70.5T127 230V0h-22v344q0 11-.5 27t-1 32.5T102 435t-2 25h22q1-10 1.5-25t1-32.5 1-34 .5-29.5h2zm44-434v20h232v-20H172z"/><glyph glyph-name="Ncircumflexbelow" unicode="Ṋ" horiz-adv-x="777" d="M639 0 131 680h-3V0h-22v708h31L646 29h3v679h22V0h-32zM402-75l103-144h-23L388-87l-94-132h-23L374-75h28z"/><glyph glyph-name="ncircumflexbelow" unicode="ṋ" horiz-adv-x="572" d="M128 339q10 32 29 57t43 42.5 52 26.5 58 9q48 0 80-17t51-45 27-63 8-71V0h-22v276q0 28-6 60t-22.5 58-44.5 43.5-71 17.5q-38 0-71.5-15.5t-58-44.5-39-70.5T127 230V0h-22v344q0 11-.5 27t-1 32.5T102 435t-2 25h22q1-10 1.5-25t1-32.5 1-34 .5-29.5h2zM302-75l103-144h-23L288-87l-94-132h-23L274-75h28z"/><glyph glyph-name="Otildeacute" unicode="Ṍ" horiz-adv-x="872" d="M800 354q0-82-27.5-150.5t-76-118T581 8 436-20 291 8 175.5 85.5t-76 118T72 354t27.5 150.5 76 118 115 77.5T436 728t145.5-28 115-77.5 76-118T800 354zm-22 0q0 74-25 138.5T682.5 605 574 680.5 436 708t-138-27.5T189.5 605 119 492.5 94 354t24.5-138.5T188 103t108-75.5T436 0t140 27.5T684 103t69.5 112.5T778 354zM439 849q13-8 22-13t15.5-7.5 11-3 10.5-.5q33 0 40 48h16q-4-36-20-51.5T498 806q-16 0-28.5 5T434 830q-26 16-37 20t-22 4q-32 0-40-51h-16q4 36 20 53t36 17q16 0 29-5t35-19zm-49 99h-19l103 144h27z"/><glyph glyph-name="otildeacute" unicode="ṍ" horiz-adv-x="605" d="M543 231q0-54-17.5-99T476 54.5 399.5 4 302-14 205 4t-76 50.5T79.5 132 62 231t17.5 98.5T129 406t76 50 97 18 97.5-18 76.5-50 49.5-76.5T543 231zm-22 0q0 46-15 87t-43.5 71.5-69 48T302 455t-91-17.5-68.5-48T99 318t-15-87q0-47 15-88t43.5-71.5T211 23t91-18 91.5 18 69 48.5T506 143t15 88zM305 595q13-8 22-13t15.5-7.5 11-3 10.5-.5q33 0 40 48h16q-4-36-20-51.5T364 552q-16 0-28.5 5T300 576q-26 16-37 20t-22 4q-32 0-40-51h-16q4 36 20 53t36 17q16 0 29-5t35-19zm-49 99h-19l103 144h27z"/><glyph glyph-name="Otildedieresis" unicode="Ṏ" horiz-adv-x="872" d="M800 354q0-82-27.5-150.5t-76-118T581 8 436-20 291 8 175.5 85.5t-76 118T72 354t27.5 150.5 76 118 115 77.5T436 728t145.5-28 115-77.5 76-118T800 354zm-22 0q0 74-25 138.5T682.5 605 574 680.5 436 708t-138-27.5T189.5 605 119 492.5 94 354t24.5-138.5T188 103t108-75.5T436 0t140 27.5T684 103t69.5 112.5T778 354zM439 849q13-8 22-13t15.5-7.5 11-3 10.5-.5q33 0 40 48h16q-4-36-20-51.5T498 806q-16 0-28.5 5T434 830q-26 16-37 20t-22 4q-32 0-40-51h-16q4 36 20 53t36 17q16 0 29-5t35-19zm-80 99q-9 0-16 7t-7 19q0 11 7 18t16 7 16-7 7-18q0-12-7.5-19t-15.5-7zm154 0q-9 0-16 7t-7 19q0 11 7 18t16 7 16-7 7-18q0-12-7.5-19t-15.5-7z"/><glyph glyph-name="otildedieresis" unicode="ṏ" horiz-adv-x="605" d="M543 231q0-54-17.5-99T476 54.5 399.5 4 302-14 205 4t-76 50.5T79.5 132 62 231t17.5 98.5T129 406t76 50 97 18 97.5-18 76.5-50 49.5-76.5T543 231zm-22 0q0 46-15 87t-43.5 71.5-69 48T302 455t-91-17.5-68.5-48T99 318t-15-87q0-47 15-88t43.5-71.5T211 23t91-18 91.5 18 69 48.5T506 143t15 88zM305 595q13-8 22-13t15.5-7.5 11-3 10.5-.5q33 0 40 48h16q-4-36-20-51.5T364 552q-16 0-28.5 5T300 576q-26 16-37 20t-22 4q-32 0-40-51h-16q4 36 20 53t36 17q16 0 29-5t35-19zm-80 99q-9 0-16 7t-7 19q0 11 7 18t16 7 16-7 7-18q0-12-7.5-19t-15.5-7zm154 0q-9 0-16 7t-7 19q0 11 7 18t16 7 16-7 7-18q0-12-7.5-19t-15.5-7z"/><glyph glyph-name="Omacrongrave" unicode="Ṑ" horiz-adv-x="872" d="M800 354q0-82-27.5-150.5t-76-118T581 8 436-20 291 8 175.5 85.5t-76 118T72 354t27.5 150.5 76 118 115 77.5T436 728t145.5-28 115-77.5 76-118T800 354zm-22 0q0 74-25 138.5T682.5 605 574 680.5 436 708t-138-27.5T189.5 605 119 492.5 94 354t24.5-138.5T188 103t108-75.5T436 0t140 27.5T684 103t69.5 112.5T778 354zM320 803v20h232v-20H320zm78 239 103-144h-19l-111 144h27z"/><glyph glyph-name="omacrongrave" unicode="ṑ" horiz-adv-x="605" d="M543 231q0-54-17.5-99T476 54.5 399.5 4 302-14 205 4t-76 50.5T79.5 132 62 231t17.5 98.5T129 406t76 50 97 18 97.5-18 76.5-50 49.5-76.5T543 231zm-22 0q0 46-15 87t-43.5 71.5-69 48T302 455t-91-17.5-68.5-48T99 318t-15-87q0-47 15-88t43.5-71.5T211 23t91-18 91.5 18 69 48.5T506 143t15 88zM186 549v20h232v-20H186zm78 239 103-144h-19L237 788h27z"/><glyph glyph-name="Omacronacute" unicode="Ṓ" horiz-adv-x="872" d="M800 354q0-82-27.5-150.5t-76-118T581 8 436-20 291 8 175.5 85.5t-76 118T72 354t27.5 150.5 76 118 115 77.5T436 728t145.5-28 115-77.5 76-118T800 354zm-22 0q0 74-25 138.5T682.5 605 574 680.5 436 708t-138-27.5T189.5 605 119 492.5 94 354t24.5-138.5T188 103t108-75.5T436 0t140 27.5T684 103t69.5 112.5T778 354zM320 803v20h232v-20H320zm70 95h-19l103 144h27z"/><glyph glyph-name="omacronacute" unicode="ṓ" horiz-adv-x="605" d="M543 231q0-54-17.5-99T476 54.5 399.5 4 302-14 205 4t-76 50.5T79.5 132 62 231t17.5 98.5T129 406t76 50 97 18 97.5-18 76.5-50 49.5-76.5T543 231zm-22 0q0 46-15 87t-43.5 71.5-69 48T302 455t-91-17.5-68.5-48T99 318t-15-87q0-47 15-88t43.5-71.5T211 23t91-18 91.5 18 69 48.5T506 143t15 88zM186 549v20h232v-20H186zm70 95h-19l103 144h27z"/><glyph glyph-name="Pacute" unicode="Ṕ" horiz-adv-x="572" d="M517 532q0-45-16.5-79.5T456 395t-65.5-35-79.5-12H128V0h-22v708h192q38 0 77-8.5t70.5-28.5 51.5-54 20-85zm-22 0q0 45-17 75t-44 48-60.5 26-66.5 8H128V367h184q33 0 66 9t59 29 42 51.5 16 75.5zM265 783h-19l103 144h27z"/><glyph glyph-name="pacute" unicode="ṕ" horiz-adv-x="626" d="M127 335q30 69 85.5 104T334 474q51 0 93.5-18.5t73-51 47-77.5 16.5-98q0-52-17-96.5t-47.5-77-73-51T334-14q-33 0-64.5 9T211 21.5t-49 43-35 59.5h-3v-364h-22v700h22V335h3zm415-106q0 45-14.5 86T486 387t-65.5 49.5T334 455q-46 0-84.5-18T183 388.5 139 317t-16-87 16-87 44-71.5T249.5 23 334 5q48 0 86.5 18T486 71.5t41.5 71.5 14.5 86zM287 549h-19l103 144h27z"/><glyph glyph-name="uni1E56" unicode="Ṗ" horiz-adv-x="572" d="M517 532q0-45-16.5-79.5T456 395t-65.5-35-79.5-12H128V0h-22v708h192q38 0 77-8.5t70.5-28.5 51.5-54 20-85zm-22 0q0 45-17 75t-44 48-60.5 26-66.5 8H128V367h184q33 0 66 9t59 29 42 51.5 16 75.5zM300 833q-9 0-16 7t-7 19q0 11 7 18t16 7 16-7 7-18q0-12-7.5-19t-15.5-7z"/><glyph glyph-name="uni1E57" unicode="ṗ" horiz-adv-x="626" d="M127 335q30 69 85.5 104T334 474q51 0 93.5-18.5t73-51 47-77.5 16.5-98q0-52-17-96.5t-47.5-77-73-51T334-14q-33 0-64.5 9T211 21.5t-49 43-35 59.5h-3v-364h-22v700h22V335h3zm415-106q0 45-14.5 86T486 387t-65.5 49.5T334 455q-46 0-84.5-18T183 388.5 139 317t-16-87 16-87 44-71.5T249.5 23 334 5q48 0 86.5 18T486 71.5t41.5 71.5 14.5 86zM330 633q-9 0-16 7t-7 19q0 11 7 18t16 7 16-7 7-18q0-12-7.5-19t-15.5-7z"/><glyph glyph-name="Rdotaccent" unicode="Ṙ" horiz-adv-x="594" d="M508 0 294 357H128V0h-22v708h196q39 0 79-7t71.5-26.5T504 621t20-88q0-50-19-83t-49-53.5-66.5-29.5-71.5-9L533 0h-25zm-6 533q0 46-18 76.5t-47.5 48-68 24.5-78.5 7H128V376h173q98 0 149.5 41T502 533zM319 783q-9 0-16 7t-7 19q0 11 7 18t16 7 16-7 7-18q0-12-7.5-19t-15.5-7z"/><glyph glyph-name="rdotaccent" unicode="ṙ" horiz-adv-x="317" d="M128 339q20 72 64 103.5t95 31.5h9l9-1v-19q-4 1-7.5 1H292q-44 0-75-19.5t-51-51-29.5-70T127 238V0h-22v344q0 11-.5 27t-1 32.5T102 435t-2 25h22q1-10 1.5-25t1-32.5 1-34 .5-29.5h2zm74 210q-9 0-16 7t-7 19q0 11 7 18t16 7 16-7 7-18q0-12-7.5-19t-15.5-7z"/><glyph glyph-name="Rdotbelow" unicode="Ṛ" horiz-adv-x="594" d="M508 0 294 357H128V0h-22v708h196q39 0 79-7t71.5-26.5T504 621t20-88q0-50-19-83t-49-53.5-66.5-29.5-71.5-9L533 0h-25zm-6 533q0 46-18 76.5t-47.5 48-68 24.5-78.5 7H128V376h173q98 0 149.5 41T502 533zM319-126q-9 0-16 7t-7 19q0 11 7 18t16 7 16-7 7-18q0-12-7.5-19t-15.5-7z"/><glyph glyph-name="rdotbelow" unicode="ṛ" horiz-adv-x="317" d="M128 339q20 72 64 103.5t95 31.5h9l9-1v-19q-4 1-7.5 1H292q-44 0-75-19.5t-51-51-29.5-70T127 238V0h-22v344q0 11-.5 27t-1 32.5T102 435t-2 25h22q1-10 1.5-25t1-32.5 1-34 .5-29.5h2zm74-465q-9 0-16 7t-7 19q0 11 7 18t16 7 16-7 7-18q0-12-7.5-19t-15.5-7z"/><glyph glyph-name="Rdotbelowmacron" unicode="Ṝ" horiz-adv-x="594" d="M508 0 294 357H128V0h-22v708h196q39 0 79-7t71.5-26.5T504 621t20-88q0-50-19-83t-49-53.5-66.5-29.5-71.5-9L533 0h-25zm-6 533q0 46-18 76.5t-47.5 48-68 24.5-78.5 7H128V376h173q98 0 149.5 41T502 533zM203 783v20h232v-20H203zm116-909q-9 0-16 7t-7 19q0 11 7 18t16 7 16-7 7-18q0-12-7.5-19t-15.5-7z"/><glyph glyph-name="rdotbelowmacron" unicode="ṝ" horiz-adv-x="317" d="M128 339q20 72 64 103.5t95 31.5h9l9-1v-19q-4 1-7.5 1H292q-44 0-75-19.5t-51-51-29.5-70T127 238V0h-22v344q0 11-.5 27t-1 32.5T102 435t-2 25h22q1-10 1.5-25t1-32.5 1-34 .5-29.5h2zM86 549v20h232v-20H86zm116-675q-9 0-16 7t-7 19q0 11 7 18t16 7 16-7 7-18q0-12-7.5-19t-15.5-7z"/><glyph glyph-name="Rlinebelow" unicode="Ṟ" horiz-adv-x="594" d="M508 0 294 357H128V0h-22v708h196q39 0 79-7t71.5-26.5T504 621t20-88q0-50-19-83t-49-53.5-66.5-29.5-71.5-9L533 0h-25zm-6 533q0 46-18 76.5t-47.5 48-68 24.5-78.5 7H128V376h173q98 0 149.5 41T502 533zM203-95v20h232v-20H203z"/><glyph glyph-name="rlinebelow" unicode="ṟ" horiz-adv-x="317" d="M128 339q20 72 64 103.5t95 31.5h9l9-1v-19q-4 1-7.5 1H292q-44 0-75-19.5t-51-51-29.5-70T127 238V0h-22v344q0 11-.5 27t-1 32.5T102 435t-2 25h22q1-10 1.5-25t1-32.5 1-34 .5-29.5h2zM86-95v20h232v-20H86z"/><glyph glyph-name="uni1E60" unicode="Ṡ" horiz-adv-x="570" d="M498 170q0-45-17.5-80.5t-46.5-60-68.5-37T283-20q-66 0-120.5 23.5T72 67l17 15q38-41 88.5-61.5T282 0q39 0 74 11.5t62 33 42.5 53T476 170t-17 69-44 48-61.5 33.5T284 345q-44 14-80.5 29.5t-63 38-41 54T85 543q0 44 17.5 78.5t47.5 58 69.5 36T303 728q54 0 102.5-20.5T485 649l-17-15q-28 35-71.5 54.5T302 708q-36 0-70.5-10T169 667.5 124 616t-17-73q0-41 15-69.5t40-48.5 56.5-33 64.5-24q45-15 84-30.5t68.5-37.5 46-53.5T498 170zM302 833q-9 0-16 7t-7 19q0 11 7 18t16 7 16-7 7-18q0-12-7.5-19t-15.5-7z"/><glyph glyph-name="uni1E61" unicode="ṡ" horiz-adv-x="415" d="M361 120q0-31-12-55.5T316.5 23 269-3t-58-9q-51 0-92.5 19.5T50 65l18 12Q118 7 212 7q22 0 44.5 7t41 21 30 35 11.5 48q0 32-14.5 52T288 202t-48.5 19.5T190 235q-25 7-47 15.5t-38.5 22-26 33.5-9.5 50 12 52 32 36.5 45.5 22T210 474q94 0 141-67l-19-11q-23 30-52 44.5T210 455q-19 0-40-5t-38.5-16.5-29-30.5T91 357q0-30 9.5-48t26.5-29 41-18.5 53-14.5q27-7 52.5-16.5t45-23.5 31-35 11.5-52zM214 633q-9 0-16 7t-7 19q0 11 7 18t16 7 16-7 7-18q0-12-7.5-19t-15.5-7z"/><glyph glyph-name="Sdotbelow" unicode="Ṣ" horiz-adv-x="570" d="M498 170q0-45-17.5-80.5t-46.5-60-68.5-37T283-20q-66 0-120.5 23.5T72 67l17 15q38-41 88.5-61.5T282 0q39 0 74 11.5t62 33 42.5 53T476 170t-17 69-44 48-61.5 33.5T284 345q-44 14-80.5 29.5t-63 38-41 54T85 543q0 44 17.5 78.5t47.5 58 69.5 36T303 728q54 0 102.5-20.5T485 649l-17-15q-28 35-71.5 54.5T302 708q-36 0-70.5-10T169 667.5 124 616t-17-73q0-41 15-69.5t40-48.5 56.5-33 64.5-24q45-15 84-30.5t68.5-37.5 46-53.5T498 170zM285-146q-9 0-16 7t-7 19q0 11 7 18t16 7 16-7 7-18q0-12-7.5-19t-15.5-7z"/><glyph glyph-name="sdotbelow" unicode="ṣ" horiz-adv-x="415" d="M361 120q0-31-12-55.5T316.5 23 269-3t-58-9q-51 0-92.5 19.5T50 65l18 12Q118 7 212 7q22 0 44.5 7t41 21 30 35 11.5 48q0 32-14.5 52T288 202t-48.5 19.5T190 235q-25 7-47 15.5t-38.5 22-26 33.5-9.5 50 12 52 32 36.5 45.5 22T210 474q94 0 141-67l-19-11q-23 30-52 44.5T210 455q-19 0-40-5t-38.5-16.5-29-30.5T91 357q0-30 9.5-48t26.5-29 41-18.5 53-14.5q27-7 52.5-16.5t45-23.5 31-35 11.5-52zM205-138q-9 0-16 7t-7 19q0 11 7 18t16 7 16-7 7-18q0-12-7.5-19t-15.5-7z"/><glyph glyph-name="Sacutedotaccent" unicode="Ṥ" horiz-adv-x="570" d="M498 170q0-45-17.5-80.5t-46.5-60-68.5-37T283-20q-66 0-120.5 23.5T72 67l17 15q38-41 88.5-61.5T282 0q39 0 74 11.5t62 33 42.5 53T476 170t-17 69-44 48-61.5 33.5T284 345q-44 14-80.5 29.5t-63 38-41 54T85 543q0 44 17.5 78.5t47.5 58 69.5 36T303 728q54 0 102.5-20.5T485 649l-17-15q-28 35-71.5 54.5T302 708q-36 0-70.5-10T169 667.5 124 616t-17-73q0-41 15-69.5t40-48.5 56.5-33 64.5-24q45-15 84-30.5t68.5-37.5 46-53.5T498 170zM239 803h-19l103 144h27zm46 219q-9 0-16 7t-7 19q0 11 7 18t16 7 16-7 7-18q0-12-7.5-19t-15.5-7z"/><glyph glyph-name="sacutedotaccent" unicode="ṥ" horiz-adv-x="415" d="M361 120q0-31-12-55.5T316.5 23 269-3t-58-9q-51 0-92.5 19.5T50 65l18 12Q118 7 212 7q22 0 44.5 7t41 21 30 35 11.5 48q0 32-14.5 52T288 202t-48.5 19.5T190 235q-25 7-47 15.5t-38.5 22-26 33.5-9.5 50 12 52 32 36.5 45.5 22T210 474q94 0 141-67l-19-11q-23 30-52 44.5T210 455q-19 0-40-5t-38.5-16.5-29-30.5T91 357q0-30 9.5-48t26.5-29 41-18.5 53-14.5q27-7 52.5-16.5t45-23.5 31-35 11.5-52zM159 549h-19l103 144h27zm46 219q-9 0-16 7t-7 19q0 11 7 18t16 7 16-7 7-18q0-12-7.5-19t-15.5-7z"/><glyph glyph-name="Scarondotaccent" unicode="Ṧ" horiz-adv-x="570" d="M498 170q0-45-17.5-80.5t-46.5-60-68.5-37T283-20q-66 0-120.5 23.5T72 67l17 15q38-41 88.5-61.5T282 0q39 0 74 11.5t62 33 42.5 53T476 170t-17 69-44 48-61.5 33.5T284 345q-44 14-80.5 29.5t-63 38-41 54T85 543q0 44 17.5 78.5t47.5 58 69.5 36T303 728q54 0 102.5-20.5T485 649l-17-15q-28 35-71.5 54.5T302 708q-36 0-70.5-10T169 667.5 124 616t-17-73q0-41 15-69.5t40-48.5 56.5-33 64.5-24q45-15 84-30.5t68.5-37.5 46-53.5T498 170zM271 803 168 947h23l94-132 94 132h23L299 803h-28zm14 219q-9 0-16 7t-7 19q0 11 7 18t16 7 16-7 7-18q0-12-7.5-19t-15.5-7z"/><glyph glyph-name="scarondotaccent" unicode="ṧ" horiz-adv-x="415" d="M361 120q0-31-12-55.5T316.5 23 269-3t-58-9q-51 0-92.5 19.5T50 65l18 12Q118 7 212 7q22 0 44.5 7t41 21 30 35 11.5 48q0 32-14.5 52T288 202t-48.5 19.5T190 235q-25 7-47 15.5t-38.5 22-26 33.5-9.5 50 12 52 32 36.5 45.5 22T210 474q94 0 141-67l-19-11q-23 30-52 44.5T210 455q-19 0-40-5t-38.5-16.5-29-30.5T91 357q0-30 9.5-48t26.5-29 41-18.5 53-14.5q27-7 52.5-16.5t45-23.5 31-35 11.5-52zM191 549 88 693h23l94-132 94 132h23L219 549h-28zm14 219q-9 0-16 7t-7 19q0 11 7 18t16 7 16-7 7-18q0-12-7.5-19t-15.5-7z"/><glyph glyph-name="Sdotbelowdotaccent" unicode="Ṩ" horiz-adv-x="570" d="M498 170q0-45-17.5-80.5t-46.5-60-68.5-37T283-20q-66 0-120.5 23.5T72 67l17 15q38-41 88.5-61.5T282 0q39 0 74 11.5t62 33 42.5 53T476 170t-17 69-44 48-61.5 33.5T284 345q-44 14-80.5 29.5t-63 38-41 54T85 543q0 44 17.5 78.5t47.5 58 69.5 36T303 728q54 0 102.5-20.5T485 649l-17-15q-28 35-71.5 54.5T302 708q-36 0-70.5-10T169 667.5 124 616t-17-73q0-41 15-69.5t40-48.5 56.5-33 64.5-24q45-15 84-30.5t68.5-37.5 46-53.5T498 170zM285-146q-9 0-16 7t-7 19q0 11 7 18t16 7 16-7 7-18q0-12-7.5-19t-15.5-7zm0 949q-9 0-16 7t-7 19q0 11 7 18t16 7 16-7 7-18q0-12-7.5-19t-15.5-7z"/><glyph glyph-name="sdotbelowdotaccent" unicode="ṩ" horiz-adv-x="415" d="M361 120q0-31-12-55.5T316.5 23 269-3t-58-9q-51 0-92.5 19.5T50 65l18 12Q118 7 212 7q22 0 44.5 7t41 21 30 35 11.5 48q0 32-14.5 52T288 202t-48.5 19.5T190 235q-25 7-47 15.5t-38.5 22-26 33.5-9.5 50 12 52 32 36.5 45.5 22T210 474q94 0 141-67l-19-11q-23 30-52 44.5T210 455q-19 0-40-5t-38.5-16.5-29-30.5T91 357q0-30 9.5-48t26.5-29 41-18.5 53-14.5q27-7 52.5-16.5t45-23.5 31-35 11.5-52zM205-138q-9 0-16 7t-7 19q0 11 7 18t16 7 16-7 7-18q0-12-7.5-19t-15.5-7zm0 687q-9 0-16 7t-7 19q0 11 7 18t16 7 16-7 7-18q0-12-7.5-19t-15.5-7z"/><glyph glyph-name="uni1E6A" unicode="Ṫ" horiz-adv-x="540" d="M281 688V0h-22v688H18v20h504v-20H281zm-11 145q-9 0-16 7t-7 19q0 11 7 18t16 7 16-7 7-18q0-12-7.5-19t-15.5-7z"/><glyph glyph-name="uni1E6B" unicode="ṫ" horiz-adv-x="304" d="M280-1q-12-5-28-8t-31-3q-54 0-77.5 30.5T120 95v346H20v19h99v135h23V460h135v-19H142V95q0-47 23-67.5T226 7q28 0 51 9zM130 713q-9 0-16 7t-7 19q0 11 7 18t16 7 16-7 7-18q0-12-7.5-19t-15.5-7z"/><glyph glyph-name="Tdotbelow" unicode="Ṭ" horiz-adv-x="540" d="M281 688V0h-22v688H18v20h504v-20H281zm-11-814q-9 0-16 7t-7 19q0 11 7 18t16 7 16-7 7-18q0-12-7.5-19t-15.5-7z"/><glyph glyph-name="tdotbelow" unicode="ṭ" horiz-adv-x="304" d="M280-1q-12-5-28-8t-31-3q-54 0-77.5 30.5T120 95v346H20v19h99v135h23V460h135v-19H142V95q0-47 23-67.5T226 7q28 0 51 9l3-17zM150-138q-9 0-16 7t-7 19q0 11 7 18t16 7 16-7 7-18q0-12-7.5-19t-15.5-7z"/><glyph glyph-name="Tlinebelow" unicode="Ṯ" horiz-adv-x="540" d="M281 688V0h-22v688H18v20h504v-20H281zM154-95v20h232v-20H154z"/><glyph glyph-name="tlinebelow" unicode="ṯ" horiz-adv-x="304" d="M280-1q-12-5-28-8t-31-3q-54 0-77.5 30.5T120 95v346H20v19h99v135h23V460h135v-19H142V95q0-47 23-67.5T226 7q28 0 51 9l3-17zM34-107v20h232v-20H34z"/><glyph glyph-name="Tcircumflexbelow" unicode="Ṱ" horiz-adv-x="540" d="M281 688V0h-22v688H18v20h504v-20H281zm3-763 103-144h-23L270-87l-94-132h-23L256-75h28z"/><glyph glyph-name="tcircumflexbelow" unicode="ṱ" horiz-adv-x="304" d="M280-1q-12-5-28-8t-31-3q-54 0-77.5 30.5T120 95v346H20v19h99v135h23V460h135v-19H142V95q0-47 23-67.5T226 7q28 0 51 9l3-17zM164-87l103-144h-23L150-99 56-231H33L136-87h28z"/><glyph glyph-name="Udieresisbelow" unicode="Ṳ" horiz-adv-x="732" d="M636 268q0-60-14-112.5T576 64 492.5 2.5 366-20 239.5 2.5 156 64t-46 91.5T96 268v440h22V272q0-42 8.5-89.5t35-88 75-67.5T366 0q79 0 127.5 26T569 92.5t36 88 9 91.5v436h22V268zM289-146q-9 0-16 7t-7 19q0 11 7 18t16 7 16-7 7-18q0-12-7.5-19t-15.5-7zm154 0q-9 0-16 7t-7 19q0 11 7 18t16 7 16-7 7-18q0-12-7.5-19t-15.5-7z"/><glyph glyph-name="udieresisbelow" unicode="ṳ" horiz-adv-x="572" d="M442 121q-11-32-29.5-57.5T370 21 318-5t-58-9q-48 0-80 17t-51 45-27 63-8 71v278h22V184q0-29 6-60.5T144.5 66t44-43.5T260 5q38 0 71.5 15.5t58 44.5 39 70.5T443 230v230h22V116q0-11 .5-27t1-32.5T468 25t2-25h-22q-1 10-1.5 25t-1 32.5-1 34-.5 29.5h-2zM205-140q-9 0-16 7t-7 19q0 11 7 18t16 7 16-7 7-18q0-12-7.5-19t-15.5-7zm154 0q-9 0-16 7t-7 19q0 11 7 18t16 7 16-7 7-18q0-12-7.5-19t-15.5-7z"/><glyph glyph-name="Utildebelow" unicode="Ṵ" horiz-adv-x="732" d="M636 268q0-60-14-112.5T576 64 492.5 2.5 366-20 239.5 2.5 156 64t-46 91.5T96 268v440h22V272q0-42 8.5-89.5t35-88 75-67.5T366 0q79 0 127.5 26T569 92.5t36 88 9 91.5v436h22V268zM369-119q13-8 22-13t15.5-7.5 11-3 10.5-.5q33 0 40 48h16q-4-36-20-51.5T428-162q-16 0-28.5 5T364-138q-26 16-37 20t-22 4q-32 0-40-51h-16q4 36 20 53t36 17q16 0 29-5t35-19z"/><glyph glyph-name="utildebelow" unicode="ṵ" horiz-adv-x="572" d="M442 121q-11-32-29.5-57.5T370 21 318-5t-58-9q-48 0-80 17t-51 45-27 63-8 71v278h22V184q0-29 6-60.5T144.5 66t44-43.5T260 5q38 0 71.5 15.5t58 44.5 39 70.5T443 230v230h22V116q0-11 .5-27t1-32.5T468 25t2-25h-22q-1 10-1.5 25t-1 32.5-1 34-.5 29.5h-2zM285-113q13-8 22-13t15.5-7.5 11-3 10.5-.5q33 0 40 48h16q-4-36-20-51.5T344-156q-16 0-28.5 5T280-132q-26 16-37 20t-22 4q-32 0-40-51h-16q4 36 20 53t36 17q16 0 29-5t35-19z"/><glyph glyph-name="Ucircumflexbelow" unicode="Ṷ" horiz-adv-x="732" d="M636 268q0-60-14-112.5T576 64 492.5 2.5 366-20 239.5 2.5 156 64t-46 91.5T96 268v440h22V272q0-42 8.5-89.5t35-88 75-67.5T366 0q79 0 127.5 26T569 92.5t36 88 9 91.5v436h22V268zM380-95l103-144h-23l-94 132-94-132h-23L352-95h28z"/><glyph glyph-name="ucircumflexbelow" unicode="ṷ" horiz-adv-x="572" d="M442 121q-11-32-29.5-57.5T370 21 318-5t-58-9q-48 0-80 17t-51 45-27 63-8 71v278h22V184q0-29 6-60.5T144.5 66t44-43.5T260 5q38 0 71.5 15.5t58 44.5 39 70.5T443 230v230h22V116q0-11 .5-27t1-32.5T468 25t2-25h-22q-1 10-1.5 25t-1 32.5-1 34-.5 29.5h-2zM296-89l103-144h-23l-94 132-94-132h-23L268-89h28z"/><glyph glyph-name="Utildeacute" unicode="Ṹ" horiz-adv-x="732" d="M636 268q0-60-14-112.5T576 64 492.5 2.5 366-20 239.5 2.5 156 64t-46 91.5T96 268v440h22V272q0-42 8.5-89.5t35-88 75-67.5T366 0q79 0 127.5 26T569 92.5t36 88 9 91.5v436h22V268zM369 829q13-8 22-13t15.5-7.5 11-3 10.5-.5q33 0 40 48h16q-4-36-20-51.5T428 786q-16 0-28.5 5T364 810q-26 16-37 20t-22 4q-32 0-40-51h-16q4 36 20 53t36 17q16 0 29-5t35-19zm-49 99h-19l103 144h27z"/><glyph glyph-name="utildeacute" unicode="ṹ" horiz-adv-x="572" d="M442 121q-11-32-29.5-57.5T370 21 318-5t-58-9q-48 0-80 17t-51 45-27 63-8 71v278h22V184q0-29 6-60.5T144.5 66t44-43.5T260 5q38 0 71.5 15.5t58 44.5 39 70.5T443 230v230h22V116q0-11 .5-27t1-32.5T468 25t2-25h-22q-1 10-1.5 25t-1 32.5-1 34-.5 29.5h-2zM285 581q13-8 22-13t15.5-7.5 11-3 10.5-.5q33 0 40 48h16q-4-36-20-51.5T344 538q-16 0-28.5 5T280 562q-26 16-37 20t-22 4q-32 0-40-51h-16q4 36 20 53t36 17q16 0 29-5t35-19zm-49 99h-19l103 144h27z"/><glyph glyph-name="Umacrondieresis" unicode="Ṻ" horiz-adv-x="732" d="M636 268q0-60-14-112.5T576 64 492.5 2.5 366-20 239.5 2.5 156 64t-46 91.5T96 268v440h22V272q0-42 8.5-89.5t35-88 75-67.5T366 0q79 0 127.5 26T569 92.5t36 88 9 91.5v436h22V268zM250 783v20h232v-20H250zm39 95q-9 0-16 7t-7 19q0 11 7 18t16 7 16-7 7-18q0-12-7.5-19t-15.5-7zm154 0q-9 0-16 7t-7 19q0 11 7 18t16 7 16-7 7-18q0-12-7.5-19t-15.5-7z"/><glyph glyph-name="umacrondieresis" unicode="ṻ" horiz-adv-x="572" d="M442 121q-11-32-29.5-57.5T370 21 318-5t-58-9q-48 0-80 17t-51 45-27 63-8 71v278h22V184q0-29 6-60.5T144.5 66t44-43.5T260 5q38 0 71.5 15.5t58 44.5 39 70.5T443 230v230h22V116q0-11 .5-27t1-32.5T468 25t2-25h-22q-1 10-1.5 25t-1 32.5-1 34-.5 29.5h-2zM166 535v20h232v-20H166zm39 95q-9 0-16 7t-7 19q0 11 7 18t16 7 16-7 7-18q0-12-7.5-19t-15.5-7zm154 0q-9 0-16 7t-7 19q0 11 7 18t16 7 16-7 7-18q0-12-7.5-19t-15.5-7z"/><glyph glyph-name="Vtilde" unicode="Ṽ" horiz-adv-x="606" d="M318 0h-34L18 708h24L300 20h2l262 688h24zm-12 829q13-8 22-13t15.5-7.5 11-3 10.5-.5q33 0 40 48h16q-4-36-20-51.5T365 786q-16 0-28.5 5T301 810q-26 16-37 20t-22 4q-32 0-40-51h-16q4 36 20 53t36 17q16 0 29-5t35-19z"/><glyph glyph-name="vtilde" unicode="ṽ" horiz-adv-x="434" d="M234 0h-29L24 460h24L219 22h2l165 438h24zm-14 581q13-8 22-13t15.5-7.5 11-3 10.5-.5q33 0 40 48h16q-4-36-20-51.5T279 538q-16 0-28.5 5T215 562q-26 16-37 20t-22 4q-32 0-40-51h-16q4 36 20 53t36 17q16 0 29-5t35-19z"/><glyph glyph-name="Vdotbelow" unicode="Ṿ" horiz-adv-x="606" d="M318 0h-34L18 708h24L300 20h2l262 688h24zm-15-126q-9 0-16 7t-7 19q0 11 7 18t16 7 16-7 7-18q0-12-7.5-19t-15.5-7z"/><glyph glyph-name="vdotbelow" unicode="ṿ" horiz-adv-x="434" d="M234 0h-29L24 460h24L219 22h2l165 438h24zm-17-126q-9 0-16 7t-7 19q0 11 7 18t16 7 16-7 7-18q0-12-7.5-19t-15.5-7z"/><glyph glyph-name="Wgrave" unicode="Ẁ" horiz-adv-x="956" d="M716 0h-34L477 687h-2L274 0h-34L28 708h23L255 20h3l201 688h34L698 20h3l204 688h23zM440 927l103-144h-19L413 927h27z"/><glyph glyph-name="wgrave" unicode="ẁ" horiz-adv-x="698" d="M529 0h-30L349 436h-2L198 0h-30L34 460h23L183 22h2l148 438h31L513 22h2l126 438h23zM311 679l103-144h-19L284 679h27z"/><glyph glyph-name="Wacute" unicode="Ẃ" horiz-adv-x="956" d="M716 0h-34L477 687h-2L274 0h-34L28 708h23L255 20h3l201 688h34L698 20h3l204 688h23zM432 783h-19l103 144h27z"/><glyph glyph-name="wacute" unicode="ẃ" horiz-adv-x="698" d="M529 0h-30L349 436h-2L198 0h-30L34 460h23L183 22h2l148 438h31L513 22h2l126 438h23zM303 535h-19l103 144h27z"/><glyph glyph-name="Wdieresis" unicode="Ẅ" horiz-adv-x="956" d="M716 0h-34L477 687h-2L274 0h-34L28 708h23L255 20h3l201 688h34L698 20h3l204 688h23zM401 783q-9 0-16 7t-7 19q0 11 7 18t16 7 16-7 7-18q0-12-7.5-19t-15.5-7zm154 0q-9 0-16 7t-7 19q0 11 7 18t16 7 16-7 7-18q0-12-7.5-19t-15.5-7z"/><glyph glyph-name="wdieresis" unicode="ẅ" horiz-adv-x="698" d="M529 0h-30L349 436h-2L198 0h-30L34 460h23L183 22h2l148 438h31L513 22h2l126 438h23zM272 535q-9 0-16 7t-7 19q0 11 7 18t16 7 16-7 7-18q0-12-7.5-19t-15.5-7zm154 0q-9 0-16 7t-7 19q0 11 7 18t16 7 16-7 7-18q0-12-7.5-19t-15.5-7z"/><glyph glyph-name="Wdotaccent" unicode="Ẇ" horiz-adv-x="956" d="M716 0h-34L477 687h-2L274 0h-34L28 708h23L255 20h3l201 688h34L698 20h3l204 688h23zM478 783q-9 0-16 7t-7 19q0 11 7 18t16 7 16-7 7-18q0-12-7.5-19t-15.5-7z"/><glyph glyph-name="wdotaccent" unicode="ẇ" horiz-adv-x="698" d="M529 0h-30L349 436h-2L198 0h-30L34 460h23L183 22h2l148 438h31L513 22h2l126 438h23zM349 535q-9 0-16 7t-7 19q0 11 7 18t16 7 16-7 7-18q0-12-7.5-19t-15.5-7z"/><glyph glyph-name="Wdotbelow" unicode="Ẉ" horiz-adv-x="956" d="M716 0h-34L477 687h-2L274 0h-34L28 708h23L255 20h3l201 688h34L698 20h3l204 688h23zM478-126q-9 0-16 7t-7 19q0 11 7 18t16 7 16-7 7-18q0-12-7.5-19t-15.5-7z"/><glyph glyph-name="wdotbelow" unicode="ẉ" horiz-adv-x="698" d="M529 0h-30L349 436h-2L198 0h-30L34 460h23L183 22h2l148 438h31L513 22h2l126 438h23zM349-126q-9 0-16 7t-7 19q0 11 7 18t16 7 16-7 7-18q0-12-7.5-19t-15.5-7z"/><glyph glyph-name="Xdotaccent" unicode="Ẋ" horiz-adv-x="590" d="M531 0 295 354 58 0H32l250 371L56 708h26l213-320 213 320h25L308 371 558 0h-27zM295 783q-9 0-16 7t-7 19q0 11 7 18t16 7 16-7 7-18q0-12-7.5-19t-15.5-7z"/><glyph glyph-name="xdotaccent" unicode="ẋ" horiz-adv-x="452" d="M224 228 56 0H28l182 243L51 460h28l146-202 145 202h29L239 243 424 0h-29zm2 307q-9 0-16 7t-7 19q0 11 7 18t16 7 16-7 7-18q0-12-7.5-19t-15.5-7z"/><glyph glyph-name="Xdieresis" unicode="Ẍ" horiz-adv-x="590" d="M531 0 295 354 58 0H32l250 371L56 708h26l213-320 213 320h25L308 371 558 0h-27zM218 783q-9 0-16 7t-7 19q0 11 7 18t16 7 16-7 7-18q0-12-7.5-19t-15.5-7zm154 0q-9 0-16 7t-7 19q0 11 7 18t16 7 16-7 7-18q0-12-7.5-19t-15.5-7z"/><glyph glyph-name="xdieresis" unicode="ẍ" horiz-adv-x="452" d="M224 228 56 0H28l182 243L51 460h28l146-202 145 202h29L239 243 424 0h-29zm-75 307q-9 0-16 7t-7 19q0 11 7 18t16 7 16-7 7-18q0-12-7.5-19t-15.5-7zm154 0q-9 0-16 7t-7 19q0 11 7 18t16 7 16-7 7-18q0-12-7.5-19t-15.5-7z"/><glyph glyph-name="Ydotaccent" unicode="Ẏ" horiz-adv-x="538" d="M280 310V0h-22v310L15 708h26l229-376 228 376h25zm-11 473q-9 0-16 7t-7 19q0 11 7 18t16 7 16-7 7-18q0-12-7.5-19t-15.5-7z"/><glyph glyph-name="ydotaccent" unicode="ẏ" horiz-adv-x="428" d="M176-152q-16-43-42.5-66.5T65-242q-9 0-21 2t-20 5l6 19q6-2 16.5-4t20.5-2q21 0 36.5 8t26.5 20.5 18.5 28.5 13.5 32l44 120L24 460h24L217 12l163 448h24zm38 687q-9 0-16 7t-7 19q0 11 7 18t16 7 16-7 7-18q0-12-7.5-19t-15.5-7z"/><glyph glyph-name="Zcircumflex" unicode="Ẑ" horiz-adv-x="594" d="M54 0v27l466 661H67v20h473v-29L75 20h477V0H54zm263 927 103-144h-23l-94 132-94-132h-23l103 144h28z"/><glyph glyph-name="zcircumflex" unicode="ẑ" horiz-adv-x="438" d="M49 0v21l304 420H65v19h310v-22L74 19h313V0H49zm183 679 103-144h-23l-94 132-94-132h-23l103 144h28z"/><glyph glyph-name="Zdotbelow" unicode="Ẓ" horiz-adv-x="594" d="M54 0v27l466 661H67v20h473v-29L75 20h477V0H54zm249-126q-9 0-16 7t-7 19q0 11 7 18t16 7 16-7 7-18q0-12-7.5-19t-15.5-7z"/><glyph glyph-name="zdotbelow" unicode="ẓ" horiz-adv-x="438" d="M49 0v21l304 420H65v19h310v-22L74 19h313V0H49zm169-126q-9 0-16 7t-7 19q0 11 7 18t16 7 16-7 7-18q0-12-7.5-19t-15.5-7z"/><glyph glyph-name="Zlinebelow" unicode="Ẕ" horiz-adv-x="594" d="M54 0v27l466 661H67v20h473v-29L75 20h477V0H54zm133-95v20h232v-20H187z"/><glyph glyph-name="zlinebelow" unicode="ẕ" horiz-adv-x="438" d="M49 0v21l304 420H65v19h310v-22L74 19h313V0H49zm53-95v20h232v-20H102z"/><glyph glyph-name="hlinebelow" unicode="ẖ" horiz-adv-x="569" d="M126 339q10 32 28.5 57t42.5 42.5 52 26.5 58 9q48 0 80-17t51-45 27-63 8-71V0h-22v276q0 28-6 60t-22.5 58-44.5 43.5-71 17.5q-38 0-71.5-15.5t-58-44.5-39-70.5T124 230V0h-22v756h22V339h2zm45-434v20h232v-20H171z"/><glyph glyph-name="tdieresis" unicode="ẗ" horiz-adv-x="304" d="M280-1q-12-5-28-8t-31-3q-54 0-77.5 30.5T120 95v346H20v19h99v135h23V460h135v-19H142V95q0-47 23-67.5T226 7q28 0 51 9l3-17zM73 670q-9 0-16 7t-7 19q0 11 7 18t16 7 16-7 7-18q0-12-7.5-19T73 670zm154 0q-9 0-16 7t-7 19q0 11 7 18t16 7 16-7 7-18q0-12-7.5-19t-15.5-7z"/><glyph glyph-name="wring" unicode="ẘ" horiz-adv-x="698" d="M529 0h-30L349 436h-2L198 0h-30L34 460h23L183 22h2l148 438h31L513 22h2l126 438h23zm-84 630q0-20-7.5-37.5t-21-30.5-31-20-36.5-7q-20 0-37 7t-30.5 20-21 30.5T253 630t7.5 37.5 21 30 30.5 20 37 7.5q19 0 36.5-7.5t31-20 21-30T445 630zm-19 0q0 32-22.5 55T349 708t-54.5-23-22.5-55 22.5-55 54.5-23 54.5 23 22.5 55z"/><glyph glyph-name="yring" unicode="ẙ" horiz-adv-x="428" d="M176-152q-16-43-42.5-66.5T65-242q-9 0-21 2t-20 5l6 19q6-2 16.5-4t20.5-2q21 0 36.5 8t26.5 20.5 18.5 28.5 13.5 32l44 120L24 460h24L217 12l163 448h24zm134 782q0-20-7.5-37.5t-21-30.5-31-20-36.5-7q-20 0-37 7t-30.5 20-21 30.5T118 630t7.5 37.5 21 30 30.5 20 37 7.5q19 0 36.5-7.5t31-20 21-30T310 630zm-19 0q0 32-22.5 55T214 708t-54.5-23-22.5-55 22.5-55 54.5-23 54.5 23 22.5 55z"/><glyph glyph-name="uni1EA0" unicode="Ạ" d="m624 0-84 203H129L42 0H18l307 708h28L648 0h-24zM338 694 137 222h396zm-23-838q0 10 6.5 17.5T338-119t16.5-7.5T361-144q0-11-6.5-18.5T338-170t-16.5 7.5T315-144z"/><glyph glyph-name="uni1EA1" unicode="ạ" horiz-adv-x="512" d="M418 104q0-26 2.5-55.5T426 0h-21q-2 10-3 24.5t-2.5 30-2 30.5-.5 25h-3q-20-63-69-93.5T220-14q-28 0-55.5 8T115 18 79.5 59 66 118q0 49 25.5 79t63.5 46.5 81.5 21.5 79.5 5h80v37q0 77-41 112.5T248 455q-41 0-76.5-15T108 400l-12 17q32 28 72.5 42.5T248 474q79 0 124.5-40.5T418 306V104zm-22 147h-71q-38 0-80-4.5T168 228t-57.5-40T88 118q0-32 12.5-53.5t32-34.5 43-19T220 5q51 0 85 19t54.5 48.5 28.5 65 8 69.5v44zM225-144q0 10 6.5 17.5T248-119t16.5-7.5T271-144q0-11-6.5-18.5T248-170t-16.5 7.5T225-144z"/><glyph glyph-name="uni1EA2" unicode="Ả" d="m624 0-84 203H129L42 0H18l307 708h28L648 0h-24zM338 694 137 222h396zm-14 61q0 18 9.5 31t36.5 26q19 9 27.5 22.5T406 862q0 23-16 39t-45 16-49-14-26-49l-19 3q8 41 32.5 60t61.5 19 59-21 22-53q0-21-12.5-39T377 794q-20-10-27-19t-7-20h-19z"/><glyph glyph-name="uni1EA3" unicode="ả" horiz-adv-x="512" d="M418 104q0-26 2.5-55.5T426 0h-21q-2 10-3 24.5t-2.5 30-2 30.5-.5 25h-3q-20-63-69-93.5T220-14q-28 0-55.5 8T115 18 79.5 59 66 118q0 49 25.5 79t63.5 46.5 81.5 21.5 79.5 5h80v37q0 77-41 112.5T248 455q-41 0-76.5-15T108 400l-12 17q32 28 72.5 42.5T248 474q79 0 124.5-40.5T418 306V104zm-22 147h-71q-38 0-80-4.5T168 228t-57.5-40T88 118q0-32 12.5-53.5t32-34.5 43-19T220 5q51 0 85 19t54.5 48.5 28.5 65 8 69.5v44zM234 555q0 18 9.5 31t36.5 26q19 9 27.5 22.5T316 662q0 23-16 39t-45 16-49-14-26-49l-19 3q8 41 32.5 60t61.5 19 59-21 22-53q0-21-12.5-39T287 594q-20-10-27-19t-7-20h-19z"/><glyph glyph-name="uni1EA4" unicode="Ấ" d="m624 0-84 203H129L42 0H18l307 708h28L648 0h-24zM338 694 137 222h396zm106 163 88 124h27l-96-124h-19zm-106 39-94-132h-23l103 144h28l103-144h-23z"/><glyph glyph-name="uni1EA5" unicode="ấ" horiz-adv-x="512" d="M418 104q0-26 2.5-55.5T426 0h-21q-2 10-3 24.5t-2.5 30-2 30.5-.5 25h-3q-20-63-69-93.5T220-14q-28 0-55.5 8T115 18 79.5 59 66 118q0 49 25.5 79t63.5 46.5 81.5 21.5 79.5 5h80v37q0 77-41 112.5T248 455q-41 0-76.5-15T108 400l-12 17q32 28 72.5 42.5T248 474q79 0 124.5-40.5T418 306V104zm-22 147h-71q-38 0-80-4.5T168 228t-57.5-40T88 118q0-32 12.5-53.5t32-34.5 43-19T220 5q51 0 85 19t54.5 48.5 28.5 65 8 69.5v44zm-42 406 88 124h27l-96-124h-19zm-106 19-94-132h-23l103 144h28l103-144h-23z"/><glyph glyph-name="uni1EA6" unicode="Ầ" d="m624 0-84 203H129L42 0H18l307 708h28L648 0h-24zM338 694 137 222h396zM213 857l-96 124h27l88-124h-19zm31-93h-23l103 144h28l103-144h-23l-94 132z"/><glyph glyph-name="uni1EA7" unicode="ầ" horiz-adv-x="512" d="M418 104q0-26 2.5-55.5T426 0h-21q-2 10-3 24.5t-2.5 30-2 30.5-.5 25h-3q-20-63-69-93.5T220-14q-28 0-55.5 8T115 18 79.5 59 66 118q0 49 25.5 79t63.5 46.5 81.5 21.5 79.5 5h80v37q0 77-41 112.5T248 455q-41 0-76.5-15T108 400l-12 17q32 28 72.5 42.5T248 474q79 0 124.5-40.5T418 306V104zm-22 147h-71q-38 0-80-4.5T168 228t-57.5-40T88 118q0-32 12.5-53.5t32-34.5 43-19T220 5q51 0 85 19t54.5 48.5 28.5 65 8 69.5v44zM123 657 27 781h27l88-124h-19zm31-113h-23l103 144h28l103-144h-23l-94 132z"/><glyph glyph-name="uni1EA8" unicode="Ẩ" d="m624 0-84 203H129L42 0H18l307 708h28L648 0h-24zM338 694 137 222h396zm0 202-94-132h-23l103 144h28l103-144h-23zm136-49q0 14 7.5 23.5T509 891q14 8 20.5 15.5T536 927q0 14-11 25t-32 11-34.5-10-18.5-34l-19 3q6 30 24.5 44.5T493 981t46-15.5 17-38.5q0-19-10-31.5T517 874q-24-11-24-27h-19z"/><glyph glyph-name="uni1EA9" unicode="ẩ" horiz-adv-x="512" d="M418 104q0-26 2.5-55.5T426 0h-21q-2 10-3 24.5t-2.5 30-2 30.5-.5 25h-3q-20-63-69-93.5T220-14q-28 0-55.5 8T115 18 79.5 59 66 118q0 49 25.5 79t63.5 46.5 81.5 21.5 79.5 5h80v37q0 77-41 112.5T248 455q-41 0-76.5-15T108 400l-12 17q32 28 72.5 42.5T248 474q79 0 124.5-40.5T418 306V104zm-22 147h-71q-38 0-80-4.5T168 228t-57.5-40T88 118q0-32 12.5-53.5t32-34.5 43-19T220 5q51 0 85 19t54.5 48.5 28.5 65 8 69.5v44zM248 676l-94-132h-23l103 144h28l103-144h-23zm136-29q0 14 7.5 23.5T419 691q14 8 20.5 15.5T446 727q0 14-11 25t-32 11-34.5-10-18.5-34l-19 3q6 30 24.5 44.5T403 781t46-15.5 17-38.5q0-19-10-31.5T427 674q-24-11-24-27h-19z"/><glyph glyph-name="uni1EAA" unicode="Ẫ" d="m624 0-84 203H129L42 0H18l307 708h28L648 0h-24zM338 694 137 222h396zm0 182-94-112h-23l103 124h28l103-124h-23zm3 92q13-8 22-13t15.5-7.5 11-3 10.5-.5q33 0 40 48h16q-4-36-20-51.5T400 925q-16 0-28.5 5T336 949q-26 16-37 20t-22 4q-32 0-40-51h-16q4 36 20 53t36 17q16 0 29-5t35-19z"/><glyph glyph-name="uni1EAB" unicode="ẫ" horiz-adv-x="512" d="M418 104q0-26 2.5-55.5T426 0h-21q-2 10-3 24.5t-2.5 30-2 30.5-.5 25h-3q-20-63-69-93.5T220-14q-28 0-55.5 8T115 18 79.5 59 66 118q0 49 25.5 79t63.5 46.5 81.5 21.5 79.5 5h80v37q0 77-41 112.5T248 455q-41 0-76.5-15T108 400l-12 17q32 28 72.5 42.5T248 474q79 0 124.5-40.5T418 306V104zm-22 147h-71q-38 0-80-4.5T168 228t-57.5-40T88 118q0-32 12.5-53.5t32-34.5 43-19T220 5q51 0 85 19t54.5 48.5 28.5 65 8 69.5v44zM248 676l-94-132h-23l103 144h28l103-144h-23zm3 102q13-8 22-13t15.5-7.5 11-3 10.5-.5q33 0 40 48h16q-4-36-20-51.5T310 735q-16 0-28.5 5T246 759q-26 16-37 20t-22 4q-32 0-40-51h-16q4 36 20 53t36 17q16 0 29-5t35-19z"/><glyph glyph-name="uni1EAC" unicode="Ậ" d="m624 0-84 203H129L42 0H18l307 708h28L648 0h-24zM338 694 137 222h396zm14 214 103-144h-23l-94 132-94-132h-23l103 144h28zM315-144q0 10 6.5 17.5T338-119t16.5-7.5T361-144q0-11-6.5-18.5T338-170t-16.5 7.5T315-144z"/><glyph glyph-name="uni1EAD" unicode="ậ" horiz-adv-x="512" d="M418 104q0-26 2.5-55.5T426 0h-21q-2 10-3 24.5t-2.5 30-2 30.5-.5 25h-3q-20-63-69-93.5T220-14q-28 0-55.5 8T115 18 79.5 59 66 118q0 49 25.5 79t63.5 46.5 81.5 21.5 79.5 5h80v37q0 77-41 112.5T248 455q-41 0-76.5-15T108 400l-12 17q32 28 72.5 42.5T248 474q79 0 124.5-40.5T418 306V104zm-22 147h-71q-38 0-80-4.5T168 228t-57.5-40T88 118q0-32 12.5-53.5t32-34.5 43-19T220 5q51 0 85 19t54.5 48.5 28.5 65 8 69.5v44zM262 708l103-144h-23l-94 132-94-132h-23l103 144h28zm-37-852q0 10 6.5 17.5T248-119t16.5-7.5T271-144q0-11-6.5-18.5T248-170t-16.5 7.5T225-144z"/><glyph glyph-name="uni1EAE" unicode="Ắ" d="m624 0-84 203H129L42 0H18l307 708h28L648 0h-24zM338 694 137 222h396zm-34 154 103 144h27L323 848h-19zm159 50q-10-61-43.5-93.5T336 772q-49 0-82.5 32.5T212 898h19q10-52 38-79t67-27q45 0 71 25t38 81h18z"/><glyph glyph-name="uni1EAF" unicode="ắ" horiz-adv-x="512" d="M418 104q0-26 2.5-55.5T426 0h-21q-2 10-3 24.5t-2.5 30-2 30.5-.5 25h-3q-20-63-69-93.5T220-14q-28 0-55.5 8T115 18 79.5 59 66 118q0 49 25.5 79t63.5 46.5 81.5 21.5 79.5 5h80v37q0 77-41 112.5T248 455q-41 0-76.5-15T108 400l-12 17q32 28 72.5 42.5T248 474q79 0 124.5-40.5T418 306V104zm-22 147h-71q-38 0-80-4.5T168 228t-57.5-40T88 118q0-32 12.5-53.5t32-34.5 43-19T220 5q51 0 85 19t54.5 48.5 28.5 65 8 69.5v44zM214 648l103 144h27L233 648h-19zm159 30q-10-61-43.5-93.5T246 552q-49 0-82.5 32.5T122 678h19q10-52 38-79t67-27q45 0 71 25t38 81h18z"/><glyph glyph-name="uni1EB0" unicode="Ằ" d="m624 0-84 203H129L42 0H18l307 708h28L648 0h-24zM338 694 137 222h396zm14 154L241 992h27l103-144h-19zm111 50q-10-61-43.5-93.5T336 772q-49 0-82.5 32.5T212 898h19q10-52 38-79t67-27q45 0 71 25t38 81h18z"/><glyph glyph-name="uni1EB1" unicode="ằ" horiz-adv-x="512" d="M418 104q0-26 2.5-55.5T426 0h-21q-2 10-3 24.5t-2.5 30-2 30.5-.5 25h-3q-20-63-69-93.5T220-14q-28 0-55.5 8T115 18 79.5 59 66 118q0 49 25.5 79t63.5 46.5 81.5 21.5 79.5 5h80v37q0 77-41 112.5T248 455q-41 0-76.5-15T108 400l-12 17q32 28 72.5 42.5T248 474q79 0 124.5-40.5T418 306V104zm-22 147h-71q-38 0-80-4.5T168 228t-57.5-40T88 118q0-32 12.5-53.5t32-34.5 43-19T220 5q51 0 85 19t54.5 48.5 28.5 65 8 69.5v44zM262 648 151 792h27l103-144h-19zm111 30q-10-61-43.5-93.5T246 552q-49 0-82.5 32.5T122 678h19q10-52 38-79t67-27q45 0 71 25t38 81h18z"/><glyph glyph-name="uni1EB2" unicode="Ẳ" d="m624 0-84 203H129L42 0H18l307 708h28L648 0h-24zM338 694 137 222h396zm-20 164q0 14 7.5 23.5T353 902q14 8 20.5 15.5T380 938q0 14-11 25t-32 11-34.5-10-18.5-34l-19 3q6 30 24.5 44.5T337 992t46-15.5 17-38.5q0-19-10-31.5T361 885q-24-11-24-27h-19zm145 40q-10-61-43.5-93.5T336 772q-49 0-82.5 32.5T212 898h19q10-52 38-79t67-27q45 0 71 25t38 81h18z"/><glyph glyph-name="uni1EB3" unicode="ẳ" horiz-adv-x="512" d="M418 104q0-26 2.5-55.5T426 0h-21q-2 10-3 24.5t-2.5 30-2 30.5-.5 25h-3q-20-63-69-93.5T220-14q-28 0-55.5 8T115 18 79.5 59 66 118q0 49 25.5 79t63.5 46.5 81.5 21.5 79.5 5h80v37q0 77-41 112.5T248 455q-41 0-76.5-15T108 400l-12 17q32 28 72.5 42.5T248 474q79 0 124.5-40.5T418 306V104zm-22 147h-71q-38 0-80-4.5T168 228t-57.5-40T88 118q0-32 12.5-53.5t32-34.5 43-19T220 5q51 0 85 19t54.5 48.5 28.5 65 8 69.5v44zM228 658q0 14 7.5 23.5T263 702q14 8 20.5 15.5T290 738q0 14-11 25t-32 11-34.5-10-18.5-34l-19 3q6 30 24.5 44.5T247 792t46-15.5 17-38.5q0-19-10-31.5T271 685q-24-11-24-27h-19zm145 20q-10-61-43.5-93.5T246 552q-49 0-82.5 32.5T122 678h19q10-52 38-79t67-27q45 0 71 25t38 81h18z"/><glyph glyph-name="uni1EB4" unicode="Ẵ" d="m624 0-84 203H129L42 0H18l307 708h28L648 0h-24zM338 694 137 222h396zm-2 78q-49 0-82.5 27T212 878h19q8-42 37-64t68-22 70 22 39 64h18q-8-52-43-79t-84-27zm4 196q13-8 22-13t15.5-7.5 11-3 10.5-.5q33 0 40 48h16q-4-36-20-51.5T399 925q-16 0-28.5 5T335 949q-26 16-37 20t-22 4q-32 0-40-51h-16q4 36 20 53t36 17q16 0 29-5t35-19z"/><glyph glyph-name="uni1EB5" unicode="ẵ" horiz-adv-x="512" d="M418 104q0-26 2.5-55.5T426 0h-21q-2 10-3 24.5t-2.5 30-2 30.5-.5 25h-3q-20-63-69-93.5T220-14q-28 0-55.5 8T115 18 79.5 59 66 118q0 49 25.5 79t63.5 46.5 81.5 21.5 79.5 5h80v37q0 77-41 112.5T248 455q-41 0-76.5-15T108 400l-12 17q32 28 72.5 42.5T248 474q79 0 124.5-40.5T418 306V104zm-22 147h-71q-38 0-80-4.5T168 228t-57.5-40T88 118q0-32 12.5-53.5t32-34.5 43-19T220 5q51 0 85 19t54.5 48.5 28.5 65 8 69.5v44zM250 768q13-8 22-13t15.5-7.5 11-3 10.5-.5q33 0 40 48h16q-4-36-20-51.5T309 725q-16 0-28.5 5T245 749q-26 16-37 20t-22 4q-33 0-40-51h-16q4 36 20 53t36 17q16 0 29-5.5t35-18.5zm123-90q-10-61-43.5-93.5T246 552q-49 0-82.5 32.5T122 678h19q10-52 38-79t67-27q45 0 71 25t38 81h18z"/><glyph glyph-name="uni1EB6" unicode="Ặ" d="m624 0-84 203H129L42 0H18l307 708h28L648 0h-24zM338 694 137 222h396zm126 204q-10-61-43.5-93.5T337 772q-49 0-82.5 32.5T213 898h19q10-52 38-79t67-27q45 0 71 25t38 81h18zM315-144q0 10 6.5 17.5T338-119t16.5-7.5T361-144q0-11-6.5-18.5T338-170t-16.5 7.5T315-144z"/><glyph glyph-name="uni1EB7" unicode="ặ" horiz-adv-x="512" d="M418 104q0-26 2.5-55.5T426 0h-21q-2 10-3 24.5t-2.5 30-2 30.5-.5 25h-3q-20-63-69-93.5T220-14q-28 0-55.5 8T115 18 79.5 59 66 118q0 49 25.5 79t63.5 46.5 81.5 21.5 79.5 5h80v37q0 77-41 112.5T248 455q-41 0-76.5-15T108 400l-12 17q32 28 72.5 42.5T248 474q79 0 124.5-40.5T418 306V104zm-22 147h-71q-38 0-80-4.5T168 228t-57.5-40T88 118q0-32 12.5-53.5t32-34.5 43-19T220 5q51 0 85 19t54.5 48.5 28.5 65 8 69.5v44zm-22 447q-10-61-43.5-93.5T247 572q-49 0-82.5 32.5T123 698h19q10-52 38-79t67-27q45 0 71 25t38 81h18zM225-144q0 10 6.5 17.5T248-119t16.5-7.5T271-144q0-11-6.5-18.5T248-170t-16.5 7.5T225-144z"/><glyph glyph-name="uni1EB8" unicode="Ẹ" horiz-adv-x="590" d="M106 0v708h412v-20H127V377h368v-20H127V20h407V0H106zm186-144q0 10 6.5 17.5T315-119t16.5-7.5T338-144q0-11-6.5-18.5T315-170t-16.5 7.5T292-144z"/></font>
</defs>
</svg>
